G04 EAGLE Gerber X2 export*
%TF.Part,Single*%
%TF.FileFunction,Copper,L1,Top,Mixed*%
%TF.FilePolarity,Positive*%
%TF.GenerationSoftware,Autodesk,EAGLE,8.7.1*%
%TF.CreationDate,2018-09-06T08:27:59Z*%
G75*
%MOMM*%
%FSLAX34Y34*%
%LPD*%
%AMOC8*
5,1,8,0,0,1.08239X$1,22.5*%
G01*
%ADD10R,1.485000X0.900000*%
%ADD11R,1.676400X1.676400*%
%ADD12C,1.524000*%
%ADD13R,1.524000X1.524000*%
%ADD14R,1.500000X1.500000*%
%ADD15C,1.524000*%
%ADD16C,0.812800*%
%ADD17C,0.654800*%
%ADD18C,0.304800*%
%ADD19C,1.219200*%

G36*
X227059Y3190D02*
X227059Y3190D01*
X227150Y3198D01*
X227180Y3210D01*
X227212Y3215D01*
X227293Y3258D01*
X227377Y3294D01*
X227409Y3320D01*
X227429Y3331D01*
X227452Y3354D01*
X227508Y3399D01*
X250601Y26492D01*
X250654Y26566D01*
X250714Y26636D01*
X250726Y26666D01*
X250745Y26692D01*
X250772Y26779D01*
X250806Y26864D01*
X250810Y26905D01*
X250817Y26927D01*
X250816Y26959D01*
X250824Y27031D01*
X250824Y31417D01*
X250813Y31488D01*
X250811Y31559D01*
X250793Y31608D01*
X250785Y31660D01*
X250751Y31723D01*
X250726Y31790D01*
X250694Y31831D01*
X250669Y31877D01*
X250617Y31926D01*
X250573Y31982D01*
X250529Y32011D01*
X250491Y32047D01*
X250426Y32077D01*
X250366Y32115D01*
X250315Y32128D01*
X250268Y32150D01*
X250197Y32158D01*
X250127Y32176D01*
X250075Y32171D01*
X250024Y32177D01*
X249953Y32162D01*
X249882Y32156D01*
X249834Y32136D01*
X249783Y32125D01*
X249722Y32088D01*
X249656Y32060D01*
X249600Y32015D01*
X249572Y31999D01*
X249557Y31981D01*
X249525Y31955D01*
X247056Y29486D01*
X243321Y27939D01*
X239279Y27939D01*
X235544Y29486D01*
X232686Y32344D01*
X231139Y36079D01*
X231139Y40121D01*
X232686Y43856D01*
X235544Y46714D01*
X239279Y48261D01*
X243321Y48261D01*
X247056Y46714D01*
X249525Y44245D01*
X249583Y44203D01*
X249635Y44153D01*
X249682Y44132D01*
X249724Y44101D01*
X249793Y44080D01*
X249858Y44050D01*
X249910Y44044D01*
X249960Y44029D01*
X250031Y44031D01*
X250102Y44023D01*
X250153Y44034D01*
X250205Y44035D01*
X250273Y44060D01*
X250343Y44075D01*
X250388Y44102D01*
X250436Y44120D01*
X250492Y44164D01*
X250554Y44201D01*
X250588Y44241D01*
X250628Y44273D01*
X250667Y44334D01*
X250714Y44388D01*
X250733Y44436D01*
X250761Y44480D01*
X250779Y44550D01*
X250806Y44616D01*
X250814Y44688D01*
X250822Y44719D01*
X250820Y44742D01*
X250824Y44783D01*
X250824Y56817D01*
X250813Y56888D01*
X250811Y56959D01*
X250793Y57008D01*
X250785Y57060D01*
X250751Y57123D01*
X250726Y57190D01*
X250694Y57231D01*
X250669Y57277D01*
X250617Y57326D01*
X250573Y57382D01*
X250529Y57411D01*
X250491Y57447D01*
X250426Y57477D01*
X250366Y57515D01*
X250315Y57528D01*
X250268Y57550D01*
X250197Y57558D01*
X250127Y57576D01*
X250075Y57571D01*
X250024Y57577D01*
X249953Y57562D01*
X249882Y57556D01*
X249834Y57536D01*
X249783Y57525D01*
X249722Y57488D01*
X249656Y57460D01*
X249600Y57415D01*
X249572Y57399D01*
X249557Y57381D01*
X249525Y57355D01*
X247056Y54886D01*
X243321Y53339D01*
X239279Y53339D01*
X235544Y54886D01*
X232686Y57744D01*
X231220Y61284D01*
X231186Y61340D01*
X231160Y61400D01*
X231108Y61465D01*
X231090Y61493D01*
X231075Y61505D01*
X231055Y61531D01*
X220259Y72327D01*
X217722Y74864D01*
X216407Y78038D01*
X216407Y94597D01*
X216393Y94687D01*
X216385Y94778D01*
X216373Y94808D01*
X216368Y94840D01*
X216325Y94921D01*
X216289Y95005D01*
X216263Y95037D01*
X216252Y95057D01*
X216229Y95080D01*
X216184Y95135D01*
X209848Y101472D01*
X208533Y104646D01*
X208533Y108082D01*
X209885Y111345D01*
X209895Y111358D01*
X209916Y111427D01*
X209946Y111493D01*
X209952Y111544D01*
X209967Y111593D01*
X209966Y111666D01*
X209973Y111737D01*
X209963Y111788D01*
X209961Y111839D01*
X209937Y111907D01*
X209921Y111978D01*
X209895Y112022D01*
X209877Y112070D01*
X209832Y112127D01*
X209795Y112189D01*
X209756Y112222D01*
X209724Y112263D01*
X209663Y112302D01*
X209608Y112349D01*
X209560Y112368D01*
X209517Y112396D01*
X209447Y112414D01*
X209380Y112441D01*
X209310Y112449D01*
X209279Y112456D01*
X209255Y112455D01*
X209213Y112459D01*
X207448Y112459D01*
X206024Y113883D01*
X205966Y113924D01*
X205914Y113974D01*
X205867Y113996D01*
X205825Y114026D01*
X205756Y114047D01*
X205691Y114077D01*
X205639Y114083D01*
X205589Y114099D01*
X205518Y114097D01*
X205447Y114105D01*
X205396Y114093D01*
X205344Y114092D01*
X205276Y114068D01*
X205206Y114052D01*
X205161Y114026D01*
X205113Y114008D01*
X205057Y113963D01*
X204995Y113926D01*
X204961Y113887D01*
X204921Y113854D01*
X204882Y113794D01*
X204835Y113739D01*
X204816Y113691D01*
X204788Y113647D01*
X204770Y113578D01*
X204743Y113511D01*
X204735Y113440D01*
X204727Y113409D01*
X204729Y113385D01*
X204725Y113344D01*
X204725Y56595D01*
X204744Y56478D01*
X204761Y56364D01*
X204763Y56358D01*
X204764Y56352D01*
X204819Y56250D01*
X204872Y56145D01*
X204877Y56140D01*
X204880Y56135D01*
X204964Y56055D01*
X205048Y55973D01*
X205054Y55969D01*
X205058Y55965D01*
X205075Y55958D01*
X205195Y55892D01*
X208956Y54334D01*
X211814Y51476D01*
X213361Y47741D01*
X213361Y28459D01*
X211814Y24724D01*
X208956Y21866D01*
X205221Y20319D01*
X201179Y20319D01*
X197444Y21866D01*
X194586Y24724D01*
X193039Y28459D01*
X193039Y47741D01*
X194586Y51476D01*
X196372Y53262D01*
X196425Y53336D01*
X196485Y53405D01*
X196497Y53435D01*
X196516Y53462D01*
X196543Y53548D01*
X196577Y53633D01*
X196581Y53674D01*
X196588Y53697D01*
X196587Y53729D01*
X196595Y53800D01*
X196595Y67314D01*
X196584Y67385D01*
X196582Y67457D01*
X196564Y67506D01*
X196556Y67557D01*
X196522Y67620D01*
X196497Y67688D01*
X196465Y67729D01*
X196440Y67775D01*
X196388Y67824D01*
X196344Y67880D01*
X196300Y67908D01*
X196262Y67944D01*
X196197Y67974D01*
X196137Y68013D01*
X196086Y68026D01*
X196039Y68048D01*
X195968Y68055D01*
X195898Y68073D01*
X195846Y68069D01*
X195795Y68075D01*
X195724Y68059D01*
X195653Y68054D01*
X195605Y68033D01*
X195554Y68022D01*
X195493Y67986D01*
X195427Y67957D01*
X195371Y67913D01*
X195343Y67896D01*
X195328Y67878D01*
X195296Y67853D01*
X194783Y67340D01*
X194783Y67339D01*
X183103Y55660D01*
X183077Y55623D01*
X183043Y55592D01*
X183005Y55524D01*
X182960Y55461D01*
X182946Y55417D01*
X182924Y55377D01*
X182910Y55300D01*
X182888Y55226D01*
X182889Y55180D01*
X182881Y55134D01*
X182892Y55057D01*
X182894Y54980D01*
X182910Y54937D01*
X182916Y54891D01*
X182952Y54822D01*
X182978Y54749D01*
X183007Y54713D01*
X183028Y54672D01*
X183083Y54617D01*
X183132Y54557D01*
X183171Y54532D01*
X183204Y54500D01*
X183323Y54434D01*
X183339Y54424D01*
X183344Y54422D01*
X183350Y54419D01*
X183556Y54334D01*
X186414Y51476D01*
X187961Y47741D01*
X187961Y28459D01*
X186414Y24724D01*
X183556Y21866D01*
X179821Y20319D01*
X178783Y20319D01*
X178693Y20305D01*
X178602Y20297D01*
X178572Y20285D01*
X178540Y20280D01*
X178460Y20237D01*
X178376Y20201D01*
X178343Y20175D01*
X178323Y20164D01*
X178301Y20141D01*
X178245Y20096D01*
X174468Y16319D01*
X171864Y13715D01*
X93374Y13715D01*
X93284Y13701D01*
X93193Y13693D01*
X93163Y13681D01*
X93131Y13676D01*
X93050Y13633D01*
X92967Y13597D01*
X92934Y13571D01*
X92914Y13560D01*
X92892Y13537D01*
X92836Y13492D01*
X92194Y12851D01*
X90057Y11965D01*
X87743Y11965D01*
X85606Y12851D01*
X83971Y14486D01*
X83085Y16623D01*
X83085Y18937D01*
X83971Y21074D01*
X85606Y22709D01*
X87743Y23595D01*
X90057Y23595D01*
X92194Y22709D01*
X92836Y22068D01*
X92910Y22015D01*
X92979Y21955D01*
X93009Y21943D01*
X93035Y21924D01*
X93122Y21897D01*
X93207Y21863D01*
X93248Y21859D01*
X93270Y21852D01*
X93303Y21853D01*
X93374Y21845D01*
X94028Y21845D01*
X94099Y21856D01*
X94170Y21858D01*
X94219Y21876D01*
X94271Y21884D01*
X94334Y21918D01*
X94401Y21943D01*
X94442Y21975D01*
X94488Y22000D01*
X94537Y22052D01*
X94593Y22096D01*
X94622Y22140D01*
X94658Y22178D01*
X94688Y22243D01*
X94726Y22303D01*
X94739Y22354D01*
X94761Y22401D01*
X94769Y22472D01*
X94787Y22542D01*
X94782Y22594D01*
X94788Y22645D01*
X94773Y22716D01*
X94767Y22787D01*
X94747Y22835D01*
X94736Y22886D01*
X94699Y22947D01*
X94671Y23013D01*
X94626Y23069D01*
X94610Y23097D01*
X94592Y23112D01*
X94566Y23144D01*
X92986Y24724D01*
X91439Y28459D01*
X91439Y47741D01*
X92986Y51476D01*
X95844Y54334D01*
X99579Y55881D01*
X103621Y55881D01*
X107356Y54334D01*
X110214Y51476D01*
X111761Y47741D01*
X111761Y28459D01*
X110214Y24724D01*
X108634Y23144D01*
X108592Y23086D01*
X108542Y23034D01*
X108521Y22987D01*
X108490Y22945D01*
X108469Y22876D01*
X108439Y22811D01*
X108433Y22759D01*
X108418Y22709D01*
X108420Y22638D01*
X108412Y22567D01*
X108423Y22516D01*
X108424Y22464D01*
X108449Y22396D01*
X108464Y22326D01*
X108491Y22281D01*
X108509Y22233D01*
X108553Y22177D01*
X108590Y22115D01*
X108630Y22081D01*
X108662Y22041D01*
X108723Y22002D01*
X108777Y21955D01*
X108825Y21936D01*
X108869Y21908D01*
X108939Y21890D01*
X109005Y21863D01*
X109077Y21855D01*
X109108Y21847D01*
X109131Y21849D01*
X109172Y21845D01*
X119428Y21845D01*
X119499Y21856D01*
X119570Y21858D01*
X119619Y21876D01*
X119671Y21884D01*
X119734Y21918D01*
X119801Y21943D01*
X119842Y21975D01*
X119888Y22000D01*
X119937Y22052D01*
X119993Y22096D01*
X120022Y22140D01*
X120058Y22178D01*
X120088Y22243D01*
X120126Y22303D01*
X120139Y22354D01*
X120161Y22401D01*
X120169Y22472D01*
X120187Y22542D01*
X120182Y22594D01*
X120188Y22645D01*
X120173Y22716D01*
X120167Y22787D01*
X120147Y22835D01*
X120136Y22886D01*
X120099Y22947D01*
X120071Y23013D01*
X120026Y23069D01*
X120010Y23097D01*
X119992Y23112D01*
X119966Y23144D01*
X118386Y24724D01*
X116839Y28459D01*
X116839Y47741D01*
X118386Y51476D01*
X121244Y54334D01*
X124979Y55881D01*
X129021Y55881D01*
X132756Y54334D01*
X134582Y52507D01*
X134598Y52496D01*
X134611Y52480D01*
X134698Y52424D01*
X134782Y52364D01*
X134801Y52358D01*
X134818Y52347D01*
X134918Y52322D01*
X135017Y52291D01*
X135037Y52292D01*
X135056Y52287D01*
X135159Y52295D01*
X135263Y52298D01*
X135282Y52305D01*
X135302Y52306D01*
X135396Y52346D01*
X135494Y52382D01*
X135510Y52395D01*
X135528Y52402D01*
X135659Y52507D01*
X143065Y59914D01*
X143107Y59972D01*
X143157Y60024D01*
X143179Y60071D01*
X143209Y60113D01*
X143230Y60182D01*
X143260Y60247D01*
X143266Y60299D01*
X143281Y60349D01*
X143279Y60420D01*
X143287Y60491D01*
X143276Y60542D01*
X143275Y60594D01*
X143250Y60662D01*
X143235Y60732D01*
X143208Y60776D01*
X143190Y60825D01*
X143146Y60881D01*
X143109Y60943D01*
X143069Y60977D01*
X143037Y61017D01*
X142976Y61056D01*
X142922Y61103D01*
X142874Y61122D01*
X142830Y61150D01*
X142760Y61168D01*
X142694Y61195D01*
X142622Y61203D01*
X142591Y61211D01*
X142568Y61209D01*
X142527Y61213D01*
X90238Y61213D01*
X85515Y65936D01*
X85441Y65989D01*
X85372Y66049D01*
X85342Y66061D01*
X85316Y66080D01*
X85229Y66107D01*
X85144Y66141D01*
X85103Y66145D01*
X85080Y66152D01*
X85048Y66151D01*
X84977Y66159D01*
X76258Y66159D01*
X74769Y67648D01*
X74769Y84752D01*
X76258Y86241D01*
X93362Y86241D01*
X94851Y84752D01*
X94851Y70104D01*
X94854Y70084D01*
X94852Y70065D01*
X94874Y69963D01*
X94890Y69861D01*
X94900Y69844D01*
X94904Y69824D01*
X94957Y69735D01*
X95006Y69644D01*
X95020Y69630D01*
X95030Y69613D01*
X95109Y69546D01*
X95184Y69474D01*
X95202Y69466D01*
X95217Y69453D01*
X95313Y69414D01*
X95407Y69371D01*
X95427Y69369D01*
X95445Y69361D01*
X95612Y69343D01*
X156976Y69343D01*
X157066Y69357D01*
X157157Y69365D01*
X157187Y69377D01*
X157219Y69382D01*
X157300Y69425D01*
X157384Y69461D01*
X157416Y69487D01*
X157436Y69498D01*
X157459Y69521D01*
X157515Y69566D01*
X161610Y73661D01*
X173486Y73661D01*
X173576Y73675D01*
X173667Y73683D01*
X173697Y73695D01*
X173729Y73700D01*
X173810Y73743D01*
X173894Y73779D01*
X173926Y73805D01*
X173946Y73816D01*
X173969Y73839D01*
X174025Y73884D01*
X177858Y77717D01*
X177911Y77791D01*
X177971Y77861D01*
X177983Y77891D01*
X178002Y77917D01*
X178029Y78004D01*
X178063Y78089D01*
X178067Y78130D01*
X178074Y78152D01*
X178073Y78184D01*
X178081Y78256D01*
X178081Y145730D01*
X184462Y152111D01*
X184515Y152185D01*
X184575Y152254D01*
X184587Y152284D01*
X184606Y152310D01*
X184633Y152397D01*
X184667Y152482D01*
X184671Y152523D01*
X184678Y152546D01*
X184677Y152578D01*
X184685Y152649D01*
X184685Y153557D01*
X185571Y155694D01*
X187206Y157329D01*
X189343Y158215D01*
X190017Y158215D01*
X190088Y158226D01*
X190159Y158228D01*
X190208Y158246D01*
X190260Y158254D01*
X190323Y158288D01*
X190390Y158313D01*
X190431Y158345D01*
X190477Y158370D01*
X190526Y158422D01*
X190582Y158466D01*
X190611Y158510D01*
X190646Y158548D01*
X190677Y158613D01*
X190715Y158673D01*
X190728Y158724D01*
X190750Y158771D01*
X190758Y158842D01*
X190775Y158912D01*
X190771Y158964D01*
X190777Y159015D01*
X190762Y159086D01*
X190756Y159157D01*
X190736Y159205D01*
X190725Y159256D01*
X190688Y159317D01*
X190660Y159383D01*
X190615Y159439D01*
X190599Y159467D01*
X190581Y159482D01*
X190555Y159514D01*
X181091Y168979D01*
X180085Y171406D01*
X180085Y174034D01*
X181091Y176461D01*
X182949Y178319D01*
X185376Y179325D01*
X188004Y179325D01*
X189322Y178779D01*
X189416Y178757D01*
X189509Y178728D01*
X189536Y178729D01*
X189561Y178723D01*
X189658Y178732D01*
X189755Y178734D01*
X189780Y178743D01*
X189806Y178746D01*
X189895Y178785D01*
X189986Y178819D01*
X190007Y178835D01*
X190031Y178846D01*
X190102Y178912D01*
X190178Y178973D01*
X190192Y178995D01*
X190212Y179012D01*
X190259Y179098D01*
X190311Y179179D01*
X190318Y179205D01*
X190330Y179228D01*
X190348Y179324D01*
X190371Y179418D01*
X190369Y179444D01*
X190374Y179470D01*
X190360Y179566D01*
X190352Y179663D01*
X190342Y179687D01*
X190338Y179713D01*
X190294Y179800D01*
X190256Y179890D01*
X190236Y179915D01*
X190227Y179932D01*
X190203Y179956D01*
X190151Y180020D01*
X173799Y196372D01*
X172750Y197421D01*
X172692Y197463D01*
X172640Y197513D01*
X172593Y197535D01*
X172551Y197565D01*
X172482Y197586D01*
X172417Y197616D01*
X172365Y197622D01*
X172315Y197637D01*
X172244Y197635D01*
X172173Y197643D01*
X172122Y197632D01*
X172070Y197631D01*
X172002Y197606D01*
X171932Y197591D01*
X171887Y197564D01*
X171839Y197546D01*
X171783Y197502D01*
X171721Y197465D01*
X171687Y197425D01*
X171647Y197393D01*
X171608Y197332D01*
X171561Y197278D01*
X171542Y197230D01*
X171514Y197186D01*
X171496Y197116D01*
X171469Y197050D01*
X171461Y196979D01*
X171453Y196947D01*
X171455Y196924D01*
X171451Y196883D01*
X171451Y142875D01*
X171450Y142874D01*
X114300Y142874D01*
X114299Y142875D01*
X114299Y200025D01*
X114300Y200026D01*
X149348Y200026D01*
X149393Y200033D01*
X149439Y200031D01*
X149514Y200053D01*
X149591Y200065D01*
X149631Y200087D01*
X149675Y200100D01*
X149739Y200144D01*
X149808Y200181D01*
X149839Y200214D01*
X149877Y200240D01*
X149924Y200303D01*
X149977Y200359D01*
X149997Y200401D01*
X150024Y200437D01*
X150048Y200511D01*
X150081Y200582D01*
X150086Y200628D01*
X150100Y200671D01*
X150099Y200749D01*
X150108Y200826D01*
X150098Y200871D01*
X150098Y200917D01*
X150060Y201049D01*
X150056Y201067D01*
X150053Y201071D01*
X150051Y201078D01*
X149125Y203313D01*
X149125Y205627D01*
X150011Y207764D01*
X151646Y209399D01*
X153783Y210285D01*
X156097Y210285D01*
X158234Y209399D01*
X158876Y208758D01*
X158950Y208705D01*
X159019Y208645D01*
X159049Y208633D01*
X159075Y208614D01*
X159162Y208587D01*
X159247Y208553D01*
X159288Y208549D01*
X159310Y208542D01*
X159343Y208543D01*
X159414Y208535D01*
X168689Y208535D01*
X168760Y208546D01*
X168832Y208548D01*
X168881Y208566D01*
X168932Y208574D01*
X168995Y208608D01*
X169063Y208633D01*
X169103Y208665D01*
X169149Y208690D01*
X169199Y208741D01*
X169255Y208786D01*
X169283Y208830D01*
X169319Y208868D01*
X169349Y208933D01*
X169388Y208993D01*
X169400Y209044D01*
X169422Y209091D01*
X169430Y209162D01*
X169448Y209232D01*
X169444Y209284D01*
X169449Y209335D01*
X169434Y209406D01*
X169428Y209477D01*
X169408Y209525D01*
X169397Y209576D01*
X169360Y209637D01*
X169332Y209703D01*
X169287Y209759D01*
X169271Y209787D01*
X169253Y209802D01*
X169227Y209834D01*
X155839Y223222D01*
X155745Y223290D01*
X155651Y223360D01*
X155645Y223362D01*
X155640Y223366D01*
X155528Y223400D01*
X155417Y223436D01*
X155411Y223436D01*
X155405Y223438D01*
X155288Y223435D01*
X155171Y223434D01*
X155164Y223432D01*
X155159Y223432D01*
X155141Y223425D01*
X155010Y223387D01*
X153557Y222785D01*
X151243Y222785D01*
X149106Y223671D01*
X147471Y225306D01*
X146585Y227443D01*
X146585Y229757D01*
X147471Y231894D01*
X149106Y233529D01*
X151243Y234415D01*
X153557Y234415D01*
X155694Y233529D01*
X156336Y232888D01*
X156410Y232835D01*
X156479Y232775D01*
X156509Y232763D01*
X156535Y232744D01*
X156622Y232717D01*
X156707Y232683D01*
X156748Y232679D01*
X156770Y232672D01*
X156803Y232673D01*
X156874Y232665D01*
X157894Y232665D01*
X191771Y198788D01*
X191845Y198735D01*
X191914Y198675D01*
X191944Y198663D01*
X191970Y198644D01*
X192057Y198617D01*
X192142Y198583D01*
X192183Y198579D01*
X192206Y198572D01*
X192238Y198573D01*
X192309Y198565D01*
X198726Y198565D01*
X198816Y198579D01*
X198907Y198587D01*
X198937Y198599D01*
X198969Y198604D01*
X199049Y198647D01*
X199133Y198683D01*
X199166Y198709D01*
X199186Y198720D01*
X199208Y198743D01*
X199264Y198788D01*
X199627Y199150D01*
X199653Y199187D01*
X199687Y199218D01*
X199725Y199286D01*
X199770Y199350D01*
X199784Y199393D01*
X199806Y199434D01*
X199820Y199510D01*
X199842Y199585D01*
X199841Y199631D01*
X199849Y199676D01*
X199838Y199753D01*
X199836Y199831D01*
X199820Y199874D01*
X199814Y199919D01*
X199778Y199988D01*
X199752Y200062D01*
X199723Y200097D01*
X199702Y200138D01*
X199647Y200193D01*
X199598Y200254D01*
X199559Y200278D01*
X199527Y200311D01*
X199407Y200377D01*
X199391Y200387D01*
X199386Y200388D01*
X199380Y200391D01*
X196919Y201411D01*
X195061Y203269D01*
X194055Y205696D01*
X194055Y207769D01*
X194041Y207859D01*
X194033Y207950D01*
X194021Y207980D01*
X194016Y208012D01*
X193973Y208093D01*
X193937Y208177D01*
X193911Y208209D01*
X193900Y208229D01*
X193877Y208252D01*
X193832Y208308D01*
X185183Y216957D01*
X184177Y219385D01*
X184177Y230196D01*
X185183Y232623D01*
X197659Y245099D01*
X200086Y246105D01*
X206696Y246105D01*
X206786Y246119D01*
X206877Y246127D01*
X206907Y246139D01*
X206939Y246144D01*
X207020Y246187D01*
X207104Y246223D01*
X207136Y246249D01*
X207156Y246260D01*
X207179Y246283D01*
X207235Y246328D01*
X207448Y246541D01*
X224402Y246541D01*
X225891Y245052D01*
X225891Y233948D01*
X224481Y232538D01*
X224470Y232522D01*
X224454Y232510D01*
X224398Y232422D01*
X224338Y232339D01*
X224332Y232320D01*
X224321Y232303D01*
X224296Y232202D01*
X224266Y232103D01*
X224266Y232084D01*
X224261Y232064D01*
X224269Y231961D01*
X224272Y231858D01*
X224279Y231839D01*
X224280Y231819D01*
X224321Y231724D01*
X224356Y231627D01*
X224369Y231611D01*
X224377Y231593D01*
X224481Y231462D01*
X225891Y230052D01*
X225891Y218948D01*
X224481Y217538D01*
X224470Y217522D01*
X224454Y217510D01*
X224398Y217422D01*
X224338Y217339D01*
X224332Y217320D01*
X224321Y217303D01*
X224296Y217202D01*
X224266Y217103D01*
X224266Y217084D01*
X224261Y217064D01*
X224269Y216961D01*
X224272Y216858D01*
X224279Y216839D01*
X224280Y216819D01*
X224321Y216724D01*
X224356Y216627D01*
X224369Y216611D01*
X224377Y216593D01*
X224481Y216462D01*
X225891Y215052D01*
X225891Y203948D01*
X224481Y202538D01*
X224470Y202522D01*
X224454Y202510D01*
X224398Y202422D01*
X224338Y202339D01*
X224332Y202320D01*
X224321Y202303D01*
X224296Y202202D01*
X224266Y202103D01*
X224266Y202084D01*
X224261Y202064D01*
X224269Y201961D01*
X224272Y201858D01*
X224279Y201839D01*
X224280Y201819D01*
X224321Y201724D01*
X224356Y201627D01*
X224369Y201611D01*
X224377Y201593D01*
X224481Y201462D01*
X225891Y200052D01*
X225891Y188948D01*
X224481Y187538D01*
X224470Y187522D01*
X224454Y187510D01*
X224398Y187422D01*
X224338Y187339D01*
X224332Y187320D01*
X224321Y187303D01*
X224296Y187202D01*
X224266Y187103D01*
X224266Y187084D01*
X224261Y187064D01*
X224269Y186961D01*
X224272Y186858D01*
X224279Y186839D01*
X224280Y186819D01*
X224321Y186724D01*
X224356Y186627D01*
X224369Y186611D01*
X224377Y186593D01*
X224481Y186462D01*
X225891Y185052D01*
X225891Y182677D01*
X225902Y182606D01*
X225904Y182534D01*
X225922Y182486D01*
X225930Y182434D01*
X225964Y182371D01*
X225989Y182303D01*
X226021Y182263D01*
X226046Y182217D01*
X226098Y182167D01*
X226142Y182111D01*
X226186Y182083D01*
X226224Y182047D01*
X226289Y182017D01*
X226349Y181978D01*
X226400Y181966D01*
X226447Y181944D01*
X226518Y181936D01*
X226588Y181918D01*
X226640Y181922D01*
X226691Y181917D01*
X226762Y181932D01*
X226833Y181938D01*
X226881Y181958D01*
X226932Y181969D01*
X226993Y182006D01*
X227059Y182034D01*
X227115Y182079D01*
X227143Y182095D01*
X227158Y182113D01*
X227190Y182139D01*
X231480Y186428D01*
X231549Y186524D01*
X231618Y186617D01*
X231620Y186623D01*
X231624Y186628D01*
X231658Y186740D01*
X231694Y186851D01*
X231694Y186857D01*
X231696Y186863D01*
X231693Y186980D01*
X231692Y187097D01*
X231690Y187104D01*
X231690Y187109D01*
X231683Y187127D01*
X231645Y187258D01*
X231139Y188479D01*
X231139Y192521D01*
X232686Y196256D01*
X235544Y199114D01*
X239279Y200661D01*
X243321Y200661D01*
X247056Y199114D01*
X249525Y196645D01*
X249583Y196603D01*
X249635Y196553D01*
X249682Y196532D01*
X249724Y196501D01*
X249793Y196480D01*
X249858Y196450D01*
X249910Y196444D01*
X249960Y196429D01*
X250031Y196431D01*
X250102Y196423D01*
X250153Y196434D01*
X250205Y196435D01*
X250273Y196460D01*
X250343Y196475D01*
X250388Y196502D01*
X250436Y196520D01*
X250492Y196564D01*
X250554Y196601D01*
X250588Y196641D01*
X250628Y196673D01*
X250667Y196734D01*
X250714Y196788D01*
X250733Y196836D01*
X250761Y196880D01*
X250779Y196950D01*
X250806Y197016D01*
X250814Y197088D01*
X250822Y197119D01*
X250820Y197142D01*
X250824Y197183D01*
X250824Y204978D01*
X250821Y204998D01*
X250823Y205017D01*
X250801Y205119D01*
X250785Y205221D01*
X250775Y205238D01*
X250771Y205258D01*
X250718Y205347D01*
X250669Y205438D01*
X250655Y205452D01*
X250645Y205469D01*
X250566Y205536D01*
X250491Y205608D01*
X250473Y205616D01*
X250458Y205629D01*
X250362Y205668D01*
X250268Y205711D01*
X250248Y205713D01*
X250230Y205721D01*
X250063Y205739D01*
X232628Y205739D01*
X231139Y207228D01*
X231139Y224572D01*
X232628Y226061D01*
X250063Y226061D01*
X250083Y226064D01*
X250102Y226062D01*
X250204Y226084D01*
X250306Y226100D01*
X250323Y226110D01*
X250343Y226114D01*
X250432Y226167D01*
X250523Y226216D01*
X250537Y226230D01*
X250554Y226240D01*
X250621Y226319D01*
X250693Y226394D01*
X250701Y226412D01*
X250714Y226427D01*
X250753Y226523D01*
X250796Y226617D01*
X250798Y226637D01*
X250806Y226655D01*
X250824Y226822D01*
X250824Y254000D01*
X250821Y254020D01*
X250823Y254039D01*
X250801Y254141D01*
X250785Y254243D01*
X250775Y254260D01*
X250771Y254280D01*
X250718Y254369D01*
X250669Y254460D01*
X250655Y254474D01*
X250645Y254491D01*
X250566Y254558D01*
X250491Y254630D01*
X250473Y254638D01*
X250458Y254651D01*
X250362Y254690D01*
X250268Y254733D01*
X250248Y254735D01*
X250230Y254743D01*
X250063Y254761D01*
X3937Y254761D01*
X3917Y254758D01*
X3898Y254760D01*
X3796Y254738D01*
X3694Y254722D01*
X3677Y254712D01*
X3657Y254708D01*
X3568Y254655D01*
X3477Y254606D01*
X3463Y254592D01*
X3446Y254582D01*
X3379Y254503D01*
X3307Y254428D01*
X3299Y254410D01*
X3286Y254395D01*
X3247Y254299D01*
X3204Y254205D01*
X3202Y254185D01*
X3194Y254167D01*
X3176Y254000D01*
X3176Y227584D01*
X3179Y227564D01*
X3177Y227545D01*
X3199Y227443D01*
X3215Y227341D01*
X3225Y227324D01*
X3229Y227304D01*
X3282Y227215D01*
X3331Y227124D01*
X3345Y227110D01*
X3355Y227093D01*
X3434Y227026D01*
X3509Y226954D01*
X3527Y226946D01*
X3542Y226933D01*
X3638Y226894D01*
X3732Y226851D01*
X3752Y226849D01*
X3770Y226841D01*
X3937Y226823D01*
X22134Y226823D01*
X23623Y225334D01*
X23623Y209009D01*
X23634Y208938D01*
X23636Y208866D01*
X23654Y208818D01*
X23662Y208766D01*
X23696Y208703D01*
X23721Y208635D01*
X23753Y208595D01*
X23778Y208549D01*
X23830Y208499D01*
X23874Y208443D01*
X23918Y208415D01*
X23956Y208379D01*
X24021Y208349D01*
X24081Y208310D01*
X24132Y208298D01*
X24179Y208276D01*
X24250Y208268D01*
X24320Y208250D01*
X24372Y208254D01*
X24423Y208249D01*
X24494Y208264D01*
X24565Y208270D01*
X24613Y208290D01*
X24664Y208301D01*
X24725Y208338D01*
X24791Y208366D01*
X24847Y208411D01*
X24875Y208427D01*
X24890Y208445D01*
X24922Y208471D01*
X27412Y210961D01*
X27886Y211435D01*
X27939Y211509D01*
X27999Y211578D01*
X28011Y211608D01*
X28030Y211634D01*
X28057Y211721D01*
X28091Y211806D01*
X28095Y211847D01*
X28102Y211870D01*
X28101Y211902D01*
X28109Y211973D01*
X28109Y215052D01*
X29519Y216462D01*
X29530Y216478D01*
X29546Y216490D01*
X29602Y216578D01*
X29662Y216661D01*
X29668Y216680D01*
X29679Y216697D01*
X29704Y216798D01*
X29734Y216897D01*
X29734Y216916D01*
X29739Y216936D01*
X29731Y217039D01*
X29728Y217142D01*
X29721Y217161D01*
X29720Y217181D01*
X29679Y217276D01*
X29644Y217373D01*
X29631Y217389D01*
X29623Y217407D01*
X29519Y217538D01*
X28109Y218948D01*
X28109Y230052D01*
X29614Y231558D01*
X29683Y231653D01*
X29754Y231750D01*
X29756Y231754D01*
X29758Y231757D01*
X29793Y231870D01*
X29829Y231984D01*
X29829Y231988D01*
X29830Y231992D01*
X29827Y232111D01*
X29825Y232230D01*
X29824Y232234D01*
X29824Y232238D01*
X29783Y232350D01*
X29744Y232462D01*
X29741Y232465D01*
X29740Y232469D01*
X29665Y232563D01*
X29592Y232656D01*
X29588Y232659D01*
X29586Y232661D01*
X29574Y232669D01*
X29457Y232755D01*
X29090Y232967D01*
X28617Y233440D01*
X28282Y234019D01*
X28109Y234666D01*
X28109Y237977D01*
X37313Y237977D01*
X37333Y237980D01*
X37352Y237978D01*
X37454Y238000D01*
X37556Y238017D01*
X37573Y238026D01*
X37593Y238030D01*
X37682Y238083D01*
X37773Y238132D01*
X37787Y238146D01*
X37804Y238156D01*
X37871Y238235D01*
X37942Y238310D01*
X37951Y238328D01*
X37964Y238343D01*
X38003Y238439D01*
X38046Y238533D01*
X38048Y238553D01*
X38056Y238571D01*
X38074Y238738D01*
X38074Y239501D01*
X38076Y239501D01*
X38076Y238738D01*
X38079Y238718D01*
X38077Y238699D01*
X38099Y238597D01*
X38116Y238495D01*
X38125Y238478D01*
X38129Y238458D01*
X38182Y238369D01*
X38231Y238278D01*
X38245Y238264D01*
X38255Y238247D01*
X38334Y238180D01*
X38409Y238109D01*
X38427Y238100D01*
X38442Y238087D01*
X38538Y238048D01*
X38632Y238005D01*
X38652Y238003D01*
X38670Y237995D01*
X38837Y237977D01*
X48041Y237977D01*
X48041Y234666D01*
X47868Y234019D01*
X47533Y233440D01*
X47060Y232967D01*
X46693Y232755D01*
X46600Y232679D01*
X46508Y232606D01*
X46506Y232602D01*
X46503Y232599D01*
X46439Y232498D01*
X46375Y232399D01*
X46374Y232395D01*
X46372Y232391D01*
X46344Y232275D01*
X46315Y232160D01*
X46316Y232156D01*
X46315Y232152D01*
X46325Y232032D01*
X46334Y231915D01*
X46336Y231911D01*
X46336Y231907D01*
X46384Y231797D01*
X46431Y231689D01*
X46434Y231685D01*
X46435Y231682D01*
X46445Y231671D01*
X46536Y231558D01*
X48041Y230052D01*
X48041Y229326D01*
X48044Y229306D01*
X48042Y229287D01*
X48064Y229185D01*
X48080Y229083D01*
X48090Y229066D01*
X48094Y229046D01*
X48147Y228957D01*
X48196Y228866D01*
X48210Y228852D01*
X48220Y228835D01*
X48299Y228768D01*
X48374Y228696D01*
X48392Y228688D01*
X48407Y228675D01*
X48503Y228636D01*
X48597Y228593D01*
X48617Y228591D01*
X48635Y228583D01*
X48802Y228565D01*
X50234Y228565D01*
X54321Y224478D01*
X54395Y224425D01*
X54464Y224365D01*
X54494Y224353D01*
X54520Y224334D01*
X54607Y224307D01*
X54692Y224273D01*
X54733Y224269D01*
X54756Y224262D01*
X54788Y224263D01*
X54859Y224255D01*
X55767Y224255D01*
X57904Y223369D01*
X59539Y221734D01*
X60425Y219597D01*
X60425Y217283D01*
X59539Y215146D01*
X57904Y213511D01*
X55767Y212625D01*
X53453Y212625D01*
X51316Y213511D01*
X49681Y215146D01*
X49505Y215569D01*
X49454Y215652D01*
X49408Y215738D01*
X49389Y215756D01*
X49376Y215778D01*
X49301Y215840D01*
X49230Y215907D01*
X49206Y215918D01*
X49186Y215935D01*
X49095Y215970D01*
X49007Y216011D01*
X48981Y216014D01*
X48957Y216023D01*
X48859Y216027D01*
X48763Y216038D01*
X48737Y216033D01*
X48711Y216034D01*
X48617Y216007D01*
X48522Y215986D01*
X48500Y215973D01*
X48475Y215965D01*
X48395Y215910D01*
X48311Y215860D01*
X48294Y215840D01*
X48273Y215825D01*
X48215Y215747D01*
X48151Y215673D01*
X48141Y215649D01*
X48126Y215628D01*
X48096Y215535D01*
X48059Y215445D01*
X48056Y215412D01*
X48050Y215394D01*
X48050Y215361D01*
X48041Y215278D01*
X48041Y203948D01*
X46631Y202538D01*
X46620Y202522D01*
X46604Y202510D01*
X46548Y202422D01*
X46488Y202339D01*
X46482Y202320D01*
X46471Y202303D01*
X46446Y202202D01*
X46416Y202103D01*
X46416Y202084D01*
X46411Y202064D01*
X46419Y201961D01*
X46422Y201858D01*
X46429Y201839D01*
X46430Y201819D01*
X46471Y201724D01*
X46506Y201627D01*
X46519Y201611D01*
X46527Y201593D01*
X46631Y201462D01*
X48041Y200052D01*
X48041Y199323D01*
X48055Y199233D01*
X48063Y199142D01*
X48075Y199112D01*
X48080Y199080D01*
X48123Y199000D01*
X48159Y198916D01*
X48185Y198883D01*
X48196Y198863D01*
X48219Y198841D01*
X48264Y198785D01*
X50516Y196533D01*
X50574Y196491D01*
X50626Y196441D01*
X50673Y196419D01*
X50715Y196389D01*
X50784Y196368D01*
X50849Y196338D01*
X50901Y196332D01*
X50951Y196317D01*
X51022Y196319D01*
X51093Y196311D01*
X51144Y196322D01*
X51196Y196323D01*
X51264Y196348D01*
X51334Y196363D01*
X51379Y196390D01*
X51427Y196408D01*
X51483Y196452D01*
X51545Y196489D01*
X51579Y196529D01*
X51619Y196561D01*
X51658Y196622D01*
X51705Y196676D01*
X51724Y196724D01*
X51752Y196768D01*
X51770Y196838D01*
X51797Y196904D01*
X51805Y196976D01*
X51813Y197007D01*
X51811Y197030D01*
X51815Y197071D01*
X51815Y198726D01*
X51801Y198816D01*
X51793Y198907D01*
X51781Y198937D01*
X51776Y198969D01*
X51733Y199050D01*
X51697Y199133D01*
X51671Y199166D01*
X51660Y199186D01*
X51637Y199208D01*
X51592Y199264D01*
X50951Y199906D01*
X50065Y202043D01*
X50065Y204357D01*
X50951Y206494D01*
X52586Y208129D01*
X54723Y209015D01*
X57037Y209015D01*
X59174Y208129D01*
X60809Y206494D01*
X61695Y204357D01*
X61695Y202043D01*
X60809Y199906D01*
X60168Y199264D01*
X60115Y199190D01*
X60055Y199121D01*
X60043Y199091D01*
X60024Y199065D01*
X59997Y198978D01*
X59963Y198893D01*
X59959Y198852D01*
X59952Y198830D01*
X59953Y198797D01*
X59945Y198726D01*
X59945Y195322D01*
X59959Y195232D01*
X59967Y195141D01*
X59979Y195111D01*
X59984Y195079D01*
X60027Y194998D01*
X60063Y194914D01*
X60089Y194882D01*
X60100Y194862D01*
X60123Y194839D01*
X60168Y194783D01*
X70331Y184620D01*
X70331Y149455D01*
X62999Y142123D01*
X62979Y142112D01*
X62929Y142060D01*
X62873Y142016D01*
X62845Y141972D01*
X62809Y141934D01*
X62779Y141869D01*
X62740Y141809D01*
X62728Y141758D01*
X62706Y141711D01*
X62698Y141640D01*
X62680Y141570D01*
X62684Y141518D01*
X62679Y141467D01*
X62694Y141396D01*
X62700Y141325D01*
X62720Y141277D01*
X62731Y141226D01*
X62768Y141165D01*
X62796Y141099D01*
X62841Y141043D01*
X62857Y141015D01*
X62875Y141000D01*
X62901Y140968D01*
X64961Y138908D01*
X67565Y136304D01*
X67565Y125252D01*
X49531Y107218D01*
X49464Y107189D01*
X49432Y107163D01*
X49411Y107152D01*
X49389Y107129D01*
X49333Y107084D01*
X36038Y93789D01*
X35985Y93715D01*
X35925Y93646D01*
X35913Y93616D01*
X35894Y93590D01*
X35867Y93503D01*
X35833Y93418D01*
X35829Y93377D01*
X35822Y93354D01*
X35823Y93322D01*
X35815Y93251D01*
X35815Y31209D01*
X35829Y31119D01*
X35837Y31028D01*
X35849Y30998D01*
X35854Y30966D01*
X35897Y30886D01*
X35933Y30802D01*
X35959Y30770D01*
X35970Y30749D01*
X35993Y30727D01*
X36038Y30671D01*
X42891Y23818D01*
X42965Y23765D01*
X43034Y23705D01*
X43064Y23693D01*
X43090Y23674D01*
X43177Y23647D01*
X43262Y23613D01*
X43303Y23609D01*
X43326Y23602D01*
X43358Y23603D01*
X43429Y23595D01*
X44337Y23595D01*
X46474Y22709D01*
X48109Y21074D01*
X48995Y18937D01*
X48995Y16623D01*
X48109Y14486D01*
X46474Y12851D01*
X44337Y11965D01*
X42023Y11965D01*
X39886Y12851D01*
X38251Y14486D01*
X37365Y16623D01*
X37365Y17531D01*
X37351Y17621D01*
X37343Y17712D01*
X37331Y17742D01*
X37326Y17774D01*
X37283Y17854D01*
X37247Y17938D01*
X37221Y17970D01*
X37210Y17991D01*
X37187Y18013D01*
X37142Y18069D01*
X27685Y27526D01*
X27685Y96934D01*
X41911Y111160D01*
X41953Y111218D01*
X42003Y111270D01*
X42025Y111317D01*
X42055Y111359D01*
X42076Y111428D01*
X42106Y111493D01*
X42112Y111545D01*
X42127Y111595D01*
X42125Y111666D01*
X42133Y111737D01*
X42122Y111788D01*
X42121Y111840D01*
X42096Y111908D01*
X42081Y111978D01*
X42054Y112023D01*
X42036Y112071D01*
X41992Y112127D01*
X41955Y112189D01*
X41915Y112223D01*
X41883Y112263D01*
X41822Y112302D01*
X41768Y112349D01*
X41720Y112368D01*
X41676Y112396D01*
X41606Y112414D01*
X41540Y112441D01*
X41468Y112449D01*
X41437Y112457D01*
X41414Y112455D01*
X41373Y112459D01*
X29598Y112459D01*
X28109Y113948D01*
X28109Y125052D01*
X29519Y126462D01*
X29530Y126478D01*
X29546Y126490D01*
X29602Y126578D01*
X29662Y126661D01*
X29668Y126680D01*
X29679Y126697D01*
X29704Y126798D01*
X29734Y126897D01*
X29734Y126916D01*
X29739Y126936D01*
X29731Y127039D01*
X29728Y127142D01*
X29721Y127161D01*
X29720Y127181D01*
X29679Y127276D01*
X29644Y127373D01*
X29631Y127389D01*
X29623Y127407D01*
X29519Y127538D01*
X28109Y128948D01*
X28109Y140052D01*
X29519Y141462D01*
X29530Y141478D01*
X29546Y141490D01*
X29602Y141578D01*
X29662Y141661D01*
X29668Y141680D01*
X29679Y141697D01*
X29704Y141798D01*
X29734Y141897D01*
X29734Y141916D01*
X29739Y141936D01*
X29731Y142039D01*
X29728Y142142D01*
X29721Y142161D01*
X29720Y142181D01*
X29679Y142276D01*
X29644Y142373D01*
X29631Y142389D01*
X29623Y142407D01*
X29519Y142538D01*
X28109Y143948D01*
X28109Y147523D01*
X28098Y147594D01*
X28096Y147666D01*
X28078Y147715D01*
X28070Y147766D01*
X28036Y147829D01*
X28011Y147897D01*
X27979Y147937D01*
X27954Y147983D01*
X27903Y148033D01*
X27858Y148089D01*
X27814Y148117D01*
X27776Y148153D01*
X27711Y148183D01*
X27651Y148222D01*
X27600Y148234D01*
X27553Y148256D01*
X27482Y148264D01*
X27412Y148282D01*
X27360Y148278D01*
X27309Y148283D01*
X27238Y148268D01*
X27167Y148262D01*
X27119Y148242D01*
X27068Y148231D01*
X27007Y148194D01*
X26941Y148166D01*
X26885Y148121D01*
X26857Y148105D01*
X26842Y148087D01*
X26810Y148061D01*
X22520Y143772D01*
X22476Y143711D01*
X22441Y143674D01*
X22427Y143644D01*
X22382Y143583D01*
X22380Y143577D01*
X22376Y143572D01*
X22342Y143461D01*
X22338Y143451D01*
X22337Y143444D01*
X22306Y143349D01*
X22306Y143343D01*
X22304Y143337D01*
X22307Y143220D01*
X22308Y143103D01*
X22310Y143096D01*
X22310Y143091D01*
X22317Y143073D01*
X22355Y142942D01*
X22861Y141721D01*
X22861Y137679D01*
X21314Y133944D01*
X18456Y131086D01*
X14721Y129539D01*
X10679Y129539D01*
X6944Y131086D01*
X4475Y133555D01*
X4417Y133597D01*
X4365Y133647D01*
X4318Y133668D01*
X4276Y133699D01*
X4207Y133720D01*
X4142Y133750D01*
X4090Y133756D01*
X4040Y133771D01*
X3969Y133769D01*
X3898Y133777D01*
X3847Y133766D01*
X3795Y133765D01*
X3727Y133740D01*
X3657Y133725D01*
X3612Y133698D01*
X3564Y133680D01*
X3508Y133636D01*
X3446Y133599D01*
X3412Y133559D01*
X3372Y133527D01*
X3333Y133466D01*
X3286Y133412D01*
X3267Y133364D01*
X3239Y133320D01*
X3221Y133250D01*
X3194Y133184D01*
X3186Y133112D01*
X3178Y133081D01*
X3180Y133058D01*
X3176Y133017D01*
X3176Y120983D01*
X3187Y120912D01*
X3189Y120841D01*
X3207Y120792D01*
X3215Y120740D01*
X3249Y120677D01*
X3274Y120610D01*
X3306Y120569D01*
X3331Y120523D01*
X3383Y120474D01*
X3427Y120418D01*
X3471Y120389D01*
X3509Y120353D01*
X3574Y120323D01*
X3634Y120285D01*
X3685Y120272D01*
X3732Y120250D01*
X3803Y120242D01*
X3873Y120224D01*
X3925Y120229D01*
X3976Y120223D01*
X4047Y120238D01*
X4118Y120244D01*
X4166Y120264D01*
X4217Y120275D01*
X4278Y120312D01*
X4344Y120340D01*
X4400Y120385D01*
X4428Y120401D01*
X4443Y120419D01*
X4475Y120445D01*
X6944Y122914D01*
X10679Y124461D01*
X14721Y124461D01*
X18456Y122914D01*
X21314Y120056D01*
X22861Y116321D01*
X22861Y112279D01*
X21314Y108544D01*
X18456Y105686D01*
X14721Y104139D01*
X10679Y104139D01*
X6944Y105686D01*
X4475Y108155D01*
X4417Y108197D01*
X4365Y108247D01*
X4318Y108268D01*
X4276Y108299D01*
X4207Y108320D01*
X4142Y108350D01*
X4090Y108356D01*
X4040Y108371D01*
X3969Y108369D01*
X3898Y108377D01*
X3847Y108366D01*
X3795Y108365D01*
X3727Y108340D01*
X3657Y108325D01*
X3612Y108298D01*
X3564Y108280D01*
X3508Y108236D01*
X3446Y108199D01*
X3412Y108159D01*
X3372Y108127D01*
X3333Y108066D01*
X3286Y108012D01*
X3267Y107964D01*
X3239Y107920D01*
X3221Y107850D01*
X3194Y107784D01*
X3186Y107712D01*
X3178Y107681D01*
X3180Y107658D01*
X3176Y107617D01*
X3176Y95583D01*
X3187Y95512D01*
X3189Y95441D01*
X3207Y95392D01*
X3215Y95340D01*
X3249Y95277D01*
X3274Y95210D01*
X3306Y95169D01*
X3331Y95123D01*
X3383Y95074D01*
X3427Y95018D01*
X3471Y94989D01*
X3509Y94953D01*
X3574Y94923D01*
X3634Y94885D01*
X3685Y94872D01*
X3732Y94850D01*
X3803Y94842D01*
X3873Y94824D01*
X3925Y94829D01*
X3976Y94823D01*
X4047Y94838D01*
X4118Y94844D01*
X4166Y94864D01*
X4217Y94875D01*
X4278Y94912D01*
X4344Y94940D01*
X4400Y94985D01*
X4428Y95001D01*
X4443Y95019D01*
X4475Y95045D01*
X6944Y97514D01*
X10679Y99061D01*
X14721Y99061D01*
X18456Y97514D01*
X21314Y94656D01*
X22861Y90921D01*
X22861Y86879D01*
X21314Y83144D01*
X18456Y80286D01*
X14721Y78739D01*
X10679Y78739D01*
X6944Y80286D01*
X4475Y82755D01*
X4417Y82797D01*
X4365Y82847D01*
X4318Y82868D01*
X4276Y82899D01*
X4207Y82920D01*
X4142Y82950D01*
X4090Y82956D01*
X4040Y82971D01*
X3969Y82969D01*
X3898Y82977D01*
X3847Y82966D01*
X3795Y82965D01*
X3727Y82940D01*
X3657Y82925D01*
X3612Y82898D01*
X3564Y82880D01*
X3508Y82836D01*
X3446Y82799D01*
X3412Y82759D01*
X3372Y82727D01*
X3333Y82666D01*
X3286Y82612D01*
X3267Y82564D01*
X3239Y82520D01*
X3221Y82450D01*
X3194Y82384D01*
X3186Y82312D01*
X3178Y82281D01*
X3180Y82258D01*
X3176Y82217D01*
X3176Y70183D01*
X3187Y70112D01*
X3189Y70041D01*
X3207Y69992D01*
X3215Y69940D01*
X3249Y69877D01*
X3274Y69810D01*
X3306Y69769D01*
X3331Y69723D01*
X3383Y69674D01*
X3427Y69618D01*
X3471Y69589D01*
X3509Y69553D01*
X3574Y69523D01*
X3634Y69485D01*
X3685Y69472D01*
X3732Y69450D01*
X3803Y69442D01*
X3873Y69424D01*
X3925Y69429D01*
X3976Y69423D01*
X4047Y69438D01*
X4118Y69444D01*
X4166Y69464D01*
X4217Y69475D01*
X4278Y69512D01*
X4344Y69540D01*
X4400Y69585D01*
X4428Y69601D01*
X4443Y69619D01*
X4475Y69645D01*
X6944Y72114D01*
X10679Y73661D01*
X14721Y73661D01*
X18456Y72114D01*
X21314Y69256D01*
X22861Y65521D01*
X22861Y61479D01*
X21314Y57744D01*
X18456Y54886D01*
X14721Y53339D01*
X10679Y53339D01*
X6944Y54886D01*
X4475Y57355D01*
X4417Y57397D01*
X4365Y57447D01*
X4318Y57468D01*
X4276Y57499D01*
X4207Y57520D01*
X4142Y57550D01*
X4090Y57556D01*
X4040Y57571D01*
X3969Y57569D01*
X3898Y57577D01*
X3847Y57566D01*
X3795Y57565D01*
X3727Y57540D01*
X3657Y57525D01*
X3612Y57498D01*
X3564Y57480D01*
X3508Y57436D01*
X3446Y57399D01*
X3412Y57359D01*
X3372Y57327D01*
X3333Y57266D01*
X3286Y57212D01*
X3267Y57164D01*
X3239Y57120D01*
X3221Y57050D01*
X3194Y56984D01*
X3186Y56912D01*
X3178Y56881D01*
X3180Y56858D01*
X3176Y56817D01*
X3176Y44783D01*
X3187Y44712D01*
X3189Y44641D01*
X3207Y44592D01*
X3215Y44540D01*
X3249Y44477D01*
X3274Y44410D01*
X3306Y44369D01*
X3331Y44323D01*
X3383Y44274D01*
X3427Y44218D01*
X3471Y44189D01*
X3509Y44153D01*
X3574Y44123D01*
X3634Y44085D01*
X3685Y44072D01*
X3732Y44050D01*
X3803Y44042D01*
X3873Y44024D01*
X3925Y44029D01*
X3976Y44023D01*
X4047Y44038D01*
X4118Y44044D01*
X4166Y44064D01*
X4217Y44075D01*
X4278Y44112D01*
X4344Y44140D01*
X4400Y44185D01*
X4428Y44201D01*
X4443Y44219D01*
X4475Y44245D01*
X6944Y46714D01*
X10679Y48261D01*
X14721Y48261D01*
X18456Y46714D01*
X21314Y43856D01*
X22861Y40121D01*
X22861Y36079D01*
X21314Y32344D01*
X18456Y29486D01*
X14721Y27939D01*
X10679Y27939D01*
X6944Y29486D01*
X4475Y31955D01*
X4417Y31997D01*
X4365Y32047D01*
X4318Y32068D01*
X4276Y32099D01*
X4207Y32120D01*
X4142Y32150D01*
X4090Y32156D01*
X4040Y32171D01*
X3969Y32169D01*
X3898Y32177D01*
X3847Y32166D01*
X3795Y32165D01*
X3727Y32140D01*
X3657Y32125D01*
X3612Y32098D01*
X3564Y32080D01*
X3508Y32036D01*
X3446Y31999D01*
X3412Y31959D01*
X3372Y31927D01*
X3333Y31866D01*
X3286Y31812D01*
X3267Y31764D01*
X3239Y31720D01*
X3221Y31650D01*
X3194Y31584D01*
X3186Y31512D01*
X3178Y31481D01*
X3180Y31458D01*
X3176Y31417D01*
X3176Y3937D01*
X3179Y3917D01*
X3177Y3898D01*
X3199Y3796D01*
X3215Y3694D01*
X3225Y3677D01*
X3229Y3657D01*
X3282Y3568D01*
X3331Y3477D01*
X3345Y3463D01*
X3355Y3446D01*
X3434Y3379D01*
X3509Y3307D01*
X3527Y3299D01*
X3542Y3286D01*
X3638Y3247D01*
X3732Y3204D01*
X3752Y3202D01*
X3770Y3194D01*
X3937Y3176D01*
X226969Y3176D01*
X227059Y3190D01*
G37*
%LPC*%
G36*
X53453Y41175D02*
X53453Y41175D01*
X51316Y42061D01*
X49681Y43696D01*
X48795Y45833D01*
X48795Y46741D01*
X48781Y46831D01*
X48773Y46922D01*
X48761Y46952D01*
X48756Y46984D01*
X48713Y47064D01*
X48677Y47148D01*
X48651Y47180D01*
X48640Y47201D01*
X48617Y47223D01*
X48572Y47279D01*
X45745Y50106D01*
X45745Y65398D01*
X45742Y65418D01*
X45744Y65437D01*
X45722Y65539D01*
X45706Y65641D01*
X45696Y65658D01*
X45692Y65678D01*
X45639Y65767D01*
X45590Y65858D01*
X45576Y65872D01*
X45566Y65889D01*
X45487Y65956D01*
X45412Y66028D01*
X45394Y66036D01*
X45379Y66049D01*
X45283Y66088D01*
X45189Y66131D01*
X45169Y66133D01*
X45151Y66141D01*
X44984Y66159D01*
X41258Y66159D01*
X39769Y67648D01*
X39769Y84752D01*
X41258Y86241D01*
X58362Y86241D01*
X59851Y84752D01*
X59851Y67648D01*
X58362Y66159D01*
X54636Y66159D01*
X54616Y66156D01*
X54597Y66158D01*
X54495Y66136D01*
X54393Y66120D01*
X54376Y66110D01*
X54356Y66106D01*
X54267Y66053D01*
X54176Y66004D01*
X54162Y65990D01*
X54145Y65980D01*
X54078Y65901D01*
X54006Y65826D01*
X53998Y65808D01*
X53985Y65793D01*
X53946Y65697D01*
X53903Y65603D01*
X53901Y65583D01*
X53893Y65565D01*
X53875Y65398D01*
X53875Y53789D01*
X53889Y53699D01*
X53897Y53608D01*
X53909Y53578D01*
X53914Y53546D01*
X53957Y53466D01*
X53993Y53382D01*
X54019Y53350D01*
X54030Y53329D01*
X54053Y53307D01*
X54098Y53251D01*
X54321Y53028D01*
X54395Y52975D01*
X54464Y52915D01*
X54494Y52903D01*
X54520Y52884D01*
X54607Y52857D01*
X54692Y52823D01*
X54733Y52819D01*
X54756Y52812D01*
X54788Y52813D01*
X54859Y52805D01*
X55767Y52805D01*
X57904Y51919D01*
X59539Y50284D01*
X60425Y48147D01*
X60425Y45833D01*
X59539Y43696D01*
X57904Y42061D01*
X55767Y41175D01*
X53453Y41175D01*
G37*
%LPD*%
%LPC*%
G36*
X77723Y39623D02*
X77723Y39623D01*
X77723Y55766D01*
X78579Y55631D01*
X80100Y55136D01*
X81525Y54410D01*
X82819Y53470D01*
X83950Y52339D01*
X84890Y51045D01*
X85616Y49620D01*
X86111Y48099D01*
X86361Y46520D01*
X86361Y39623D01*
X77723Y39623D01*
G37*
%LPD*%
%LPC*%
G36*
X77723Y36577D02*
X77723Y36577D01*
X86361Y36577D01*
X86361Y29680D01*
X86111Y28101D01*
X85616Y26580D01*
X84890Y25155D01*
X83950Y23861D01*
X82819Y22730D01*
X81525Y21790D01*
X80100Y21064D01*
X78579Y20569D01*
X77723Y20434D01*
X77723Y36577D01*
G37*
%LPD*%
%LPC*%
G36*
X66039Y39623D02*
X66039Y39623D01*
X66039Y46520D01*
X66289Y48099D01*
X66784Y49620D01*
X67510Y51045D01*
X68450Y52339D01*
X69581Y53470D01*
X70875Y54410D01*
X72300Y55136D01*
X73821Y55631D01*
X74677Y55766D01*
X74677Y39623D01*
X66039Y39623D01*
G37*
%LPD*%
%LPC*%
G36*
X73821Y20569D02*
X73821Y20569D01*
X72300Y21064D01*
X70875Y21790D01*
X69581Y22730D01*
X68450Y23861D01*
X67510Y25155D01*
X66784Y26580D01*
X66289Y28101D01*
X66039Y29680D01*
X66039Y36577D01*
X74677Y36577D01*
X74677Y20434D01*
X73821Y20569D01*
G37*
%LPD*%
%LPC*%
G36*
X39598Y241023D02*
X39598Y241023D01*
X39598Y246541D01*
X45834Y246541D01*
X46481Y246368D01*
X47060Y246033D01*
X47533Y245560D01*
X47868Y244981D01*
X48041Y244334D01*
X48041Y241023D01*
X39598Y241023D01*
G37*
%LPD*%
%LPC*%
G36*
X28109Y241023D02*
X28109Y241023D01*
X28109Y244334D01*
X28282Y244981D01*
X28617Y245560D01*
X29090Y246033D01*
X29669Y246368D01*
X30316Y246541D01*
X36552Y246541D01*
X36552Y241023D01*
X28109Y241023D01*
G37*
%LPD*%
%LPC*%
G36*
X76199Y38099D02*
X76199Y38099D01*
X76199Y38101D01*
X76201Y38101D01*
X76201Y38099D01*
X76199Y38099D01*
G37*
%LPD*%
D10*
X38075Y239500D03*
X38075Y224500D03*
X38075Y209500D03*
X38075Y194500D03*
X38075Y179500D03*
X38075Y164500D03*
X38075Y149500D03*
X38075Y134500D03*
X38075Y119500D03*
X215925Y119500D03*
X215925Y134500D03*
X215925Y149500D03*
X215925Y164500D03*
X215925Y179500D03*
X215925Y194500D03*
X215925Y209500D03*
X215925Y224500D03*
X215925Y239500D03*
D11*
X12700Y215900D03*
D12*
X12700Y190500D03*
X12700Y165100D03*
X12700Y139700D03*
X12700Y114300D03*
X12700Y88900D03*
X12700Y63500D03*
X12700Y38100D03*
X241300Y38100D03*
X241300Y63500D03*
X241300Y88900D03*
X241300Y114300D03*
X241300Y139700D03*
X241300Y165100D03*
X241300Y190500D03*
D13*
X241300Y215900D03*
D14*
X49810Y76200D03*
X84810Y76200D03*
D15*
X76200Y45720D02*
X76200Y30480D01*
X101600Y30480D02*
X101600Y45720D01*
X127000Y45720D02*
X127000Y30480D01*
X152400Y30480D02*
X152400Y45720D01*
X177800Y45720D02*
X177800Y30480D01*
X203200Y30480D02*
X203200Y45720D01*
D16*
X38100Y119475D02*
X38075Y119500D01*
X38195Y119380D01*
X201400Y239500D02*
X215925Y239500D01*
X44570Y119500D02*
X38075Y119500D01*
X44570Y119500D02*
X53340Y128270D01*
D17*
X53340Y128270D03*
X54610Y46990D03*
D18*
X49810Y51790D02*
X49810Y76200D01*
X49810Y51790D02*
X54610Y46990D01*
D16*
X190782Y220698D02*
X190782Y228882D01*
X201400Y239500D01*
X190782Y220698D02*
X200660Y210820D01*
X200660Y207010D01*
D17*
X200660Y207010D03*
D16*
X194910Y164500D02*
X215925Y164500D01*
X194910Y164500D02*
X186690Y172720D01*
D17*
X186690Y172720D03*
X217170Y106364D03*
D19*
X225044Y79756D02*
X241300Y63500D01*
X225044Y98490D02*
X217170Y106364D01*
X225044Y98490D02*
X225044Y79756D01*
D17*
X121920Y241300D03*
X121920Y207010D03*
X82550Y150761D03*
D19*
X54809Y232609D02*
X47918Y239500D01*
X38075Y239500D01*
D17*
X140970Y132080D03*
X96520Y97790D03*
X130810Y99060D03*
X140970Y99060D03*
X151130Y99060D03*
X199390Y149860D03*
D18*
X199750Y149500D01*
X215925Y149500D01*
X148590Y59690D02*
X127000Y38100D01*
X148590Y59690D02*
X161290Y59690D01*
X165608Y64008D01*
X177800Y64008D01*
X187734Y73942D01*
X187734Y138204D02*
X199390Y149860D01*
X187734Y138204D02*
X187734Y73942D01*
D17*
X199390Y134620D03*
D18*
X199510Y134500D01*
X199390Y134620D02*
X215805Y134620D01*
X215925Y134500D01*
X172720Y58420D02*
X152400Y38100D01*
X172720Y58420D02*
X180115Y58420D01*
X193322Y71627D01*
X193322Y128552D02*
X199390Y134620D01*
X193322Y101600D02*
X193322Y71627D01*
X193322Y101600D02*
X193322Y128552D01*
X196420Y179500D02*
X215925Y179500D01*
X196420Y179500D02*
X175260Y200660D01*
X172720Y203200D01*
X171450Y204470D01*
X154940Y204470D01*
D17*
X154940Y204470D03*
D18*
X25400Y152400D02*
X12700Y139700D01*
X25400Y152400D02*
X25400Y203200D01*
X31700Y209500D01*
X38075Y209500D01*
X38075Y194500D02*
X42003Y194500D01*
D17*
X58420Y163830D03*
D18*
X58420Y166153D01*
X60678Y168411D01*
X60678Y180622D01*
X46800Y194500D02*
X38075Y194500D01*
X46800Y194500D02*
X60678Y180622D01*
X53340Y175260D02*
X53340Y171450D01*
D17*
X53340Y171450D03*
D18*
X49100Y179500D02*
X38075Y179500D01*
X49100Y179500D02*
X53340Y175260D01*
D17*
X152400Y228600D03*
D18*
X203200Y194500D02*
X215925Y194500D01*
D17*
X203200Y194500D03*
X200660Y121920D03*
D18*
X200660Y40640D01*
X203200Y38100D01*
X203200Y194500D02*
X190310Y194500D01*
X156210Y228600D02*
X152400Y228600D01*
X156210Y228600D02*
X190310Y194500D01*
X228600Y177800D02*
X241300Y190500D01*
X228600Y121920D02*
X226180Y119500D01*
X215925Y119500D01*
X228600Y121920D02*
X228600Y177800D01*
D17*
X55880Y203200D03*
D18*
X55880Y199673D01*
X55381Y146332D02*
X61460Y146332D01*
X55381Y146332D02*
X52213Y149500D01*
X38075Y149500D01*
X61460Y146332D02*
X66266Y151139D01*
X55880Y193323D02*
X55880Y203200D01*
X55880Y193323D02*
X66266Y182937D01*
X66266Y151139D01*
X48550Y224500D02*
X38075Y224500D01*
X48550Y224500D02*
X54610Y218440D01*
D17*
X54610Y218440D03*
D18*
X38075Y134500D02*
X36925Y133350D01*
D17*
X50800Y139700D03*
D18*
X44450Y133350D01*
X36925Y133350D01*
X177800Y38100D02*
X177800Y25400D01*
X170180Y17780D01*
X88900Y17780D01*
D17*
X88900Y17780D03*
X43180Y17780D03*
D18*
X31750Y29210D01*
X31750Y95250D01*
X50800Y139700D02*
X58420Y139700D01*
X63500Y134620D01*
X47937Y111372D02*
X47872Y111372D01*
X31750Y95250D01*
X63500Y126935D02*
X63500Y134620D01*
X63500Y126935D02*
X47937Y111372D01*
X38075Y164500D02*
X38675Y165100D01*
D17*
X58702Y153952D03*
D18*
X54527Y155088D02*
X54462Y155088D01*
X54527Y155088D02*
X55663Y153952D01*
X58702Y153952D01*
X45050Y164500D02*
X38075Y164500D01*
X45050Y164500D02*
X54462Y155088D01*
X200950Y224500D02*
X215925Y224500D01*
X200950Y224500D02*
X200660Y224790D01*
D17*
X200660Y224790D03*
X190500Y152400D03*
D18*
X158975Y65278D02*
X91922Y65278D01*
X158975Y65278D02*
X163293Y69596D01*
X175485Y69596D02*
X182146Y76257D01*
X175485Y69596D02*
X163293Y69596D01*
X182146Y76257D02*
X182146Y144046D01*
X190500Y152400D01*
X84810Y76200D02*
X84810Y72390D01*
X91922Y65278D01*
M02*
