M48
;GenerationSoftware,Autodesk,EAGLE,8.7.1*%
;CreationDate,2018-09-06T09:55:21Z*%
FMAT,2
ICI,OFF
METRIC,TZ,000.000
T3C0.350
T2C0.889
T1C1.016
%
G90
M71
T1
X46482Y4064
X72390Y56642
X18034Y30353
X20574Y30353
X7874Y30353
X10414Y30353
X59690Y4064
X62230Y4064
X64770Y4064
X67310Y4064
X69850Y4064
X72390Y4064
X12954Y30353
X15494Y30353
X33782Y4064
X36322Y4064
X38862Y4064
X41402Y4064
X7874Y4064
X10414Y4064
X12954Y4064
X15494Y4064
X18034Y4064
X20574Y4064
X41402Y56642
X43942Y4064
X33782Y30353
X36322Y30353
X38862Y30353
X41402Y30353
X43942Y30353
X46482Y30353
X59690Y30353
X62230Y30353
X64770Y30353
X67310Y30353
X69850Y30353
X72390Y30353
X7874Y56642
X10414Y56642
X12954Y56642
X15494Y56642
X18034Y56642
X20574Y56642
X33782Y56642
X36322Y56642
X38862Y56642
X43942Y56642
X46482Y56642
X59690Y56642
X62230Y56642
X64770Y56642
X67310Y56642
X69850Y56642
T2
X50292Y16764
X50292Y19304
X50292Y21844
X53340Y21844
X53340Y19304
X53340Y16764
X53340Y14224
X53340Y11684
X53340Y9144
X53340Y6604
X53340Y4064
X76200Y4064
X76200Y6604
X76200Y9144
X76200Y11684
X76200Y14224
X76200Y16764
X76200Y19304
X76200Y21844
X1524Y48133
X1524Y45593
X1524Y43053
X1524Y40513
X1524Y37973
X1524Y35433
X1524Y32893
X1524Y30353
X24384Y30353
X24384Y32893
X24384Y35433
X24384Y37973
X24384Y40513
X24384Y43053
X24384Y45593
X24384Y48133
X27432Y48133
X27432Y45593
X27432Y43053
X27432Y40513
X27432Y37973
X27432Y35433
X27432Y32893
X27432Y30353
X50292Y30353
X50292Y32893
X27432Y21844
X50292Y37973
X50292Y40513
X50292Y43053
X50292Y45593
X50292Y48133
X27432Y14224
X1524Y21844
X1524Y19304
X1524Y16764
X1524Y14224
X1524Y11684
X53340Y48133
X53340Y45593
X53340Y43053
X53340Y40513
X53340Y37973
X53340Y35433
X53340Y32893
X53340Y30353
X76200Y30353
X76200Y32893
X76200Y35433
X76200Y37973
X76200Y40513
X76200Y43053
X76200Y45593
X76200Y48133
X1524Y9144
X1524Y6604
X1524Y4064
X24384Y4064
X24384Y6604
X24384Y9144
X1524Y74422
X1524Y71882
X1524Y69342
X1524Y66802
X1524Y64262
X1524Y61722
X1524Y59182
X1524Y56642
X24384Y59182
X24384Y61722
X24384Y64262
X24384Y66802
X24384Y69342
X24384Y71882
X24384Y74422
X24384Y11684
X24384Y14224
X24384Y16764
X24384Y19304
X24384Y21844
X27432Y19304
X27432Y74422
X27432Y71882
X27432Y69342
X27432Y66802
X27432Y64262
X27432Y61722
X27432Y59182
X27432Y56642
X50292Y56642
X50292Y59182
X50292Y61722
X50292Y64262
X50292Y66802
X50292Y69342
X50292Y71882
X50292Y74422
X27432Y16764
X27432Y11684
X27432Y9144
X50292Y35433
X27432Y6604
X27432Y4064
X53340Y74422
X53340Y71882
X53340Y69342
X53340Y66802
X53340Y64262
X53340Y61722
X53340Y59182
X53340Y56642
X76200Y56642
X76200Y59182
X76200Y61722
X76200Y64262
X76200Y66802
X76200Y69342
X76200Y71882
X76200Y74422
X50292Y4064
X50292Y6604
X50292Y9144
X50292Y11684
X50292Y14224
X24384Y56642
T3
X9144Y54610
X4572Y54610
X6124Y68227
X20320Y75311
X19304Y68072
X31496Y65659
X31623Y57531
X46228Y73533
X44831Y70104
X47879Y63468
X38354Y76962
X38354Y73533
X34417Y67908
X40259Y66040
X35814Y62611
X39243Y62738
X40259Y62738
X41275Y62738
X46101Y67818
X46101Y66294
X41656Y73279
X32004Y69215
X31496Y69977
X41402Y75692
X46482Y72282
X46228Y65024
X31750Y73152
X31623Y74676
X31242Y66802
X35052Y54610
X30480Y54610
X45212Y15494
X46228Y75311
X45212Y68072
X57404Y65659
X57531Y57531
X72136Y73533
X70739Y70104
X73787Y63468
X64262Y76962
X64262Y73533
X60325Y67908
X66167Y66040
X61722Y62611
X65151Y62738
X66167Y62738
X67183Y62738
X72009Y67818
X72009Y66294
X67564Y73279
X57912Y69215
X57404Y69977
X67310Y75692
X72390Y72282
X72136Y65024
X57658Y73152
X57531Y74676
X57150Y66802
X60960Y54610
X56388Y54610
X57940Y68227
X72136Y75311
X71120Y68072
X5588Y13081
X5715Y4953
X20320Y20955
X18923Y17526
X21971Y10890
X12446Y24384
X12446Y20955
X8509Y15330
X14351Y13462
X9906Y10033
X13335Y10160
X14351Y10160
X15367Y10160
X20193Y15240
X20193Y13716
X15748Y20701
X6096Y16637
X5588Y17399
X15494Y23114
X20574Y19704
X20320Y12446
X5842Y20574
X5715Y22098
X5334Y14224
X9144Y2032
X32032Y68227
X4572Y2032
X6124Y15649
X20320Y22733
X19304Y15494
X31496Y13081
X31623Y4953
X46228Y20955
X44831Y17526
X47879Y10890
X38354Y24384
X38354Y20955
X34417Y15330
X40259Y13462
X35814Y10033
X39243Y10160
X40259Y10160
X41275Y10160
X46101Y15240
X46101Y13716
X41656Y20701
X32004Y16637
X31496Y17399
X41402Y23114
X46482Y19704
X46228Y12446
X31750Y20574
X31623Y22098
X31242Y14224
X35052Y2032
X30480Y2032
X32032Y15649
X46228Y22733
X57404Y13081
X57531Y4953
X72136Y20955
X70739Y17526
X73787Y10890
X64262Y24384
X64262Y20955
X60325Y15330
X66167Y13462
X61722Y10033
X65151Y10160
X66167Y10160
X67183Y10160
X72009Y15240
X72009Y13716
X67564Y20701
X57912Y16637
X57404Y17399
X67310Y23114
X72390Y19704
X72136Y12446
X57658Y20574
X57531Y22098
X57150Y14224
X60960Y2032
X56388Y2032
X57940Y15649
X72136Y22733
X71120Y15494
X5588Y39370
X5715Y31242
X20320Y47244
X18923Y43815
X21971Y37179
X12446Y50673
X12446Y47244
X8509Y41619
X14351Y39751
X9906Y36322
X13335Y36449
X14351Y36449
X15367Y36449
X20193Y41529
X20193Y40005
X15748Y46990
X6096Y42926
X5588Y43688
X15494Y49403
X20574Y45993
X20320Y38735
X5842Y46863
X5715Y48387
X5334Y40513
X9144Y28321
X4572Y28321
X6124Y41938
X20320Y49022
X19304Y41783
X31496Y39370
X31623Y31242
X46228Y47244
X44831Y43815
X47879Y37179
X38354Y50673
X38354Y47244
X34417Y41619
X40259Y39751
X35814Y36322
X39243Y36449
X40259Y36449
X41275Y36449
X46101Y41529
X46101Y40005
X41656Y46990
X32004Y42926
X31496Y43688
X41402Y49403
X46482Y45993
X46228Y38735
X31750Y46863
X31623Y48387
X31242Y40513
X72136Y49022
X35052Y28321
X30480Y28321
X32032Y41938
X46228Y49022
X45212Y41783
X57404Y39370
X57531Y31242
X72136Y47244
X70739Y43815
X73787Y37179
X64262Y50673
X64262Y47244
X60325Y41619
X66167Y39751
X61722Y36322
X65151Y36449
X66167Y36449
X67183Y36449
X72009Y41529
X72009Y40005
X67564Y46990
X57912Y42926
X57404Y43688
X67310Y49403
X72390Y45993
X72136Y38735
X57658Y46863
X57531Y48387
X57150Y40513
X60960Y28321
X56388Y28321
X57940Y41938
X71120Y41783
X5588Y65659
X5715Y57531
X20320Y73533
X18923Y70104
X21971Y63468
X12446Y76962
X12446Y73533
X8509Y67908
X14351Y66040
X9906Y62611
X13335Y62738
X14351Y62738
X15367Y62738
X20193Y67818
X20193Y66294
X15748Y73279
X6096Y69215
X5588Y69977
X15494Y75692
X20574Y72282
X20320Y65024
X5842Y73152
X5715Y74676
X5334Y66802
M30