M48
;GenerationSoftware,Autodesk,EAGLE,8.7.1*%
;CreationDate,2018-08-26T11:19:32Z*%
FMAT,2
ICI,OFF
METRIC,TZ,000.000
T3C0.350
T2C0.889
T1C1.016
%
G90
M71
T1
X20320Y3810
X7620Y3810
X10160Y3810
X12700Y3810
X15240Y3810
X17780Y3810
T2
X24130Y6350
X1270Y13970
X1270Y21590
X1270Y19050
X1270Y16510
X1270Y11430
X1270Y8890
X1270Y6350
X1270Y3810
X24130Y3810
X24130Y8890
X24130Y11430
X24130Y13970
X24130Y16510
X24130Y19050
X24130Y21590
T3
X8890Y1778
X4318Y1778
X12192Y20701
X22987Y24130
X19050Y15240
X19685Y20574
X18856Y17586
X5334Y12827
X5870Y15395
X5461Y4699
X21717Y10636
X12192Y24130
X10287Y9779
X10287Y8890
X10287Y8001
X8255Y15076
X19939Y14986
X19939Y13462
X16764Y20828
X5842Y16383
X20066Y12192
X5334Y17145
X15240Y22860
X20320Y19450
X5588Y20320
X5461Y21844
X5080Y13970
M30