G75*
%MOIN*%
%OFA0B0*%
%FSLAX25Y25*%
%IPPOS*%
%LPD*%
%AMOC8*
5,1,8,0,0,1.08239X$1,22.5*
%
%ADD10C,0.01000*%
%ADD11R,0.07000X0.07000*%
%ADD12C,0.06400*%
%ADD13R,0.06400X0.06400*%
%ADD14R,0.07498X0.06699*%
%ADD15R,0.07487X0.06699*%
%ADD16R,0.06699X0.07487*%
%ADD17R,0.06306X0.06306*%
%ADD18R,0.04100X0.08550*%
%ADD19R,0.13000X0.08550*%
%ADD20R,0.05550X0.05550*%
%ADD21C,0.05550*%
D10*
X0021185Y0021185D02*
X0021185Y0331685D01*
X0327185Y0331685D01*
X0327185Y0021185D01*
X0021185Y0021185D01*
D11*
X0027185Y0107185D03*
X0027185Y0210685D03*
X0027185Y0314185D03*
X0129185Y0314185D03*
X0129185Y0210685D03*
X0231185Y0210685D03*
X0231185Y0314185D03*
X0231185Y0107185D03*
X0129185Y0107185D03*
D12*
X0129185Y0097185D03*
X0129185Y0087185D03*
X0129185Y0077185D03*
X0129185Y0067185D03*
X0129185Y0057185D03*
X0129185Y0047185D03*
X0129185Y0037185D03*
X0117185Y0037185D03*
X0117185Y0047185D03*
X0117185Y0057185D03*
X0117185Y0067185D03*
X0117185Y0077185D03*
X0117185Y0087185D03*
X0117185Y0097185D03*
X0117185Y0140685D03*
X0117185Y0150685D03*
X0117185Y0160685D03*
X0117185Y0170685D03*
X0117185Y0180685D03*
X0117185Y0190685D03*
X0117185Y0200685D03*
X0129185Y0200685D03*
X0129185Y0190685D03*
X0129185Y0180685D03*
X0129185Y0170685D03*
X0129185Y0160685D03*
X0129185Y0150685D03*
X0129185Y0140685D03*
X0219185Y0140685D03*
X0219185Y0150685D03*
X0219185Y0160685D03*
X0219185Y0170685D03*
X0219185Y0180685D03*
X0219185Y0190685D03*
X0219185Y0200685D03*
X0231185Y0200685D03*
X0231185Y0190685D03*
X0231185Y0180685D03*
X0231185Y0170685D03*
X0231185Y0160685D03*
X0231185Y0150685D03*
X0231185Y0140685D03*
X0231185Y0097185D03*
X0231185Y0087185D03*
X0231185Y0077185D03*
X0231185Y0067185D03*
X0231185Y0057185D03*
X0231185Y0047185D03*
X0231185Y0037185D03*
X0219185Y0037185D03*
X0219185Y0047185D03*
X0219185Y0057185D03*
X0219185Y0067185D03*
X0219185Y0077185D03*
X0219185Y0087185D03*
X0219185Y0097185D03*
X0321185Y0097185D03*
X0321185Y0087185D03*
X0321185Y0077185D03*
X0321185Y0067185D03*
X0321185Y0057185D03*
X0321185Y0047185D03*
X0321185Y0037185D03*
X0321185Y0140685D03*
X0321185Y0150685D03*
X0321185Y0160685D03*
X0321185Y0170685D03*
X0321185Y0180685D03*
X0321185Y0190685D03*
X0321185Y0200685D03*
X0321185Y0244185D03*
X0321185Y0254185D03*
X0321185Y0264185D03*
X0321185Y0274185D03*
X0321185Y0284185D03*
X0321185Y0294185D03*
X0321185Y0304185D03*
X0231185Y0304185D03*
X0231185Y0294185D03*
X0231185Y0284185D03*
X0231185Y0274185D03*
X0231185Y0264185D03*
X0231185Y0254185D03*
X0231185Y0244185D03*
X0219185Y0244185D03*
X0219185Y0254185D03*
X0219185Y0264185D03*
X0219185Y0274185D03*
X0219185Y0284185D03*
X0219185Y0294185D03*
X0219185Y0304185D03*
X0129185Y0304185D03*
X0129185Y0294185D03*
X0129185Y0284185D03*
X0129185Y0274185D03*
X0129185Y0264185D03*
X0129185Y0254185D03*
X0129185Y0244185D03*
X0117185Y0244185D03*
X0117185Y0254185D03*
X0117185Y0264185D03*
X0117185Y0274185D03*
X0117185Y0284185D03*
X0117185Y0294185D03*
X0117185Y0304185D03*
X0027185Y0304185D03*
X0027185Y0294185D03*
X0027185Y0284185D03*
X0027185Y0274185D03*
X0027185Y0264185D03*
X0027185Y0254185D03*
X0027185Y0244185D03*
X0027185Y0200685D03*
X0027185Y0190685D03*
X0027185Y0180685D03*
X0027185Y0170685D03*
X0027185Y0160685D03*
X0027185Y0150685D03*
X0027185Y0140685D03*
X0027185Y0097185D03*
X0027185Y0087185D03*
X0027185Y0077185D03*
X0027185Y0067185D03*
X0027185Y0057185D03*
X0027185Y0047185D03*
X0027185Y0037185D03*
D13*
X0117185Y0107185D03*
X0219185Y0107185D03*
X0219185Y0210685D03*
X0219185Y0314185D03*
X0117185Y0314185D03*
X0117185Y0210685D03*
X0321185Y0210685D03*
X0321185Y0314185D03*
X0321185Y0107185D03*
D14*
X0307185Y0091283D03*
X0297185Y0091283D03*
X0297185Y0080087D03*
X0307185Y0080087D03*
X0307185Y0069283D03*
X0307185Y0058087D03*
X0263185Y0080087D03*
X0263185Y0091283D03*
X0205185Y0091283D03*
X0195185Y0091283D03*
X0195185Y0080087D03*
X0205185Y0080087D03*
X0205185Y0069283D03*
X0205185Y0058087D03*
X0161185Y0080087D03*
X0161185Y0091283D03*
X0103185Y0091283D03*
X0093185Y0091283D03*
X0093185Y0080087D03*
X0103185Y0080087D03*
X0103185Y0069283D03*
X0103185Y0058087D03*
X0059185Y0080087D03*
X0059185Y0091283D03*
X0103185Y0161587D03*
X0103185Y0172783D03*
X0103185Y0183587D03*
X0093185Y0183587D03*
X0093185Y0194783D03*
X0103185Y0194783D03*
X0059185Y0194783D03*
X0059185Y0183587D03*
X0103185Y0265087D03*
X0103185Y0276283D03*
X0103185Y0287087D03*
X0093185Y0287087D03*
X0093185Y0298283D03*
X0103185Y0298283D03*
X0059185Y0298283D03*
X0059185Y0287087D03*
X0161185Y0287087D03*
X0161185Y0298283D03*
X0195185Y0298283D03*
X0205185Y0298283D03*
X0205185Y0287087D03*
X0195185Y0287087D03*
X0205185Y0276283D03*
X0205185Y0265087D03*
X0263185Y0287087D03*
X0263185Y0298283D03*
X0297185Y0298283D03*
X0307185Y0298283D03*
X0307185Y0287087D03*
X0297185Y0287087D03*
X0307185Y0276283D03*
X0307185Y0265087D03*
X0307185Y0194783D03*
X0297185Y0194783D03*
X0297185Y0183587D03*
X0307185Y0183587D03*
X0307185Y0172783D03*
X0307185Y0161587D03*
X0263185Y0183587D03*
X0263185Y0194783D03*
X0205185Y0194783D03*
X0195185Y0194783D03*
X0195185Y0183587D03*
X0205185Y0183587D03*
X0205185Y0172783D03*
X0205185Y0161587D03*
X0161185Y0183587D03*
X0161185Y0194783D03*
D15*
X0171185Y0194697D03*
X0171185Y0183673D03*
X0194685Y0148197D03*
X0194685Y0137173D03*
X0206185Y0137173D03*
X0206185Y0148197D03*
X0171185Y0091197D03*
X0171185Y0080173D03*
X0194685Y0044697D03*
X0194685Y0033673D03*
X0206185Y0033673D03*
X0206185Y0044697D03*
X0273185Y0080173D03*
X0273185Y0091197D03*
X0296685Y0137173D03*
X0308185Y0137173D03*
X0308185Y0148197D03*
X0296685Y0148197D03*
X0273185Y0183673D03*
X0273185Y0194697D03*
X0296685Y0240673D03*
X0296685Y0251697D03*
X0308185Y0251697D03*
X0308185Y0240673D03*
X0273185Y0287173D03*
X0273185Y0298197D03*
X0206185Y0251697D03*
X0206185Y0240673D03*
X0194685Y0240673D03*
X0194685Y0251697D03*
X0171185Y0287173D03*
X0171185Y0298197D03*
X0104185Y0251697D03*
X0104185Y0240673D03*
X0092685Y0240673D03*
X0092685Y0251697D03*
X0069185Y0287173D03*
X0069185Y0298197D03*
X0069185Y0194697D03*
X0069185Y0183673D03*
X0092685Y0148197D03*
X0104185Y0148197D03*
X0104185Y0137173D03*
X0092685Y0137173D03*
X0069185Y0091197D03*
X0069185Y0080173D03*
X0092685Y0044697D03*
X0092685Y0033673D03*
X0104185Y0033673D03*
X0104185Y0044697D03*
X0296685Y0044697D03*
X0296685Y0033673D03*
X0308185Y0033673D03*
X0308185Y0044697D03*
D16*
X0285197Y0045185D03*
X0274173Y0045185D03*
X0274173Y0033185D03*
X0285197Y0033185D03*
X0285197Y0136685D03*
X0274173Y0136685D03*
X0274173Y0148685D03*
X0285197Y0148685D03*
X0285197Y0240185D03*
X0274173Y0240185D03*
X0274173Y0252185D03*
X0285197Y0252185D03*
X0183197Y0252185D03*
X0172173Y0252185D03*
X0172173Y0240185D03*
X0183197Y0240185D03*
X0183197Y0148685D03*
X0172173Y0148685D03*
X0172173Y0136685D03*
X0183197Y0136685D03*
X0183197Y0045185D03*
X0172173Y0045185D03*
X0172173Y0033185D03*
X0183197Y0033185D03*
X0081197Y0033185D03*
X0070173Y0033185D03*
X0070173Y0045185D03*
X0081197Y0045185D03*
X0081197Y0136685D03*
X0070173Y0136685D03*
X0070173Y0148685D03*
X0081197Y0148685D03*
X0081197Y0240185D03*
X0070173Y0240185D03*
X0070173Y0252185D03*
X0081197Y0252185D03*
D17*
X0084795Y0206185D03*
X0077075Y0206185D03*
X0063295Y0206185D03*
X0098575Y0206185D03*
X0165295Y0206185D03*
X0179075Y0206185D03*
X0186795Y0206185D03*
X0200575Y0206185D03*
X0267295Y0206185D03*
X0281075Y0206185D03*
X0288795Y0206185D03*
X0302575Y0206185D03*
X0302575Y0309685D03*
X0288795Y0309685D03*
X0281075Y0309685D03*
X0267295Y0309685D03*
X0200575Y0309685D03*
X0186795Y0309685D03*
X0179075Y0309685D03*
X0165295Y0309685D03*
X0098575Y0309685D03*
X0084795Y0309685D03*
X0077075Y0309685D03*
X0063295Y0309685D03*
X0063295Y0102685D03*
X0077075Y0102685D03*
X0084795Y0102685D03*
X0098575Y0102685D03*
X0165295Y0102685D03*
X0179075Y0102685D03*
X0186795Y0102685D03*
X0200575Y0102685D03*
X0267295Y0102685D03*
X0281075Y0102685D03*
X0288795Y0102685D03*
X0302575Y0102685D03*
D18*
X0294285Y0056210D03*
X0285185Y0056210D03*
X0276085Y0056210D03*
X0192285Y0056210D03*
X0183185Y0056210D03*
X0174085Y0056210D03*
X0090285Y0056210D03*
X0081185Y0056210D03*
X0072085Y0056210D03*
X0072085Y0159710D03*
X0081185Y0159710D03*
X0090285Y0159710D03*
X0174085Y0159710D03*
X0183185Y0159710D03*
X0192285Y0159710D03*
X0276085Y0159710D03*
X0285185Y0159710D03*
X0294285Y0159710D03*
X0294285Y0263210D03*
X0285185Y0263210D03*
X0276085Y0263210D03*
X0192285Y0263210D03*
X0183185Y0263210D03*
X0174085Y0263210D03*
X0090285Y0263210D03*
X0081185Y0263210D03*
X0072085Y0263210D03*
D19*
X0081185Y0288160D03*
X0081185Y0184660D03*
X0183185Y0184660D03*
X0183185Y0288160D03*
X0285185Y0288160D03*
X0285185Y0184660D03*
X0285185Y0081160D03*
X0183185Y0081160D03*
X0081185Y0081160D03*
D20*
X0050185Y0056996D03*
X0152185Y0056996D03*
X0254185Y0056996D03*
X0254185Y0160496D03*
X0152185Y0160496D03*
X0050185Y0160496D03*
X0050185Y0263996D03*
X0152185Y0263996D03*
X0254185Y0263996D03*
D21*
X0254185Y0256122D03*
X0254185Y0248248D03*
X0254185Y0240374D03*
X0254185Y0152622D03*
X0254185Y0144748D03*
X0254185Y0136874D03*
X0254185Y0049122D03*
X0254185Y0041248D03*
X0254185Y0033374D03*
X0152185Y0033374D03*
X0152185Y0041248D03*
X0152185Y0049122D03*
X0152185Y0136874D03*
X0152185Y0144748D03*
X0152185Y0152622D03*
X0152185Y0240374D03*
X0152185Y0248248D03*
X0152185Y0256122D03*
X0050185Y0256122D03*
X0050185Y0248248D03*
X0050185Y0240374D03*
X0050185Y0152622D03*
X0050185Y0144748D03*
X0050185Y0136874D03*
X0050185Y0049122D03*
X0050185Y0041248D03*
X0050185Y0033374D03*
M02*
