%
M48
M72
T01C0.0138
T02C0.0315
T03C0.0350
%
T01
X3719Y2919
X4619Y2619
X6819Y3919
X7219Y3919
X6619Y5269
X6619Y5619
X7019Y6248
X7869Y6621
X8569Y6621
X8707Y7419
X9419Y7419
X9815Y6365
X10969Y5268
X11119Y4939
X9869Y3569
X9869Y3207
X13919Y2919
X14819Y2619
X17019Y3919
X17419Y3919
X16819Y5269
X16819Y5619
X17219Y6248
X18069Y6621
X18769Y6621
X18907Y7419
X19619Y7419
X20015Y6365
X21169Y5268
X21319Y4939
X20069Y3569
X20069Y3207
X23616Y7169
X24137Y6536
X24137Y6198
X24569Y6869
X24569Y7419
X26272Y7025
X27319Y7519
X27419Y6248
X27019Y5619
X27019Y5269
X27219Y3919
X27619Y3919
X30269Y3569
X30269Y3207
X31519Y4939
X31369Y5268
X30215Y6365
X29819Y7419
X29107Y7419
X28969Y6621
X28269Y6621
X25710Y10229
X27519Y10518
X28019Y11619
X28519Y11619
X29019Y11619
X29719Y10857
X29753Y10518
X30269Y13557
X30269Y13919
X31519Y15289
X31369Y15618
X30215Y16715
X29819Y17769
X29107Y17769
X28969Y16971
X28269Y16971
X27419Y16598
X27019Y15969
X27019Y15619
X27219Y14269
X27619Y14269
X25019Y12969
X24119Y13269
X23658Y10775
X20069Y13557
X20069Y13919
X21319Y15289
X21169Y15618
X20015Y16715
X19619Y17769
X18907Y17769
X18769Y16971
X18069Y16971
X17219Y16598
X16819Y15969
X16819Y15619
X17019Y14269
X17419Y14269
X17819Y11619
X18319Y11619
X18819Y11619
X19519Y10857
X19553Y10518
X17319Y10518
X15510Y10229
X13458Y10775
X14819Y12969
X13919Y13269
X11119Y15289
X10969Y15618
X9815Y16715
X9419Y17769
X8707Y17769
X8569Y16971
X7869Y16971
X7019Y16598
X6619Y15969
X6619Y15619
X6819Y14269
X7219Y14269
X7619Y11619
X8119Y11619
X8619Y11619
X9319Y10857
X9353Y10518
X7119Y10518
X5310Y10229
X3258Y10775
X4619Y12969
X3719Y13269
X3737Y16548
X3737Y16886
X4169Y17219
X4169Y17769
X3216Y17519
X5872Y17375
X6919Y17869
X5310Y20579
X7119Y20868
X7619Y21969
X8119Y21969
X8619Y21969
X9319Y21207
X9353Y20868
X9869Y23907
X9869Y24269
X11119Y25639
X10969Y25968
X9815Y27065
X9419Y28119
X8707Y28119
X8569Y27321
X7869Y27321
X7019Y26948
X6619Y26319
X6619Y25969
X6819Y24619
X7219Y24619
X4619Y23319
X3719Y23619
X3258Y21125
X3737Y26898
X3737Y27236
X4169Y27569
X4169Y28119
X3216Y27869
X5872Y27725
X6919Y28219
X5310Y30929
X7119Y31218
X7619Y32319
X8119Y32319
X8619Y32319
X9319Y31557
X9353Y31218
X13458Y31475
X15510Y30929
X17319Y31218
X17819Y32319
X18319Y32319
X18819Y32319
X19519Y31557
X19553Y31218
X17119Y28219
X16072Y27725
X17219Y26948
X16819Y26319
X16819Y25969
X17019Y24619
X17419Y24619
X20069Y24269
X20069Y23907
X21319Y25639
X21169Y25968
X20015Y27065
X19619Y28119
X18907Y28119
X18769Y27321
X18069Y27321
X14369Y27569
X13937Y27236
X13937Y26898
X13416Y27869
X14369Y28119
X13919Y23619
X14819Y23319
X13458Y21125
X15510Y20579
X17319Y20868
X17819Y21969
X18319Y21969
X18819Y21969
X19519Y21207
X19553Y20868
X17119Y17869
X16072Y17375
X14369Y17219
X13937Y16886
X13937Y16548
X13416Y17519
X14369Y17769
X9869Y13919
X9869Y13557
X6919Y7519
X5872Y7025
X4169Y6869
X3737Y6536
X3737Y6198
X3216Y7169
X4169Y7419
X13416Y7169
X13937Y6536
X13937Y6198
X14369Y6869
X14369Y7419
X16072Y7025
X17119Y7519
X24119Y2919
X25019Y2619
X24137Y16548
X24137Y16886
X24569Y17219
X24569Y17769
X23616Y17519
X26272Y17375
X27319Y17869
X25710Y20579
X27519Y20868
X28019Y21969
X28519Y21969
X29019Y21969
X29719Y21207
X29753Y20868
X30269Y23907
X30269Y24269
X31519Y25639
X31369Y25968
X30215Y27065
X29819Y28119
X29107Y28119
X28969Y27321
X28269Y27321
X27419Y26948
X27019Y26319
X27019Y25969
X27219Y24619
X27619Y24619
X25019Y23319
X24119Y23619
X23658Y21125
X24137Y26898
X24137Y27236
X24569Y27569
X24569Y28119
X23616Y27869
X26272Y27725
X27319Y28219
X25710Y30929
X27519Y31218
X28019Y32319
X28519Y32319
X29019Y32319
X29719Y31557
X29753Y31218
X23658Y31475
X3258Y31475
T02
X5019Y3337
X5019Y4125
X5019Y4912
X5019Y5700
X5019Y13687
X5019Y14475
X5019Y15262
X5019Y16050
X5019Y24037
X5019Y24825
X5019Y25612
X5019Y26400
X15219Y26400
X15219Y25612
X15219Y24825
X15219Y24037
X15219Y16050
X15219Y15262
X15219Y14475
X15219Y13687
X15219Y5700
X15219Y4912
X15219Y4125
X15219Y3337
X25419Y3337
X25419Y4125
X25419Y4912
X25419Y5700
X25419Y13687
X25419Y14475
X25419Y15262
X25419Y16050
X25419Y24037
X25419Y24825
X25419Y25612
X25419Y26400
T03
X2719Y3719
X2719Y4719
X2719Y5719
X2719Y6719
X2719Y7719
X2719Y8719
X2719Y9719
X2719Y10719
X2719Y14069
X2719Y15069
X2719Y16069
X2719Y17069
X2719Y18069
X2719Y19069
X2719Y20069
X2719Y21069
X2719Y24419
X2719Y25419
X2719Y26419
X2719Y27419
X2719Y28419
X2719Y29419
X2719Y30419
X2719Y31419
X11719Y31419
X11719Y30419
X11719Y29419
X11719Y28419
X11719Y27419
X11719Y26419
X11719Y25419
X11719Y24419
X12919Y24419
X12919Y25419
X12919Y26419
X12919Y27419
X12919Y28419
X12919Y29419
X12919Y30419
X12919Y31419
X21919Y31419
X21919Y30419
X21919Y29419
X21919Y28419
X21919Y27419
X21919Y26419
X21919Y25419
X21919Y24419
X23119Y24419
X23119Y25419
X23119Y26419
X23119Y27419
X23119Y28419
X23119Y29419
X23119Y30419
X23119Y31419
X32119Y31419
X32119Y30419
X32119Y29419
X32119Y28419
X32119Y27419
X32119Y26419
X32119Y25419
X32119Y24419
X32119Y21069
X32119Y20069
X32119Y19069
X32119Y18069
X32119Y17069
X32119Y16069
X32119Y15069
X32119Y14069
X32119Y10719
X32119Y9719
X32119Y8719
X32119Y7719
X32119Y6719
X32119Y5719
X32119Y4719
X32119Y3719
X23119Y3719
X23119Y4719
X23119Y5719
X23119Y6719
X23119Y7719
X23119Y8719
X23119Y9719
X23119Y10719
X21919Y10719
X21919Y9719
X21919Y8719
X21919Y7719
X21919Y6719
X21919Y5719
X21919Y4719
X21919Y3719
X12919Y3719
X12919Y4719
X12919Y5719
X12919Y6719
X12919Y7719
X12919Y8719
X12919Y9719
X12919Y10719
X11719Y10719
X11719Y9719
X11719Y8719
X11719Y7719
X11719Y6719
X11719Y5719
X11719Y4719
X11719Y3719
X11719Y14069
X11719Y15069
X11719Y16069
X11719Y17069
X11719Y18069
X11719Y19069
X11719Y20069
X11719Y21069
X12919Y21069
X12919Y20069
X12919Y19069
X12919Y18069
X12919Y17069
X12919Y16069
X12919Y15069
X12919Y14069
X21919Y14069
X21919Y15069
X21919Y16069
X21919Y17069
X21919Y18069
X21919Y19069
X21919Y20069
X21919Y21069
X23119Y21069
X23119Y20069
X23119Y19069
X23119Y18069
X23119Y17069
X23119Y16069
X23119Y15069
X23119Y14069
M30
