G75*
%MOIN*%
%OFA0B0*%
%FSLAX25Y25*%
%IPPOS*%
%LPD*%
%AMOC8*
5,1,8,0,0,1.08239X$1,22.5*
%
%ADD10C,0.01000*%
%ADD11R,0.06246X0.03943*%
%ADD12R,0.07000X0.07000*%
%ADD13C,0.06400*%
%ADD14R,0.06400X0.06400*%
%ADD15R,0.05550X0.05550*%
%ADD16C,0.05550*%
D10*
X0021185Y0021185D02*
X0021185Y0331685D01*
X0327185Y0331685D01*
X0327185Y0021185D01*
X0021185Y0021185D01*
D11*
X0037175Y0069232D03*
X0037175Y0075138D03*
X0037175Y0081043D03*
X0037175Y0086949D03*
X0037175Y0092854D03*
X0037175Y0098760D03*
X0037175Y0104665D03*
X0037175Y0110571D03*
X0037175Y0116476D03*
X0037175Y0172732D03*
X0037175Y0178638D03*
X0037175Y0184543D03*
X0037175Y0190449D03*
X0037175Y0196354D03*
X0037175Y0202260D03*
X0037175Y0208165D03*
X0037175Y0214071D03*
X0037175Y0219976D03*
X0037175Y0276232D03*
X0037175Y0282138D03*
X0037175Y0288043D03*
X0037175Y0293949D03*
X0037175Y0299854D03*
X0037175Y0305760D03*
X0037175Y0311665D03*
X0037175Y0317571D03*
X0037175Y0323476D03*
X0107195Y0323476D03*
X0107195Y0317571D03*
X0107195Y0311665D03*
X0107195Y0305760D03*
X0107195Y0299854D03*
X0107195Y0293949D03*
X0107195Y0288043D03*
X0107195Y0282138D03*
X0107195Y0276232D03*
X0139175Y0276232D03*
X0139175Y0282138D03*
X0139175Y0288043D03*
X0139175Y0293949D03*
X0139175Y0299854D03*
X0139175Y0305760D03*
X0139175Y0311665D03*
X0139175Y0317571D03*
X0139175Y0323476D03*
X0209195Y0323476D03*
X0209195Y0317571D03*
X0209195Y0311665D03*
X0209195Y0305760D03*
X0209195Y0299854D03*
X0209195Y0293949D03*
X0209195Y0288043D03*
X0209195Y0282138D03*
X0209195Y0276232D03*
X0241175Y0276232D03*
X0241175Y0282138D03*
X0241175Y0288043D03*
X0241175Y0293949D03*
X0241175Y0299854D03*
X0241175Y0305760D03*
X0241175Y0311665D03*
X0241175Y0317571D03*
X0241175Y0323476D03*
X0311195Y0323476D03*
X0311195Y0317571D03*
X0311195Y0311665D03*
X0311195Y0305760D03*
X0311195Y0299854D03*
X0311195Y0293949D03*
X0311195Y0288043D03*
X0311195Y0282138D03*
X0311195Y0276232D03*
X0311195Y0219976D03*
X0311195Y0214071D03*
X0311195Y0208165D03*
X0311195Y0202260D03*
X0311195Y0196354D03*
X0311195Y0190449D03*
X0311195Y0184543D03*
X0311195Y0178638D03*
X0311195Y0172732D03*
X0311195Y0116476D03*
X0311195Y0110571D03*
X0311195Y0104665D03*
X0311195Y0098760D03*
X0311195Y0092854D03*
X0311195Y0086949D03*
X0311195Y0081043D03*
X0311195Y0075138D03*
X0311195Y0069232D03*
X0241175Y0069232D03*
X0241175Y0075138D03*
X0241175Y0081043D03*
X0241175Y0086949D03*
X0241175Y0092854D03*
X0241175Y0098760D03*
X0241175Y0104665D03*
X0241175Y0110571D03*
X0241175Y0116476D03*
X0209195Y0116476D03*
X0209195Y0110571D03*
X0209195Y0104665D03*
X0209195Y0098760D03*
X0209195Y0092854D03*
X0209195Y0086949D03*
X0209195Y0081043D03*
X0209195Y0075138D03*
X0209195Y0069232D03*
X0139175Y0069232D03*
X0139175Y0075138D03*
X0139175Y0081043D03*
X0139175Y0086949D03*
X0139175Y0092854D03*
X0139175Y0098760D03*
X0139175Y0104665D03*
X0139175Y0110571D03*
X0139175Y0116476D03*
X0107195Y0116476D03*
X0107195Y0110571D03*
X0107195Y0104665D03*
X0107195Y0098760D03*
X0107195Y0092854D03*
X0107195Y0086949D03*
X0107195Y0081043D03*
X0107195Y0075138D03*
X0107195Y0069232D03*
X0107195Y0172732D03*
X0107195Y0178638D03*
X0107195Y0184543D03*
X0107195Y0190449D03*
X0107195Y0196354D03*
X0107195Y0202260D03*
X0107195Y0208165D03*
X0107195Y0214071D03*
X0107195Y0219976D03*
X0139175Y0219976D03*
X0139175Y0214071D03*
X0139175Y0208165D03*
X0139175Y0202260D03*
X0139175Y0196354D03*
X0139175Y0190449D03*
X0139175Y0184543D03*
X0139175Y0178638D03*
X0139175Y0172732D03*
X0209195Y0172732D03*
X0209195Y0178638D03*
X0209195Y0184543D03*
X0209195Y0190449D03*
X0209195Y0196354D03*
X0209195Y0202260D03*
X0209195Y0208165D03*
X0209195Y0214071D03*
X0209195Y0219976D03*
X0241175Y0219976D03*
X0241175Y0214071D03*
X0241175Y0208165D03*
X0241175Y0202260D03*
X0241175Y0196354D03*
X0241175Y0190449D03*
X0241175Y0184543D03*
X0241175Y0178638D03*
X0241175Y0172732D03*
D12*
X0231185Y0210685D03*
X0231185Y0314185D03*
X0129185Y0314185D03*
X0129185Y0210685D03*
X0129185Y0107185D03*
X0231185Y0107185D03*
X0027185Y0107185D03*
X0027185Y0210685D03*
X0027185Y0314185D03*
D13*
X0027185Y0304185D03*
X0027185Y0294185D03*
X0027185Y0284185D03*
X0027185Y0274185D03*
X0027185Y0264185D03*
X0027185Y0254185D03*
X0027185Y0244185D03*
X0027185Y0200685D03*
X0027185Y0190685D03*
X0027185Y0180685D03*
X0027185Y0170685D03*
X0027185Y0160685D03*
X0027185Y0150685D03*
X0027185Y0140685D03*
X0027185Y0097185D03*
X0027185Y0087185D03*
X0027185Y0077185D03*
X0027185Y0067185D03*
X0027185Y0057185D03*
X0027185Y0047185D03*
X0027185Y0037185D03*
X0117185Y0037185D03*
X0117185Y0047185D03*
X0117185Y0057185D03*
X0117185Y0067185D03*
X0117185Y0077185D03*
X0117185Y0087185D03*
X0117185Y0097185D03*
X0129185Y0097185D03*
X0129185Y0087185D03*
X0129185Y0077185D03*
X0129185Y0067185D03*
X0129185Y0057185D03*
X0129185Y0047185D03*
X0129185Y0037185D03*
X0219185Y0037185D03*
X0219185Y0047185D03*
X0219185Y0057185D03*
X0219185Y0067185D03*
X0219185Y0077185D03*
X0219185Y0087185D03*
X0219185Y0097185D03*
X0231185Y0097185D03*
X0231185Y0087185D03*
X0231185Y0077185D03*
X0231185Y0067185D03*
X0231185Y0057185D03*
X0231185Y0047185D03*
X0231185Y0037185D03*
X0321185Y0037185D03*
X0321185Y0047185D03*
X0321185Y0057185D03*
X0321185Y0067185D03*
X0321185Y0077185D03*
X0321185Y0087185D03*
X0321185Y0097185D03*
X0321185Y0140685D03*
X0321185Y0150685D03*
X0321185Y0160685D03*
X0321185Y0170685D03*
X0321185Y0180685D03*
X0321185Y0190685D03*
X0321185Y0200685D03*
X0321185Y0244185D03*
X0321185Y0254185D03*
X0321185Y0264185D03*
X0321185Y0274185D03*
X0321185Y0284185D03*
X0321185Y0294185D03*
X0321185Y0304185D03*
X0231185Y0304185D03*
X0231185Y0294185D03*
X0231185Y0284185D03*
X0231185Y0274185D03*
X0231185Y0264185D03*
X0231185Y0254185D03*
X0231185Y0244185D03*
X0219185Y0244185D03*
X0219185Y0254185D03*
X0219185Y0264185D03*
X0219185Y0274185D03*
X0219185Y0284185D03*
X0219185Y0294185D03*
X0219185Y0304185D03*
X0129185Y0304185D03*
X0129185Y0294185D03*
X0129185Y0284185D03*
X0129185Y0274185D03*
X0129185Y0264185D03*
X0129185Y0254185D03*
X0129185Y0244185D03*
X0117185Y0244185D03*
X0117185Y0254185D03*
X0117185Y0264185D03*
X0117185Y0274185D03*
X0117185Y0284185D03*
X0117185Y0294185D03*
X0117185Y0304185D03*
X0117185Y0200685D03*
X0117185Y0190685D03*
X0117185Y0180685D03*
X0117185Y0170685D03*
X0117185Y0160685D03*
X0117185Y0150685D03*
X0117185Y0140685D03*
X0129185Y0140685D03*
X0129185Y0150685D03*
X0129185Y0160685D03*
X0129185Y0170685D03*
X0129185Y0180685D03*
X0129185Y0190685D03*
X0129185Y0200685D03*
X0219185Y0200685D03*
X0219185Y0190685D03*
X0219185Y0180685D03*
X0219185Y0170685D03*
X0219185Y0160685D03*
X0219185Y0150685D03*
X0219185Y0140685D03*
X0231185Y0140685D03*
X0231185Y0150685D03*
X0231185Y0160685D03*
X0231185Y0170685D03*
X0231185Y0180685D03*
X0231185Y0190685D03*
X0231185Y0200685D03*
D14*
X0219185Y0210685D03*
X0219185Y0314185D03*
X0117185Y0314185D03*
X0117185Y0210685D03*
X0117185Y0107185D03*
X0219185Y0107185D03*
X0321185Y0107185D03*
X0321185Y0210685D03*
X0321185Y0314185D03*
D15*
X0254185Y0263996D03*
X0152185Y0263996D03*
X0050185Y0263996D03*
X0050185Y0160496D03*
X0152185Y0160496D03*
X0254185Y0160496D03*
X0254185Y0056996D03*
X0152185Y0056996D03*
X0050185Y0056996D03*
D16*
X0050185Y0049122D03*
X0050185Y0041248D03*
X0050185Y0033374D03*
X0050185Y0136874D03*
X0050185Y0144748D03*
X0050185Y0152622D03*
X0050185Y0240374D03*
X0050185Y0248248D03*
X0050185Y0256122D03*
X0152185Y0256122D03*
X0152185Y0248248D03*
X0152185Y0240374D03*
X0152185Y0152622D03*
X0152185Y0144748D03*
X0152185Y0136874D03*
X0152185Y0049122D03*
X0152185Y0041248D03*
X0152185Y0033374D03*
X0254185Y0033374D03*
X0254185Y0041248D03*
X0254185Y0049122D03*
X0254185Y0136874D03*
X0254185Y0144748D03*
X0254185Y0152622D03*
X0254185Y0240374D03*
X0254185Y0248248D03*
X0254185Y0256122D03*
M02*
