%
M48
M72
T01C0.0138
T02C0.0350
T03C0.0400
%
T01
X3919Y2919
X4369Y4069
X5719Y2919
X6019Y6069
X7369Y6119
X7769Y6119
X8169Y6119
X7769Y7419
X9719Y8219
X10069Y8119
X10069Y7519
X10119Y7019
X10769Y6406
X9569Y9019
X10219Y9876
X10119Y10369
X10119Y11069
X8319Y10269
X7939Y10298
X7019Y10369
X7019Y11719
X5719Y13269
X4369Y14419
X3919Y13269
X4269Y10907
X4369Y10069
X4619Y9777
X4319Y8969
X4519Y8669
X4530Y8280
X4219Y7719
X4319Y7269
X5469Y8154
X6019Y16419
X7369Y16469
X7769Y16469
X8169Y16469
X7769Y17769
X9719Y18569
X10069Y18469
X10069Y17869
X10119Y17369
X10769Y16756
X9569Y19369
X10219Y20226
X10119Y20719
X10119Y21419
X8319Y20619
X7939Y20648
X7019Y20719
X7019Y22069
X5719Y23619
X4369Y24769
X3919Y23619
X4269Y21257
X4369Y20419
X4619Y20127
X4319Y19319
X4519Y19019
X4530Y18630
X4219Y18069
X4319Y17619
X5469Y18504
X6019Y26769
X7369Y26819
X7769Y26819
X8169Y26819
X7769Y28119
X9719Y28919
X10069Y28819
X10069Y28219
X10119Y27719
X10769Y27106
X9569Y29719
X10219Y30576
X10119Y31069
X10119Y31769
X8319Y30969
X7939Y30998
X7019Y31069
X7019Y32419
X4619Y30477
X4369Y30769
X4269Y31607
X4319Y29669
X4519Y29369
X4530Y28980
X4219Y28419
X4319Y27969
X5469Y28854
X14119Y23619
X14569Y24769
X15919Y23619
X17219Y22069
X17219Y20719
X18139Y20648
X18519Y20619
X19769Y19369
X19919Y18569
X20269Y18469
X20269Y17869
X20319Y17369
X20969Y16756
X18369Y16469
X17969Y16469
X17569Y16469
X16219Y16419
X14519Y17619
X14419Y18069
X14730Y18630
X14719Y19019
X14519Y19319
X14819Y20127
X14569Y20419
X14469Y21257
X15669Y18504
X17969Y17769
X20419Y20226
X20319Y20719
X20319Y21419
X24319Y23619
X24769Y24769
X26119Y23619
X27419Y22069
X27419Y20719
X28339Y20648
X28719Y20619
X29969Y19369
X30119Y18569
X30469Y18469
X30469Y17869
X30519Y17369
X31169Y16756
X28569Y16469
X28169Y16469
X27769Y16469
X26419Y16419
X24719Y17619
X24619Y18069
X24930Y18630
X24919Y19019
X24719Y19319
X25019Y20127
X24769Y20419
X24669Y21257
X25869Y18504
X28169Y17769
X30619Y20226
X30519Y20719
X30519Y21419
X31169Y27106
X30519Y27719
X30469Y28219
X30469Y28819
X30119Y28919
X29969Y29719
X30619Y30576
X30519Y31069
X30519Y31769
X28719Y30969
X28339Y30998
X27419Y31069
X27419Y32419
X25019Y30477
X24769Y30769
X24669Y31607
X24719Y29669
X24919Y29369
X24930Y28980
X24619Y28419
X24719Y27969
X25869Y28854
X26419Y26769
X27769Y26819
X28169Y26819
X28569Y26819
X28169Y28119
X20969Y27106
X20319Y27719
X20269Y28219
X20269Y28819
X19919Y28919
X19769Y29719
X20419Y30576
X20319Y31069
X20319Y31769
X18519Y30969
X18139Y30998
X17219Y31069
X17219Y32419
X14819Y30477
X14569Y30769
X14469Y31607
X14519Y29669
X14719Y29369
X14730Y28980
X14419Y28419
X14519Y27969
X15669Y28854
X16219Y26769
X17569Y26819
X17969Y26819
X18369Y26819
X17969Y28119
X14569Y14419
X14119Y13269
X15919Y13269
X17219Y11719
X17219Y10369
X18139Y10298
X18519Y10269
X19769Y9019
X19919Y8219
X20269Y8119
X20269Y7519
X20319Y7019
X20969Y6406
X18369Y6119
X17969Y6119
X17569Y6119
X16219Y6069
X14519Y7269
X14419Y7719
X14730Y8280
X14719Y8669
X14519Y8969
X14819Y9777
X14569Y10069
X14469Y10907
X15669Y8154
X17969Y7419
X20419Y9876
X20319Y10369
X20319Y11069
X24319Y13269
X24769Y14419
X26119Y13269
X27419Y11719
X27419Y10369
X28339Y10298
X28719Y10269
X29969Y9019
X30119Y8219
X30469Y8119
X30469Y7519
X30519Y7019
X31169Y6406
X28569Y6119
X28169Y6119
X27769Y6119
X26419Y6069
X24719Y7269
X24619Y7719
X24930Y8280
X24919Y8669
X24719Y8969
X25019Y9777
X24769Y10069
X24669Y10907
X25869Y8154
X28169Y7419
X30619Y9876
X30519Y10369
X30519Y11069
X24769Y4069
X24319Y2919
X26119Y2919
X15919Y2919
X14569Y4069
X14119Y2919
T02
X2719Y3719
X2719Y4719
X2719Y5719
X2719Y6719
X2719Y7719
X2719Y8719
X2719Y9719
X2719Y10719
X2719Y14069
X2719Y15069
X2719Y16069
X2719Y17069
X2719Y18069
X2719Y19069
X2719Y20069
X2719Y21069
X2719Y24419
X2719Y25419
X2719Y26419
X2719Y27419
X2719Y28419
X2719Y29419
X2719Y30419
X2719Y31419
X11719Y31419
X11719Y30419
X11719Y29419
X11719Y28419
X11719Y27419
X11719Y26419
X11719Y25419
X11719Y24419
X12919Y24419
X12919Y25419
X12919Y26419
X12919Y27419
X12919Y28419
X12919Y29419
X12919Y30419
X12919Y31419
X21919Y31419
X21919Y30419
X21919Y29419
X21919Y28419
X21919Y27419
X21919Y26419
X21919Y25419
X21919Y24419
X23119Y24419
X23119Y25419
X23119Y26419
X23119Y27419
X23119Y28419
X23119Y29419
X23119Y30419
X23119Y31419
X32119Y31419
X32119Y30419
X32119Y29419
X32119Y28419
X32119Y27419
X32119Y26419
X32119Y25419
X32119Y24419
X32119Y21069
X32119Y20069
X32119Y19069
X32119Y18069
X32119Y17069
X32119Y16069
X32119Y15069
X32119Y14069
X32119Y10719
X32119Y9719
X32119Y8719
X32119Y7719
X32119Y6719
X32119Y5719
X32119Y4719
X32119Y3719
X23119Y3719
X23119Y4719
X23119Y5719
X23119Y6719
X23119Y7719
X23119Y8719
X23119Y9719
X23119Y10719
X21919Y10719
X21919Y9719
X21919Y8719
X21919Y7719
X21919Y6719
X21919Y5719
X21919Y4719
X21919Y3719
X12919Y3719
X12919Y4719
X12919Y5719
X12919Y6719
X12919Y7719
X12919Y8719
X12919Y9719
X12919Y10719
X11719Y10719
X11719Y9719
X11719Y8719
X11719Y7719
X11719Y6719
X11719Y5719
X11719Y4719
X11719Y3719
X11719Y14069
X11719Y15069
X11719Y16069
X11719Y17069
X11719Y18069
X11719Y19069
X11719Y20069
X11719Y21069
X12919Y21069
X12919Y20069
X12919Y19069
X12919Y18069
X12919Y17069
X12919Y16069
X12919Y15069
X12919Y14069
X21919Y14069
X21919Y15069
X21919Y16069
X21919Y17069
X21919Y18069
X21919Y19069
X21919Y20069
X21919Y21069
X23119Y21069
X23119Y20069
X23119Y19069
X23119Y18069
X23119Y17069
X23119Y16069
X23119Y15069
X23119Y14069
T03
X5219Y3719
X6219Y3719
X7219Y3719
X8219Y3719
X9219Y3719
X10219Y3719
X15419Y3719
X16419Y3719
X17419Y3719
X18419Y3719
X19419Y3719
X20419Y3719
X25619Y3719
X26619Y3719
X27619Y3719
X28619Y3719
X29619Y3719
X30619Y3719
X30619Y14069
X29619Y14069
X28619Y14069
X27619Y14069
X26619Y14069
X25619Y14069
X20419Y14069
X19419Y14069
X18419Y14069
X17419Y14069
X16419Y14069
X15419Y14069
X10219Y14069
X9219Y14069
X8219Y14069
X7219Y14069
X6219Y14069
X5219Y14069
X5219Y24419
X6219Y24419
X7219Y24419
X8219Y24419
X9219Y24419
X10219Y24419
X15419Y24419
X16419Y24419
X17419Y24419
X18419Y24419
X19419Y24419
X20419Y24419
X25619Y24419
X26619Y24419
X27619Y24419
X28619Y24419
X29619Y24419
X30619Y24419
M30
