G75*
%MOIN*%
%OFA0B0*%
%FSLAX25Y25*%
%IPPOS*%
%LPD*%
%AMOC8*
5,1,8,0,0,1.08239X$1,22.5*
%
%ADD10C,0.01000*%
%ADD11R,0.07000X0.07000*%
%ADD12C,0.06400*%
%ADD13R,0.06400X0.06400*%
%ADD14R,0.06699X0.07498*%
%ADD15R,0.07487X0.06699*%
%ADD16C,0.06400*%
%ADD17R,0.04100X0.08550*%
%ADD18R,0.13000X0.08550*%
D10*
X0021185Y0021185D02*
X0021185Y0331685D01*
X0327185Y0331685D01*
X0327185Y0021185D01*
X0021185Y0021185D01*
D11*
X0027185Y0107185D03*
X0027185Y0210685D03*
X0027185Y0314185D03*
X0129185Y0314185D03*
X0129185Y0210685D03*
X0231185Y0210685D03*
X0231185Y0314185D03*
X0231185Y0107185D03*
X0129185Y0107185D03*
D12*
X0129185Y0097185D03*
X0129185Y0087185D03*
X0129185Y0077185D03*
X0129185Y0067185D03*
X0129185Y0057185D03*
X0129185Y0047185D03*
X0129185Y0037185D03*
X0117185Y0037185D03*
X0117185Y0047185D03*
X0117185Y0057185D03*
X0117185Y0067185D03*
X0117185Y0077185D03*
X0117185Y0087185D03*
X0117185Y0097185D03*
X0117185Y0140685D03*
X0117185Y0150685D03*
X0117185Y0160685D03*
X0117185Y0170685D03*
X0117185Y0180685D03*
X0117185Y0190685D03*
X0117185Y0200685D03*
X0129185Y0200685D03*
X0129185Y0190685D03*
X0129185Y0180685D03*
X0129185Y0170685D03*
X0129185Y0160685D03*
X0129185Y0150685D03*
X0129185Y0140685D03*
X0219185Y0140685D03*
X0219185Y0150685D03*
X0219185Y0160685D03*
X0219185Y0170685D03*
X0219185Y0180685D03*
X0219185Y0190685D03*
X0219185Y0200685D03*
X0231185Y0200685D03*
X0231185Y0190685D03*
X0231185Y0180685D03*
X0231185Y0170685D03*
X0231185Y0160685D03*
X0231185Y0150685D03*
X0231185Y0140685D03*
X0231185Y0097185D03*
X0231185Y0087185D03*
X0231185Y0077185D03*
X0231185Y0067185D03*
X0231185Y0057185D03*
X0231185Y0047185D03*
X0231185Y0037185D03*
X0219185Y0037185D03*
X0219185Y0047185D03*
X0219185Y0057185D03*
X0219185Y0067185D03*
X0219185Y0077185D03*
X0219185Y0087185D03*
X0219185Y0097185D03*
X0321185Y0097185D03*
X0321185Y0087185D03*
X0321185Y0077185D03*
X0321185Y0067185D03*
X0321185Y0057185D03*
X0321185Y0047185D03*
X0321185Y0037185D03*
X0321185Y0140685D03*
X0321185Y0150685D03*
X0321185Y0160685D03*
X0321185Y0170685D03*
X0321185Y0180685D03*
X0321185Y0190685D03*
X0321185Y0200685D03*
X0321185Y0244185D03*
X0321185Y0254185D03*
X0321185Y0264185D03*
X0321185Y0274185D03*
X0321185Y0284185D03*
X0321185Y0294185D03*
X0321185Y0304185D03*
X0231185Y0304185D03*
X0231185Y0294185D03*
X0231185Y0284185D03*
X0231185Y0274185D03*
X0231185Y0264185D03*
X0231185Y0254185D03*
X0231185Y0244185D03*
X0219185Y0244185D03*
X0219185Y0254185D03*
X0219185Y0264185D03*
X0219185Y0274185D03*
X0219185Y0284185D03*
X0219185Y0294185D03*
X0219185Y0304185D03*
X0129185Y0304185D03*
X0129185Y0294185D03*
X0129185Y0284185D03*
X0129185Y0274185D03*
X0129185Y0264185D03*
X0129185Y0254185D03*
X0129185Y0244185D03*
X0117185Y0244185D03*
X0117185Y0254185D03*
X0117185Y0264185D03*
X0117185Y0274185D03*
X0117185Y0284185D03*
X0117185Y0294185D03*
X0117185Y0304185D03*
X0027185Y0304185D03*
X0027185Y0294185D03*
X0027185Y0284185D03*
X0027185Y0274185D03*
X0027185Y0264185D03*
X0027185Y0254185D03*
X0027185Y0244185D03*
X0027185Y0200685D03*
X0027185Y0190685D03*
X0027185Y0180685D03*
X0027185Y0170685D03*
X0027185Y0160685D03*
X0027185Y0150685D03*
X0027185Y0140685D03*
X0027185Y0097185D03*
X0027185Y0087185D03*
X0027185Y0077185D03*
X0027185Y0067185D03*
X0027185Y0057185D03*
X0027185Y0047185D03*
X0027185Y0037185D03*
D13*
X0117185Y0107185D03*
X0219185Y0107185D03*
X0219185Y0210685D03*
X0219185Y0314185D03*
X0117185Y0314185D03*
X0117185Y0210685D03*
X0321185Y0210685D03*
X0321185Y0314185D03*
X0321185Y0107185D03*
D14*
X0310783Y0114185D03*
X0299587Y0114185D03*
X0266783Y0117185D03*
X0255587Y0117185D03*
X0255587Y0102185D03*
X0266783Y0102185D03*
X0266783Y0087185D03*
X0264283Y0076685D03*
X0253087Y0076685D03*
X0255587Y0087185D03*
X0208783Y0114185D03*
X0197587Y0114185D03*
X0164783Y0117185D03*
X0153587Y0117185D03*
X0153587Y0102185D03*
X0164783Y0102185D03*
X0164783Y0087185D03*
X0162283Y0076685D03*
X0151087Y0076685D03*
X0153587Y0087185D03*
X0106783Y0114185D03*
X0095587Y0114185D03*
X0062783Y0117185D03*
X0051587Y0117185D03*
X0051587Y0102185D03*
X0062783Y0102185D03*
X0062783Y0087185D03*
X0060283Y0076685D03*
X0049087Y0076685D03*
X0051587Y0087185D03*
X0049087Y0180185D03*
X0051587Y0190685D03*
X0060283Y0180185D03*
X0062783Y0190685D03*
X0062783Y0205685D03*
X0051587Y0205685D03*
X0051587Y0220685D03*
X0062783Y0220685D03*
X0095587Y0217685D03*
X0106783Y0217685D03*
X0151087Y0180185D03*
X0153587Y0190685D03*
X0164783Y0190685D03*
X0162283Y0180185D03*
X0164783Y0205685D03*
X0153587Y0205685D03*
X0153587Y0220685D03*
X0164783Y0220685D03*
X0197587Y0217685D03*
X0208783Y0217685D03*
X0253087Y0180185D03*
X0255587Y0190685D03*
X0266783Y0190685D03*
X0264283Y0180185D03*
X0266783Y0205685D03*
X0255587Y0205685D03*
X0255587Y0220685D03*
X0266783Y0220685D03*
X0299587Y0217685D03*
X0310783Y0217685D03*
X0264283Y0283685D03*
X0266783Y0294185D03*
X0255587Y0294185D03*
X0253087Y0283685D03*
X0255587Y0309185D03*
X0266783Y0309185D03*
X0266783Y0324185D03*
X0255587Y0324185D03*
X0299587Y0321185D03*
X0310783Y0321185D03*
X0208783Y0321185D03*
X0197587Y0321185D03*
X0164783Y0324185D03*
X0153587Y0324185D03*
X0153587Y0309185D03*
X0164783Y0309185D03*
X0164783Y0294185D03*
X0162283Y0283685D03*
X0151087Y0283685D03*
X0153587Y0294185D03*
X0106783Y0321185D03*
X0095587Y0321185D03*
X0062783Y0324185D03*
X0051587Y0324185D03*
X0051587Y0309185D03*
X0062783Y0309185D03*
X0062783Y0294185D03*
X0060283Y0283685D03*
X0049087Y0283685D03*
X0051587Y0294185D03*
D15*
X0055185Y0267697D03*
X0046185Y0267697D03*
X0046185Y0256673D03*
X0055185Y0256673D03*
X0098685Y0255673D03*
X0107685Y0255673D03*
X0107685Y0266697D03*
X0098685Y0266697D03*
X0148185Y0267697D03*
X0157185Y0267697D03*
X0157185Y0256673D03*
X0148185Y0256673D03*
X0200685Y0255673D03*
X0209685Y0255673D03*
X0209685Y0266697D03*
X0200685Y0266697D03*
X0250185Y0267697D03*
X0259185Y0267697D03*
X0259185Y0256673D03*
X0250185Y0256673D03*
X0302685Y0255673D03*
X0311685Y0255673D03*
X0311685Y0266697D03*
X0302685Y0266697D03*
X0302685Y0163197D03*
X0311685Y0163197D03*
X0311685Y0152173D03*
X0302685Y0152173D03*
X0259185Y0153173D03*
X0250185Y0153173D03*
X0250185Y0164197D03*
X0259185Y0164197D03*
X0209685Y0163197D03*
X0200685Y0163197D03*
X0200685Y0152173D03*
X0209685Y0152173D03*
X0157185Y0153173D03*
X0148185Y0153173D03*
X0148185Y0164197D03*
X0157185Y0164197D03*
X0107685Y0163197D03*
X0098685Y0163197D03*
X0098685Y0152173D03*
X0107685Y0152173D03*
X0055185Y0153173D03*
X0046185Y0153173D03*
X0046185Y0164197D03*
X0055185Y0164197D03*
X0055185Y0060697D03*
X0046185Y0060697D03*
X0046185Y0049673D03*
X0055185Y0049673D03*
X0098685Y0048673D03*
X0107685Y0048673D03*
X0107685Y0059697D03*
X0098685Y0059697D03*
X0148185Y0060697D03*
X0157185Y0060697D03*
X0157185Y0049673D03*
X0148185Y0049673D03*
X0200685Y0048673D03*
X0209685Y0048673D03*
X0209685Y0059697D03*
X0200685Y0059697D03*
X0250185Y0060697D03*
X0259185Y0060697D03*
X0259185Y0049673D03*
X0250185Y0049673D03*
X0302685Y0048673D03*
X0311685Y0048673D03*
X0311685Y0059697D03*
X0302685Y0059697D03*
D16*
X0306185Y0040185D02*
X0306185Y0034185D01*
X0296185Y0034185D02*
X0296185Y0040185D01*
X0286185Y0040185D02*
X0286185Y0034185D01*
X0276185Y0034185D02*
X0276185Y0040185D01*
X0266185Y0040185D02*
X0266185Y0034185D01*
X0256185Y0034185D02*
X0256185Y0040185D01*
X0204185Y0040185D02*
X0204185Y0034185D01*
X0194185Y0034185D02*
X0194185Y0040185D01*
X0184185Y0040185D02*
X0184185Y0034185D01*
X0174185Y0034185D02*
X0174185Y0040185D01*
X0164185Y0040185D02*
X0164185Y0034185D01*
X0154185Y0034185D02*
X0154185Y0040185D01*
X0102185Y0040185D02*
X0102185Y0034185D01*
X0092185Y0034185D02*
X0092185Y0040185D01*
X0082185Y0040185D02*
X0082185Y0034185D01*
X0072185Y0034185D02*
X0072185Y0040185D01*
X0062185Y0040185D02*
X0062185Y0034185D01*
X0052185Y0034185D02*
X0052185Y0040185D01*
X0052185Y0137685D02*
X0052185Y0143685D01*
X0062185Y0143685D02*
X0062185Y0137685D01*
X0072185Y0137685D02*
X0072185Y0143685D01*
X0082185Y0143685D02*
X0082185Y0137685D01*
X0092185Y0137685D02*
X0092185Y0143685D01*
X0102185Y0143685D02*
X0102185Y0137685D01*
X0154185Y0137685D02*
X0154185Y0143685D01*
X0164185Y0143685D02*
X0164185Y0137685D01*
X0174185Y0137685D02*
X0174185Y0143685D01*
X0184185Y0143685D02*
X0184185Y0137685D01*
X0194185Y0137685D02*
X0194185Y0143685D01*
X0204185Y0143685D02*
X0204185Y0137685D01*
X0256185Y0137685D02*
X0256185Y0143685D01*
X0266185Y0143685D02*
X0266185Y0137685D01*
X0276185Y0137685D02*
X0276185Y0143685D01*
X0286185Y0143685D02*
X0286185Y0137685D01*
X0296185Y0137685D02*
X0296185Y0143685D01*
X0306185Y0143685D02*
X0306185Y0137685D01*
X0306185Y0241185D02*
X0306185Y0247185D01*
X0296185Y0247185D02*
X0296185Y0241185D01*
X0286185Y0241185D02*
X0286185Y0247185D01*
X0276185Y0247185D02*
X0276185Y0241185D01*
X0266185Y0241185D02*
X0266185Y0247185D01*
X0256185Y0247185D02*
X0256185Y0241185D01*
X0204185Y0241185D02*
X0204185Y0247185D01*
X0194185Y0247185D02*
X0194185Y0241185D01*
X0184185Y0241185D02*
X0184185Y0247185D01*
X0174185Y0247185D02*
X0174185Y0241185D01*
X0164185Y0241185D02*
X0164185Y0247185D01*
X0154185Y0247185D02*
X0154185Y0241185D01*
X0102185Y0241185D02*
X0102185Y0247185D01*
X0092185Y0247185D02*
X0092185Y0241185D01*
X0082185Y0241185D02*
X0082185Y0247185D01*
X0072185Y0247185D02*
X0072185Y0241185D01*
X0062185Y0241185D02*
X0062185Y0247185D01*
X0052185Y0247185D02*
X0052185Y0241185D01*
D17*
X0068585Y0287660D03*
X0077685Y0287660D03*
X0086785Y0287660D03*
X0170585Y0287660D03*
X0179685Y0287660D03*
X0188785Y0287660D03*
X0272585Y0287660D03*
X0281685Y0287660D03*
X0290785Y0287660D03*
X0290785Y0184160D03*
X0281685Y0184160D03*
X0272585Y0184160D03*
X0188785Y0184160D03*
X0179685Y0184160D03*
X0170585Y0184160D03*
X0086785Y0184160D03*
X0077685Y0184160D03*
X0068585Y0184160D03*
X0068585Y0080660D03*
X0077685Y0080660D03*
X0086785Y0080660D03*
X0170585Y0080660D03*
X0179685Y0080660D03*
X0188785Y0080660D03*
X0272585Y0080660D03*
X0281685Y0080660D03*
X0290785Y0080660D03*
D18*
X0281685Y0055710D03*
X0179685Y0055710D03*
X0077685Y0055710D03*
X0077685Y0159210D03*
X0077685Y0262710D03*
X0179685Y0262710D03*
X0179685Y0159210D03*
X0281685Y0159210D03*
X0281685Y0262710D03*
M02*
