G75*
%MOIN*%
%OFA0B0*%
%FSLAX25Y25*%
%IPPOS*%
%LPD*%
%AMOC8*
5,1,8,0,0,1.08239X$1,22.5*
%
%ADD10C,0.01000*%
%ADD11R,0.06299X0.07098*%
%ADD12R,0.07087X0.06299*%
%ADD13R,0.03700X0.08150*%
%ADD14R,0.12600X0.08150*%
D10*
X0021185Y0021185D02*
X0021185Y0331685D01*
X0327185Y0331685D01*
X0327185Y0021185D01*
X0021185Y0021185D01*
D11*
X0049087Y0076685D03*
X0051587Y0087185D03*
X0060283Y0076685D03*
X0062783Y0087185D03*
X0062783Y0102185D03*
X0051587Y0102185D03*
X0051587Y0117185D03*
X0062783Y0117185D03*
X0095587Y0114185D03*
X0106783Y0114185D03*
X0151087Y0076685D03*
X0153587Y0087185D03*
X0164783Y0087185D03*
X0162283Y0076685D03*
X0164783Y0102185D03*
X0153587Y0102185D03*
X0153587Y0117185D03*
X0164783Y0117185D03*
X0197587Y0114185D03*
X0208783Y0114185D03*
X0253087Y0076685D03*
X0255587Y0087185D03*
X0266783Y0087185D03*
X0264283Y0076685D03*
X0266783Y0102185D03*
X0255587Y0102185D03*
X0255587Y0117185D03*
X0266783Y0117185D03*
X0299587Y0114185D03*
X0310783Y0114185D03*
X0264283Y0180185D03*
X0266783Y0190685D03*
X0255587Y0190685D03*
X0253087Y0180185D03*
X0255587Y0205685D03*
X0266783Y0205685D03*
X0266783Y0220685D03*
X0255587Y0220685D03*
X0299587Y0217685D03*
X0310783Y0217685D03*
X0264283Y0283685D03*
X0266783Y0294185D03*
X0255587Y0294185D03*
X0253087Y0283685D03*
X0255587Y0309185D03*
X0266783Y0309185D03*
X0266783Y0324185D03*
X0255587Y0324185D03*
X0299587Y0321185D03*
X0310783Y0321185D03*
X0208783Y0321185D03*
X0197587Y0321185D03*
X0164783Y0324185D03*
X0153587Y0324185D03*
X0153587Y0309185D03*
X0164783Y0309185D03*
X0164783Y0294185D03*
X0162283Y0283685D03*
X0151087Y0283685D03*
X0153587Y0294185D03*
X0106783Y0321185D03*
X0095587Y0321185D03*
X0062783Y0324185D03*
X0051587Y0324185D03*
X0051587Y0309185D03*
X0062783Y0309185D03*
X0062783Y0294185D03*
X0060283Y0283685D03*
X0049087Y0283685D03*
X0051587Y0294185D03*
X0051587Y0220685D03*
X0062783Y0220685D03*
X0062783Y0205685D03*
X0051587Y0205685D03*
X0051587Y0190685D03*
X0049087Y0180185D03*
X0060283Y0180185D03*
X0062783Y0190685D03*
X0095587Y0217685D03*
X0106783Y0217685D03*
X0151087Y0180185D03*
X0153587Y0190685D03*
X0164783Y0190685D03*
X0162283Y0180185D03*
X0164783Y0205685D03*
X0153587Y0205685D03*
X0153587Y0220685D03*
X0164783Y0220685D03*
X0197587Y0217685D03*
X0208783Y0217685D03*
D12*
X0209685Y0255673D03*
X0200685Y0255673D03*
X0200685Y0266697D03*
X0209685Y0266697D03*
X0250185Y0267697D03*
X0259185Y0267697D03*
X0259185Y0256673D03*
X0250185Y0256673D03*
X0302685Y0255673D03*
X0311685Y0255673D03*
X0311685Y0266697D03*
X0302685Y0266697D03*
X0302685Y0163197D03*
X0311685Y0163197D03*
X0311685Y0152173D03*
X0302685Y0152173D03*
X0259185Y0153173D03*
X0250185Y0153173D03*
X0250185Y0164197D03*
X0259185Y0164197D03*
X0209685Y0163197D03*
X0200685Y0163197D03*
X0200685Y0152173D03*
X0209685Y0152173D03*
X0157185Y0153173D03*
X0148185Y0153173D03*
X0148185Y0164197D03*
X0157185Y0164197D03*
X0107685Y0163197D03*
X0098685Y0163197D03*
X0098685Y0152173D03*
X0107685Y0152173D03*
X0055185Y0153173D03*
X0046185Y0153173D03*
X0046185Y0164197D03*
X0055185Y0164197D03*
X0098685Y0255673D03*
X0107685Y0255673D03*
X0107685Y0266697D03*
X0098685Y0266697D03*
X0055185Y0267697D03*
X0046185Y0267697D03*
X0046185Y0256673D03*
X0055185Y0256673D03*
X0148185Y0256673D03*
X0157185Y0256673D03*
X0157185Y0267697D03*
X0148185Y0267697D03*
X0148185Y0060697D03*
X0157185Y0060697D03*
X0157185Y0049673D03*
X0148185Y0049673D03*
X0107685Y0048673D03*
X0098685Y0048673D03*
X0098685Y0059697D03*
X0107685Y0059697D03*
X0055185Y0060697D03*
X0046185Y0060697D03*
X0046185Y0049673D03*
X0055185Y0049673D03*
X0200685Y0048673D03*
X0209685Y0048673D03*
X0209685Y0059697D03*
X0200685Y0059697D03*
X0250185Y0060697D03*
X0259185Y0060697D03*
X0259185Y0049673D03*
X0250185Y0049673D03*
X0302685Y0048673D03*
X0311685Y0048673D03*
X0311685Y0059697D03*
X0302685Y0059697D03*
D13*
X0290785Y0080660D03*
X0281685Y0080660D03*
X0272585Y0080660D03*
X0188785Y0080660D03*
X0179685Y0080660D03*
X0170585Y0080660D03*
X0086785Y0080660D03*
X0077685Y0080660D03*
X0068585Y0080660D03*
X0068585Y0184160D03*
X0077685Y0184160D03*
X0086785Y0184160D03*
X0170585Y0184160D03*
X0179685Y0184160D03*
X0188785Y0184160D03*
X0272585Y0184160D03*
X0281685Y0184160D03*
X0290785Y0184160D03*
X0290785Y0287660D03*
X0281685Y0287660D03*
X0272585Y0287660D03*
X0188785Y0287660D03*
X0179685Y0287660D03*
X0170585Y0287660D03*
X0086785Y0287660D03*
X0077685Y0287660D03*
X0068585Y0287660D03*
D14*
X0077685Y0262710D03*
X0077685Y0159210D03*
X0179685Y0159210D03*
X0179685Y0262710D03*
X0281685Y0262710D03*
X0281685Y0159210D03*
X0281685Y0055710D03*
X0179685Y0055710D03*
X0077685Y0055710D03*
M02*
