G75*
%MOIN*%
%OFA0B0*%
%FSLAX25Y25*%
%IPPOS*%
%LPD*%
%AMOC8*
5,1,8,0,0,1.08239X$1,22.5*
%
%ADD10C,0.01000*%
%ADD11C,0.00600*%
D10*
X0021185Y0021185D02*
X0021185Y0331685D01*
X0327185Y0331685D01*
X0327185Y0021185D01*
X0021185Y0021185D01*
D11*
X0063985Y0060385D02*
X0070185Y0060385D01*
X0063985Y0060385D02*
X0063985Y0075985D01*
X0065585Y0075985D01*
X0059985Y0082585D02*
X0059983Y0082541D01*
X0059977Y0082498D01*
X0059968Y0082456D01*
X0059955Y0082414D01*
X0059938Y0082374D01*
X0059918Y0082335D01*
X0059895Y0082298D01*
X0059868Y0082264D01*
X0059839Y0082231D01*
X0059806Y0082202D01*
X0059772Y0082175D01*
X0059735Y0082152D01*
X0059696Y0082132D01*
X0059656Y0082115D01*
X0059614Y0082102D01*
X0059572Y0082093D01*
X0059529Y0082087D01*
X0059485Y0082085D01*
X0059441Y0082087D01*
X0059398Y0082093D01*
X0059356Y0082102D01*
X0059314Y0082115D01*
X0059274Y0082132D01*
X0059235Y0082152D01*
X0059198Y0082175D01*
X0059164Y0082202D01*
X0059131Y0082231D01*
X0059102Y0082264D01*
X0059075Y0082298D01*
X0059052Y0082335D01*
X0059032Y0082374D01*
X0059015Y0082414D01*
X0059002Y0082456D01*
X0058993Y0082498D01*
X0058987Y0082541D01*
X0058985Y0082585D01*
X0058987Y0082629D01*
X0058993Y0082672D01*
X0059002Y0082714D01*
X0059015Y0082756D01*
X0059032Y0082796D01*
X0059052Y0082835D01*
X0059075Y0082872D01*
X0059102Y0082906D01*
X0059131Y0082939D01*
X0059164Y0082968D01*
X0059198Y0082995D01*
X0059235Y0083018D01*
X0059274Y0083038D01*
X0059314Y0083055D01*
X0059356Y0083068D01*
X0059398Y0083077D01*
X0059441Y0083083D01*
X0059485Y0083085D01*
X0059529Y0083083D01*
X0059572Y0083077D01*
X0059614Y0083068D01*
X0059656Y0083055D01*
X0059696Y0083038D01*
X0059735Y0083018D01*
X0059772Y0082995D01*
X0059806Y0082968D01*
X0059839Y0082939D01*
X0059868Y0082906D01*
X0059895Y0082872D01*
X0059918Y0082835D01*
X0059938Y0082796D01*
X0059955Y0082756D01*
X0059968Y0082714D01*
X0059977Y0082672D01*
X0059983Y0082629D01*
X0059985Y0082585D01*
X0071585Y0075985D02*
X0074685Y0075985D01*
X0080685Y0075985D02*
X0083785Y0075985D01*
X0089785Y0075985D02*
X0091385Y0075985D01*
X0091385Y0060385D01*
X0085185Y0060385D01*
X0160985Y0082585D02*
X0160987Y0082541D01*
X0160993Y0082498D01*
X0161002Y0082456D01*
X0161015Y0082414D01*
X0161032Y0082374D01*
X0161052Y0082335D01*
X0161075Y0082298D01*
X0161102Y0082264D01*
X0161131Y0082231D01*
X0161164Y0082202D01*
X0161198Y0082175D01*
X0161235Y0082152D01*
X0161274Y0082132D01*
X0161314Y0082115D01*
X0161356Y0082102D01*
X0161398Y0082093D01*
X0161441Y0082087D01*
X0161485Y0082085D01*
X0161529Y0082087D01*
X0161572Y0082093D01*
X0161614Y0082102D01*
X0161656Y0082115D01*
X0161696Y0082132D01*
X0161735Y0082152D01*
X0161772Y0082175D01*
X0161806Y0082202D01*
X0161839Y0082231D01*
X0161868Y0082264D01*
X0161895Y0082298D01*
X0161918Y0082335D01*
X0161938Y0082374D01*
X0161955Y0082414D01*
X0161968Y0082456D01*
X0161977Y0082498D01*
X0161983Y0082541D01*
X0161985Y0082585D01*
X0161983Y0082629D01*
X0161977Y0082672D01*
X0161968Y0082714D01*
X0161955Y0082756D01*
X0161938Y0082796D01*
X0161918Y0082835D01*
X0161895Y0082872D01*
X0161868Y0082906D01*
X0161839Y0082939D01*
X0161806Y0082968D01*
X0161772Y0082995D01*
X0161735Y0083018D01*
X0161696Y0083038D01*
X0161656Y0083055D01*
X0161614Y0083068D01*
X0161572Y0083077D01*
X0161529Y0083083D01*
X0161485Y0083085D01*
X0161441Y0083083D01*
X0161398Y0083077D01*
X0161356Y0083068D01*
X0161314Y0083055D01*
X0161274Y0083038D01*
X0161235Y0083018D01*
X0161198Y0082995D01*
X0161164Y0082968D01*
X0161131Y0082939D01*
X0161102Y0082906D01*
X0161075Y0082872D01*
X0161052Y0082835D01*
X0161032Y0082796D01*
X0161015Y0082756D01*
X0161002Y0082714D01*
X0160993Y0082672D01*
X0160987Y0082629D01*
X0160985Y0082585D01*
X0165985Y0075985D02*
X0165985Y0060385D01*
X0172185Y0060385D01*
X0187185Y0060385D02*
X0193385Y0060385D01*
X0193385Y0075985D01*
X0191785Y0075985D01*
X0185785Y0075985D02*
X0182685Y0075985D01*
X0176685Y0075985D02*
X0173585Y0075985D01*
X0167585Y0075985D02*
X0165985Y0075985D01*
X0165985Y0163885D02*
X0172185Y0163885D01*
X0165985Y0163885D02*
X0165985Y0179485D01*
X0167585Y0179485D01*
X0173585Y0179485D02*
X0176685Y0179485D01*
X0182685Y0179485D02*
X0185785Y0179485D01*
X0191785Y0179485D02*
X0193385Y0179485D01*
X0193385Y0163885D01*
X0187185Y0163885D01*
X0161985Y0186085D02*
X0161983Y0186041D01*
X0161977Y0185998D01*
X0161968Y0185956D01*
X0161955Y0185914D01*
X0161938Y0185874D01*
X0161918Y0185835D01*
X0161895Y0185798D01*
X0161868Y0185764D01*
X0161839Y0185731D01*
X0161806Y0185702D01*
X0161772Y0185675D01*
X0161735Y0185652D01*
X0161696Y0185632D01*
X0161656Y0185615D01*
X0161614Y0185602D01*
X0161572Y0185593D01*
X0161529Y0185587D01*
X0161485Y0185585D01*
X0161441Y0185587D01*
X0161398Y0185593D01*
X0161356Y0185602D01*
X0161314Y0185615D01*
X0161274Y0185632D01*
X0161235Y0185652D01*
X0161198Y0185675D01*
X0161164Y0185702D01*
X0161131Y0185731D01*
X0161102Y0185764D01*
X0161075Y0185798D01*
X0161052Y0185835D01*
X0161032Y0185874D01*
X0161015Y0185914D01*
X0161002Y0185956D01*
X0160993Y0185998D01*
X0160987Y0186041D01*
X0160985Y0186085D01*
X0160987Y0186129D01*
X0160993Y0186172D01*
X0161002Y0186214D01*
X0161015Y0186256D01*
X0161032Y0186296D01*
X0161052Y0186335D01*
X0161075Y0186372D01*
X0161102Y0186406D01*
X0161131Y0186439D01*
X0161164Y0186468D01*
X0161198Y0186495D01*
X0161235Y0186518D01*
X0161274Y0186538D01*
X0161314Y0186555D01*
X0161356Y0186568D01*
X0161398Y0186577D01*
X0161441Y0186583D01*
X0161485Y0186585D01*
X0161529Y0186583D01*
X0161572Y0186577D01*
X0161614Y0186568D01*
X0161656Y0186555D01*
X0161696Y0186538D01*
X0161735Y0186518D01*
X0161772Y0186495D01*
X0161806Y0186468D01*
X0161839Y0186439D01*
X0161868Y0186406D01*
X0161895Y0186372D01*
X0161918Y0186335D01*
X0161938Y0186296D01*
X0161955Y0186256D01*
X0161968Y0186214D01*
X0161977Y0186172D01*
X0161983Y0186129D01*
X0161985Y0186085D01*
X0091385Y0179485D02*
X0091385Y0163885D01*
X0085185Y0163885D01*
X0070185Y0163885D02*
X0063985Y0163885D01*
X0063985Y0179485D01*
X0065585Y0179485D01*
X0071585Y0179485D02*
X0074685Y0179485D01*
X0080685Y0179485D02*
X0083785Y0179485D01*
X0089785Y0179485D02*
X0091385Y0179485D01*
X0059985Y0186085D02*
X0059983Y0186041D01*
X0059977Y0185998D01*
X0059968Y0185956D01*
X0059955Y0185914D01*
X0059938Y0185874D01*
X0059918Y0185835D01*
X0059895Y0185798D01*
X0059868Y0185764D01*
X0059839Y0185731D01*
X0059806Y0185702D01*
X0059772Y0185675D01*
X0059735Y0185652D01*
X0059696Y0185632D01*
X0059656Y0185615D01*
X0059614Y0185602D01*
X0059572Y0185593D01*
X0059529Y0185587D01*
X0059485Y0185585D01*
X0059441Y0185587D01*
X0059398Y0185593D01*
X0059356Y0185602D01*
X0059314Y0185615D01*
X0059274Y0185632D01*
X0059235Y0185652D01*
X0059198Y0185675D01*
X0059164Y0185702D01*
X0059131Y0185731D01*
X0059102Y0185764D01*
X0059075Y0185798D01*
X0059052Y0185835D01*
X0059032Y0185874D01*
X0059015Y0185914D01*
X0059002Y0185956D01*
X0058993Y0185998D01*
X0058987Y0186041D01*
X0058985Y0186085D01*
X0058987Y0186129D01*
X0058993Y0186172D01*
X0059002Y0186214D01*
X0059015Y0186256D01*
X0059032Y0186296D01*
X0059052Y0186335D01*
X0059075Y0186372D01*
X0059102Y0186406D01*
X0059131Y0186439D01*
X0059164Y0186468D01*
X0059198Y0186495D01*
X0059235Y0186518D01*
X0059274Y0186538D01*
X0059314Y0186555D01*
X0059356Y0186568D01*
X0059398Y0186577D01*
X0059441Y0186583D01*
X0059485Y0186585D01*
X0059529Y0186583D01*
X0059572Y0186577D01*
X0059614Y0186568D01*
X0059656Y0186555D01*
X0059696Y0186538D01*
X0059735Y0186518D01*
X0059772Y0186495D01*
X0059806Y0186468D01*
X0059839Y0186439D01*
X0059868Y0186406D01*
X0059895Y0186372D01*
X0059918Y0186335D01*
X0059938Y0186296D01*
X0059955Y0186256D01*
X0059968Y0186214D01*
X0059977Y0186172D01*
X0059983Y0186129D01*
X0059985Y0186085D01*
X0063985Y0267385D02*
X0070185Y0267385D01*
X0063985Y0267385D02*
X0063985Y0282985D01*
X0065585Y0282985D01*
X0071585Y0282985D02*
X0074685Y0282985D01*
X0080685Y0282985D02*
X0083785Y0282985D01*
X0089785Y0282985D02*
X0091385Y0282985D01*
X0091385Y0267385D01*
X0085185Y0267385D01*
X0059985Y0289585D02*
X0059983Y0289541D01*
X0059977Y0289498D01*
X0059968Y0289456D01*
X0059955Y0289414D01*
X0059938Y0289374D01*
X0059918Y0289335D01*
X0059895Y0289298D01*
X0059868Y0289264D01*
X0059839Y0289231D01*
X0059806Y0289202D01*
X0059772Y0289175D01*
X0059735Y0289152D01*
X0059696Y0289132D01*
X0059656Y0289115D01*
X0059614Y0289102D01*
X0059572Y0289093D01*
X0059529Y0289087D01*
X0059485Y0289085D01*
X0059441Y0289087D01*
X0059398Y0289093D01*
X0059356Y0289102D01*
X0059314Y0289115D01*
X0059274Y0289132D01*
X0059235Y0289152D01*
X0059198Y0289175D01*
X0059164Y0289202D01*
X0059131Y0289231D01*
X0059102Y0289264D01*
X0059075Y0289298D01*
X0059052Y0289335D01*
X0059032Y0289374D01*
X0059015Y0289414D01*
X0059002Y0289456D01*
X0058993Y0289498D01*
X0058987Y0289541D01*
X0058985Y0289585D01*
X0058987Y0289629D01*
X0058993Y0289672D01*
X0059002Y0289714D01*
X0059015Y0289756D01*
X0059032Y0289796D01*
X0059052Y0289835D01*
X0059075Y0289872D01*
X0059102Y0289906D01*
X0059131Y0289939D01*
X0059164Y0289968D01*
X0059198Y0289995D01*
X0059235Y0290018D01*
X0059274Y0290038D01*
X0059314Y0290055D01*
X0059356Y0290068D01*
X0059398Y0290077D01*
X0059441Y0290083D01*
X0059485Y0290085D01*
X0059529Y0290083D01*
X0059572Y0290077D01*
X0059614Y0290068D01*
X0059656Y0290055D01*
X0059696Y0290038D01*
X0059735Y0290018D01*
X0059772Y0289995D01*
X0059806Y0289968D01*
X0059839Y0289939D01*
X0059868Y0289906D01*
X0059895Y0289872D01*
X0059918Y0289835D01*
X0059938Y0289796D01*
X0059955Y0289756D01*
X0059968Y0289714D01*
X0059977Y0289672D01*
X0059983Y0289629D01*
X0059985Y0289585D01*
X0160985Y0289585D02*
X0160987Y0289541D01*
X0160993Y0289498D01*
X0161002Y0289456D01*
X0161015Y0289414D01*
X0161032Y0289374D01*
X0161052Y0289335D01*
X0161075Y0289298D01*
X0161102Y0289264D01*
X0161131Y0289231D01*
X0161164Y0289202D01*
X0161198Y0289175D01*
X0161235Y0289152D01*
X0161274Y0289132D01*
X0161314Y0289115D01*
X0161356Y0289102D01*
X0161398Y0289093D01*
X0161441Y0289087D01*
X0161485Y0289085D01*
X0161529Y0289087D01*
X0161572Y0289093D01*
X0161614Y0289102D01*
X0161656Y0289115D01*
X0161696Y0289132D01*
X0161735Y0289152D01*
X0161772Y0289175D01*
X0161806Y0289202D01*
X0161839Y0289231D01*
X0161868Y0289264D01*
X0161895Y0289298D01*
X0161918Y0289335D01*
X0161938Y0289374D01*
X0161955Y0289414D01*
X0161968Y0289456D01*
X0161977Y0289498D01*
X0161983Y0289541D01*
X0161985Y0289585D01*
X0161983Y0289629D01*
X0161977Y0289672D01*
X0161968Y0289714D01*
X0161955Y0289756D01*
X0161938Y0289796D01*
X0161918Y0289835D01*
X0161895Y0289872D01*
X0161868Y0289906D01*
X0161839Y0289939D01*
X0161806Y0289968D01*
X0161772Y0289995D01*
X0161735Y0290018D01*
X0161696Y0290038D01*
X0161656Y0290055D01*
X0161614Y0290068D01*
X0161572Y0290077D01*
X0161529Y0290083D01*
X0161485Y0290085D01*
X0161441Y0290083D01*
X0161398Y0290077D01*
X0161356Y0290068D01*
X0161314Y0290055D01*
X0161274Y0290038D01*
X0161235Y0290018D01*
X0161198Y0289995D01*
X0161164Y0289968D01*
X0161131Y0289939D01*
X0161102Y0289906D01*
X0161075Y0289872D01*
X0161052Y0289835D01*
X0161032Y0289796D01*
X0161015Y0289756D01*
X0161002Y0289714D01*
X0160993Y0289672D01*
X0160987Y0289629D01*
X0160985Y0289585D01*
X0165985Y0282985D02*
X0165985Y0267385D01*
X0172185Y0267385D01*
X0187185Y0267385D02*
X0193385Y0267385D01*
X0193385Y0282985D01*
X0191785Y0282985D01*
X0185785Y0282985D02*
X0182685Y0282985D01*
X0176685Y0282985D02*
X0173585Y0282985D01*
X0167585Y0282985D02*
X0165985Y0282985D01*
X0262985Y0289585D02*
X0262987Y0289541D01*
X0262993Y0289498D01*
X0263002Y0289456D01*
X0263015Y0289414D01*
X0263032Y0289374D01*
X0263052Y0289335D01*
X0263075Y0289298D01*
X0263102Y0289264D01*
X0263131Y0289231D01*
X0263164Y0289202D01*
X0263198Y0289175D01*
X0263235Y0289152D01*
X0263274Y0289132D01*
X0263314Y0289115D01*
X0263356Y0289102D01*
X0263398Y0289093D01*
X0263441Y0289087D01*
X0263485Y0289085D01*
X0263529Y0289087D01*
X0263572Y0289093D01*
X0263614Y0289102D01*
X0263656Y0289115D01*
X0263696Y0289132D01*
X0263735Y0289152D01*
X0263772Y0289175D01*
X0263806Y0289202D01*
X0263839Y0289231D01*
X0263868Y0289264D01*
X0263895Y0289298D01*
X0263918Y0289335D01*
X0263938Y0289374D01*
X0263955Y0289414D01*
X0263968Y0289456D01*
X0263977Y0289498D01*
X0263983Y0289541D01*
X0263985Y0289585D01*
X0263983Y0289629D01*
X0263977Y0289672D01*
X0263968Y0289714D01*
X0263955Y0289756D01*
X0263938Y0289796D01*
X0263918Y0289835D01*
X0263895Y0289872D01*
X0263868Y0289906D01*
X0263839Y0289939D01*
X0263806Y0289968D01*
X0263772Y0289995D01*
X0263735Y0290018D01*
X0263696Y0290038D01*
X0263656Y0290055D01*
X0263614Y0290068D01*
X0263572Y0290077D01*
X0263529Y0290083D01*
X0263485Y0290085D01*
X0263441Y0290083D01*
X0263398Y0290077D01*
X0263356Y0290068D01*
X0263314Y0290055D01*
X0263274Y0290038D01*
X0263235Y0290018D01*
X0263198Y0289995D01*
X0263164Y0289968D01*
X0263131Y0289939D01*
X0263102Y0289906D01*
X0263075Y0289872D01*
X0263052Y0289835D01*
X0263032Y0289796D01*
X0263015Y0289756D01*
X0263002Y0289714D01*
X0262993Y0289672D01*
X0262987Y0289629D01*
X0262985Y0289585D01*
X0267985Y0282985D02*
X0267985Y0267385D01*
X0274185Y0267385D01*
X0289185Y0267385D02*
X0295385Y0267385D01*
X0295385Y0282985D01*
X0293785Y0282985D01*
X0287785Y0282985D02*
X0284685Y0282985D01*
X0278685Y0282985D02*
X0275585Y0282985D01*
X0269585Y0282985D02*
X0267985Y0282985D01*
X0263985Y0186085D02*
X0263983Y0186041D01*
X0263977Y0185998D01*
X0263968Y0185956D01*
X0263955Y0185914D01*
X0263938Y0185874D01*
X0263918Y0185835D01*
X0263895Y0185798D01*
X0263868Y0185764D01*
X0263839Y0185731D01*
X0263806Y0185702D01*
X0263772Y0185675D01*
X0263735Y0185652D01*
X0263696Y0185632D01*
X0263656Y0185615D01*
X0263614Y0185602D01*
X0263572Y0185593D01*
X0263529Y0185587D01*
X0263485Y0185585D01*
X0263441Y0185587D01*
X0263398Y0185593D01*
X0263356Y0185602D01*
X0263314Y0185615D01*
X0263274Y0185632D01*
X0263235Y0185652D01*
X0263198Y0185675D01*
X0263164Y0185702D01*
X0263131Y0185731D01*
X0263102Y0185764D01*
X0263075Y0185798D01*
X0263052Y0185835D01*
X0263032Y0185874D01*
X0263015Y0185914D01*
X0263002Y0185956D01*
X0262993Y0185998D01*
X0262987Y0186041D01*
X0262985Y0186085D01*
X0262987Y0186129D01*
X0262993Y0186172D01*
X0263002Y0186214D01*
X0263015Y0186256D01*
X0263032Y0186296D01*
X0263052Y0186335D01*
X0263075Y0186372D01*
X0263102Y0186406D01*
X0263131Y0186439D01*
X0263164Y0186468D01*
X0263198Y0186495D01*
X0263235Y0186518D01*
X0263274Y0186538D01*
X0263314Y0186555D01*
X0263356Y0186568D01*
X0263398Y0186577D01*
X0263441Y0186583D01*
X0263485Y0186585D01*
X0263529Y0186583D01*
X0263572Y0186577D01*
X0263614Y0186568D01*
X0263656Y0186555D01*
X0263696Y0186538D01*
X0263735Y0186518D01*
X0263772Y0186495D01*
X0263806Y0186468D01*
X0263839Y0186439D01*
X0263868Y0186406D01*
X0263895Y0186372D01*
X0263918Y0186335D01*
X0263938Y0186296D01*
X0263955Y0186256D01*
X0263968Y0186214D01*
X0263977Y0186172D01*
X0263983Y0186129D01*
X0263985Y0186085D01*
X0267985Y0179485D02*
X0267985Y0163885D01*
X0274185Y0163885D01*
X0275585Y0179485D02*
X0278685Y0179485D01*
X0284685Y0179485D02*
X0287785Y0179485D01*
X0293785Y0179485D02*
X0295385Y0179485D01*
X0295385Y0163885D01*
X0289185Y0163885D01*
X0269585Y0179485D02*
X0267985Y0179485D01*
X0263985Y0082585D02*
X0263983Y0082541D01*
X0263977Y0082498D01*
X0263968Y0082456D01*
X0263955Y0082414D01*
X0263938Y0082374D01*
X0263918Y0082335D01*
X0263895Y0082298D01*
X0263868Y0082264D01*
X0263839Y0082231D01*
X0263806Y0082202D01*
X0263772Y0082175D01*
X0263735Y0082152D01*
X0263696Y0082132D01*
X0263656Y0082115D01*
X0263614Y0082102D01*
X0263572Y0082093D01*
X0263529Y0082087D01*
X0263485Y0082085D01*
X0263441Y0082087D01*
X0263398Y0082093D01*
X0263356Y0082102D01*
X0263314Y0082115D01*
X0263274Y0082132D01*
X0263235Y0082152D01*
X0263198Y0082175D01*
X0263164Y0082202D01*
X0263131Y0082231D01*
X0263102Y0082264D01*
X0263075Y0082298D01*
X0263052Y0082335D01*
X0263032Y0082374D01*
X0263015Y0082414D01*
X0263002Y0082456D01*
X0262993Y0082498D01*
X0262987Y0082541D01*
X0262985Y0082585D01*
X0262987Y0082629D01*
X0262993Y0082672D01*
X0263002Y0082714D01*
X0263015Y0082756D01*
X0263032Y0082796D01*
X0263052Y0082835D01*
X0263075Y0082872D01*
X0263102Y0082906D01*
X0263131Y0082939D01*
X0263164Y0082968D01*
X0263198Y0082995D01*
X0263235Y0083018D01*
X0263274Y0083038D01*
X0263314Y0083055D01*
X0263356Y0083068D01*
X0263398Y0083077D01*
X0263441Y0083083D01*
X0263485Y0083085D01*
X0263529Y0083083D01*
X0263572Y0083077D01*
X0263614Y0083068D01*
X0263656Y0083055D01*
X0263696Y0083038D01*
X0263735Y0083018D01*
X0263772Y0082995D01*
X0263806Y0082968D01*
X0263839Y0082939D01*
X0263868Y0082906D01*
X0263895Y0082872D01*
X0263918Y0082835D01*
X0263938Y0082796D01*
X0263955Y0082756D01*
X0263968Y0082714D01*
X0263977Y0082672D01*
X0263983Y0082629D01*
X0263985Y0082585D01*
X0267985Y0075985D02*
X0267985Y0060385D01*
X0274185Y0060385D01*
X0289185Y0060385D02*
X0295385Y0060385D01*
X0295385Y0075985D01*
X0293785Y0075985D01*
X0287785Y0075985D02*
X0284685Y0075985D01*
X0278685Y0075985D02*
X0275585Y0075985D01*
X0269585Y0075985D02*
X0267985Y0075985D01*
M02*
