G04 EAGLE Gerber X2 export*
%TF.Part,Single*%
%TF.FileFunction,Legend,Top,1*%
%TF.FilePolarity,Positive*%
%TF.GenerationSoftware,Autodesk,EAGLE,8.7.1*%
%TF.CreationDate,2018-09-06T08:27:59Z*%
G75*
%MOMM*%
%FSLAX34Y34*%
%LPD*%
%AMOC8*
5,1,8,0,0,1.08239X$1,22.5*%
G01*
%ADD10C,0.254000*%
%ADD11C,0.101600*%
%ADD12C,0.127000*%
%ADD13C,1.219200*%


D10*
X30480Y96802D02*
X34431Y96802D01*
X34555Y96800D01*
X34679Y96794D01*
X34803Y96784D01*
X34926Y96771D01*
X35049Y96753D01*
X35171Y96732D01*
X35293Y96707D01*
X35414Y96678D01*
X35533Y96645D01*
X35652Y96609D01*
X35769Y96568D01*
X35885Y96525D01*
X36000Y96477D01*
X36113Y96426D01*
X36225Y96371D01*
X36334Y96313D01*
X36442Y96252D01*
X36548Y96187D01*
X36652Y96119D01*
X36753Y96047D01*
X36853Y95973D01*
X36949Y95895D01*
X37044Y95815D01*
X37136Y95731D01*
X37225Y95645D01*
X37311Y95556D01*
X37395Y95464D01*
X37475Y95369D01*
X37553Y95273D01*
X37627Y95173D01*
X37699Y95072D01*
X37767Y94968D01*
X37832Y94862D01*
X37893Y94754D01*
X37951Y94645D01*
X38006Y94533D01*
X38057Y94420D01*
X38105Y94305D01*
X38148Y94189D01*
X38189Y94072D01*
X38225Y93953D01*
X38258Y93834D01*
X38287Y93713D01*
X38312Y93591D01*
X38333Y93469D01*
X38351Y93346D01*
X38364Y93223D01*
X38374Y93099D01*
X38380Y92975D01*
X38382Y92851D01*
X38380Y92727D01*
X38374Y92603D01*
X38364Y92479D01*
X38351Y92356D01*
X38333Y92233D01*
X38312Y92111D01*
X38287Y91989D01*
X38258Y91868D01*
X38225Y91749D01*
X38189Y91630D01*
X38148Y91513D01*
X38105Y91397D01*
X38057Y91282D01*
X38006Y91169D01*
X37951Y91057D01*
X37893Y90948D01*
X37832Y90840D01*
X37767Y90734D01*
X37699Y90630D01*
X37627Y90529D01*
X37553Y90429D01*
X37475Y90333D01*
X37395Y90238D01*
X37311Y90146D01*
X37225Y90057D01*
X37136Y89971D01*
X37044Y89887D01*
X36949Y89807D01*
X36853Y89729D01*
X36753Y89655D01*
X36652Y89583D01*
X36548Y89515D01*
X36442Y89450D01*
X36334Y89389D01*
X36225Y89331D01*
X36113Y89276D01*
X36000Y89225D01*
X35885Y89177D01*
X35769Y89134D01*
X35652Y89093D01*
X35533Y89057D01*
X35414Y89024D01*
X35293Y88995D01*
X35171Y88970D01*
X35049Y88949D01*
X34926Y88931D01*
X34803Y88918D01*
X34679Y88908D01*
X34555Y88902D01*
X34431Y88900D01*
X30480Y88900D01*
X30480Y103124D01*
X34431Y103124D01*
X34543Y103122D01*
X34654Y103116D01*
X34765Y103106D01*
X34876Y103093D01*
X34986Y103075D01*
X35095Y103053D01*
X35204Y103028D01*
X35312Y102999D01*
X35418Y102966D01*
X35524Y102929D01*
X35628Y102889D01*
X35730Y102845D01*
X35831Y102797D01*
X35930Y102746D01*
X36028Y102691D01*
X36123Y102633D01*
X36216Y102572D01*
X36307Y102507D01*
X36396Y102439D01*
X36482Y102368D01*
X36565Y102295D01*
X36646Y102218D01*
X36725Y102138D01*
X36800Y102056D01*
X36872Y101971D01*
X36942Y101884D01*
X37008Y101794D01*
X37071Y101702D01*
X37131Y101607D01*
X37187Y101511D01*
X37240Y101413D01*
X37289Y101313D01*
X37335Y101211D01*
X37377Y101108D01*
X37416Y101003D01*
X37451Y100897D01*
X37482Y100790D01*
X37509Y100682D01*
X37533Y100573D01*
X37552Y100463D01*
X37568Y100353D01*
X37580Y100242D01*
X37588Y100130D01*
X37592Y100019D01*
X37592Y99907D01*
X37588Y99796D01*
X37580Y99684D01*
X37568Y99573D01*
X37552Y99463D01*
X37533Y99353D01*
X37509Y99244D01*
X37482Y99136D01*
X37451Y99029D01*
X37416Y98923D01*
X37377Y98818D01*
X37335Y98715D01*
X37289Y98613D01*
X37240Y98513D01*
X37187Y98415D01*
X37131Y98319D01*
X37071Y98224D01*
X37008Y98132D01*
X36942Y98042D01*
X36872Y97955D01*
X36800Y97870D01*
X36725Y97788D01*
X36646Y97708D01*
X36565Y97631D01*
X36482Y97558D01*
X36396Y97487D01*
X36307Y97419D01*
X36216Y97354D01*
X36123Y97293D01*
X36028Y97235D01*
X35930Y97180D01*
X35831Y97129D01*
X35730Y97081D01*
X35628Y97037D01*
X35524Y96997D01*
X35418Y96960D01*
X35312Y96927D01*
X35204Y96898D01*
X35095Y96873D01*
X34986Y96851D01*
X34876Y96833D01*
X34765Y96820D01*
X34654Y96810D01*
X34543Y96804D01*
X34431Y96802D01*
X44962Y98383D02*
X44962Y88900D01*
X44962Y98383D02*
X49704Y98383D01*
X49704Y96802D01*
X57412Y94432D02*
X60968Y94432D01*
X57412Y94432D02*
X57309Y94430D01*
X57205Y94424D01*
X57102Y94415D01*
X57000Y94401D01*
X56898Y94384D01*
X56797Y94363D01*
X56696Y94338D01*
X56597Y94309D01*
X56498Y94277D01*
X56401Y94241D01*
X56306Y94201D01*
X56212Y94158D01*
X56120Y94111D01*
X56029Y94061D01*
X55940Y94008D01*
X55854Y93951D01*
X55769Y93892D01*
X55687Y93829D01*
X55608Y93763D01*
X55531Y93694D01*
X55456Y93622D01*
X55384Y93547D01*
X55315Y93470D01*
X55249Y93391D01*
X55186Y93309D01*
X55127Y93224D01*
X55070Y93138D01*
X55017Y93049D01*
X54967Y92958D01*
X54920Y92866D01*
X54877Y92772D01*
X54837Y92677D01*
X54801Y92580D01*
X54769Y92481D01*
X54740Y92382D01*
X54715Y92281D01*
X54694Y92180D01*
X54677Y92078D01*
X54663Y91976D01*
X54654Y91873D01*
X54648Y91769D01*
X54646Y91666D01*
X54648Y91563D01*
X54654Y91459D01*
X54663Y91356D01*
X54677Y91254D01*
X54694Y91152D01*
X54715Y91051D01*
X54740Y90950D01*
X54769Y90851D01*
X54801Y90752D01*
X54837Y90655D01*
X54877Y90560D01*
X54920Y90466D01*
X54967Y90374D01*
X55017Y90283D01*
X55070Y90194D01*
X55127Y90108D01*
X55186Y90023D01*
X55249Y89941D01*
X55315Y89862D01*
X55384Y89785D01*
X55456Y89710D01*
X55531Y89638D01*
X55608Y89569D01*
X55687Y89503D01*
X55769Y89440D01*
X55854Y89381D01*
X55940Y89324D01*
X56029Y89271D01*
X56120Y89221D01*
X56212Y89174D01*
X56306Y89131D01*
X56401Y89091D01*
X56498Y89055D01*
X56597Y89023D01*
X56696Y88994D01*
X56797Y88969D01*
X56898Y88948D01*
X57000Y88931D01*
X57102Y88917D01*
X57205Y88908D01*
X57309Y88902D01*
X57412Y88900D01*
X60968Y88900D01*
X60968Y96012D01*
X60969Y96012D02*
X60967Y96107D01*
X60961Y96203D01*
X60952Y96298D01*
X60938Y96392D01*
X60921Y96486D01*
X60900Y96579D01*
X60875Y96672D01*
X60847Y96763D01*
X60815Y96853D01*
X60779Y96941D01*
X60740Y97028D01*
X60697Y97114D01*
X60651Y97198D01*
X60602Y97279D01*
X60549Y97359D01*
X60493Y97436D01*
X60435Y97512D01*
X60373Y97584D01*
X60308Y97654D01*
X60240Y97722D01*
X60170Y97787D01*
X60098Y97849D01*
X60022Y97907D01*
X59945Y97963D01*
X59865Y98016D01*
X59784Y98065D01*
X59700Y98111D01*
X59614Y98154D01*
X59527Y98193D01*
X59439Y98229D01*
X59349Y98261D01*
X59258Y98289D01*
X59165Y98314D01*
X59072Y98335D01*
X58978Y98352D01*
X58884Y98366D01*
X58789Y98375D01*
X58693Y98381D01*
X58598Y98383D01*
X55437Y98383D01*
X67823Y98383D02*
X67823Y88900D01*
X67428Y102334D02*
X67428Y103124D01*
X68218Y103124D01*
X68218Y102334D01*
X67428Y102334D01*
X74573Y98383D02*
X74573Y88900D01*
X74573Y98383D02*
X78524Y98383D01*
X78619Y98381D01*
X78715Y98375D01*
X78810Y98366D01*
X78904Y98352D01*
X78998Y98335D01*
X79091Y98314D01*
X79184Y98289D01*
X79275Y98261D01*
X79365Y98229D01*
X79453Y98193D01*
X79540Y98154D01*
X79626Y98111D01*
X79710Y98065D01*
X79791Y98016D01*
X79871Y97963D01*
X79948Y97907D01*
X80024Y97849D01*
X80096Y97787D01*
X80166Y97722D01*
X80234Y97654D01*
X80299Y97584D01*
X80361Y97512D01*
X80419Y97436D01*
X80475Y97359D01*
X80528Y97279D01*
X80577Y97198D01*
X80623Y97114D01*
X80666Y97028D01*
X80705Y96941D01*
X80741Y96853D01*
X80773Y96763D01*
X80801Y96672D01*
X80826Y96579D01*
X80847Y96486D01*
X80864Y96392D01*
X80878Y96298D01*
X80887Y96203D01*
X80893Y96107D01*
X80895Y96012D01*
X80895Y88900D01*
X88952Y88900D02*
X88952Y103124D01*
X92903Y103124D01*
X93027Y103122D01*
X93151Y103116D01*
X93275Y103106D01*
X93398Y103093D01*
X93521Y103075D01*
X93643Y103054D01*
X93765Y103029D01*
X93886Y103000D01*
X94005Y102967D01*
X94124Y102931D01*
X94241Y102890D01*
X94357Y102847D01*
X94472Y102799D01*
X94585Y102748D01*
X94697Y102693D01*
X94806Y102635D01*
X94914Y102574D01*
X95020Y102509D01*
X95124Y102441D01*
X95225Y102369D01*
X95325Y102295D01*
X95421Y102217D01*
X95516Y102137D01*
X95608Y102053D01*
X95697Y101967D01*
X95783Y101878D01*
X95867Y101786D01*
X95947Y101691D01*
X96025Y101595D01*
X96099Y101495D01*
X96171Y101394D01*
X96239Y101290D01*
X96304Y101184D01*
X96365Y101076D01*
X96423Y100967D01*
X96478Y100855D01*
X96529Y100742D01*
X96577Y100627D01*
X96620Y100511D01*
X96661Y100394D01*
X96697Y100275D01*
X96730Y100156D01*
X96759Y100035D01*
X96784Y99913D01*
X96805Y99791D01*
X96823Y99668D01*
X96836Y99545D01*
X96846Y99421D01*
X96852Y99297D01*
X96854Y99173D01*
X96852Y99049D01*
X96846Y98925D01*
X96836Y98801D01*
X96823Y98678D01*
X96805Y98555D01*
X96784Y98433D01*
X96759Y98311D01*
X96730Y98190D01*
X96697Y98071D01*
X96661Y97952D01*
X96620Y97835D01*
X96577Y97719D01*
X96529Y97604D01*
X96478Y97491D01*
X96423Y97379D01*
X96365Y97270D01*
X96304Y97162D01*
X96239Y97056D01*
X96171Y96952D01*
X96099Y96851D01*
X96025Y96751D01*
X95947Y96655D01*
X95867Y96560D01*
X95783Y96468D01*
X95697Y96379D01*
X95608Y96293D01*
X95516Y96209D01*
X95421Y96129D01*
X95325Y96051D01*
X95225Y95977D01*
X95124Y95905D01*
X95020Y95837D01*
X94914Y95772D01*
X94806Y95711D01*
X94697Y95653D01*
X94585Y95598D01*
X94472Y95547D01*
X94357Y95499D01*
X94241Y95456D01*
X94124Y95415D01*
X94005Y95379D01*
X93886Y95346D01*
X93765Y95317D01*
X93643Y95292D01*
X93521Y95271D01*
X93398Y95253D01*
X93275Y95240D01*
X93151Y95230D01*
X93027Y95224D01*
X92903Y95222D01*
X88952Y95222D01*
X105478Y94432D02*
X109034Y94432D01*
X105478Y94432D02*
X105375Y94430D01*
X105271Y94424D01*
X105168Y94415D01*
X105066Y94401D01*
X104964Y94384D01*
X104863Y94363D01*
X104762Y94338D01*
X104663Y94309D01*
X104564Y94277D01*
X104467Y94241D01*
X104372Y94201D01*
X104278Y94158D01*
X104186Y94111D01*
X104095Y94061D01*
X104006Y94008D01*
X103920Y93951D01*
X103835Y93892D01*
X103753Y93829D01*
X103674Y93763D01*
X103597Y93694D01*
X103522Y93622D01*
X103450Y93547D01*
X103381Y93470D01*
X103315Y93391D01*
X103252Y93309D01*
X103193Y93224D01*
X103136Y93138D01*
X103083Y93049D01*
X103033Y92958D01*
X102986Y92866D01*
X102943Y92772D01*
X102903Y92677D01*
X102867Y92580D01*
X102835Y92481D01*
X102806Y92382D01*
X102781Y92281D01*
X102760Y92180D01*
X102743Y92078D01*
X102729Y91976D01*
X102720Y91873D01*
X102714Y91769D01*
X102712Y91666D01*
X102714Y91563D01*
X102720Y91459D01*
X102729Y91356D01*
X102743Y91254D01*
X102760Y91152D01*
X102781Y91051D01*
X102806Y90950D01*
X102835Y90851D01*
X102867Y90752D01*
X102903Y90655D01*
X102943Y90560D01*
X102986Y90466D01*
X103033Y90374D01*
X103083Y90283D01*
X103136Y90194D01*
X103193Y90108D01*
X103252Y90023D01*
X103315Y89941D01*
X103381Y89862D01*
X103450Y89785D01*
X103522Y89710D01*
X103597Y89638D01*
X103674Y89569D01*
X103753Y89503D01*
X103835Y89440D01*
X103920Y89381D01*
X104006Y89324D01*
X104095Y89271D01*
X104186Y89221D01*
X104278Y89174D01*
X104372Y89131D01*
X104467Y89091D01*
X104564Y89055D01*
X104663Y89023D01*
X104762Y88994D01*
X104863Y88969D01*
X104964Y88948D01*
X105066Y88931D01*
X105168Y88917D01*
X105271Y88908D01*
X105375Y88902D01*
X105478Y88900D01*
X109034Y88900D01*
X109034Y96012D01*
X109035Y96012D02*
X109033Y96107D01*
X109027Y96203D01*
X109018Y96298D01*
X109004Y96392D01*
X108987Y96486D01*
X108966Y96579D01*
X108941Y96672D01*
X108913Y96763D01*
X108881Y96853D01*
X108845Y96941D01*
X108806Y97028D01*
X108763Y97114D01*
X108717Y97198D01*
X108668Y97279D01*
X108615Y97359D01*
X108559Y97436D01*
X108501Y97512D01*
X108439Y97584D01*
X108374Y97654D01*
X108306Y97722D01*
X108236Y97787D01*
X108164Y97849D01*
X108088Y97907D01*
X108011Y97963D01*
X107931Y98016D01*
X107850Y98065D01*
X107766Y98111D01*
X107680Y98154D01*
X107593Y98193D01*
X107505Y98229D01*
X107415Y98261D01*
X107324Y98289D01*
X107231Y98314D01*
X107138Y98335D01*
X107044Y98352D01*
X106950Y98366D01*
X106855Y98375D01*
X106759Y98381D01*
X106664Y98383D01*
X103503Y98383D01*
X122414Y103124D02*
X122414Y88900D01*
X118462Y88900D01*
X118367Y88902D01*
X118271Y88908D01*
X118176Y88917D01*
X118082Y88931D01*
X117988Y88948D01*
X117895Y88969D01*
X117802Y88994D01*
X117711Y89022D01*
X117621Y89054D01*
X117533Y89090D01*
X117446Y89129D01*
X117360Y89172D01*
X117276Y89218D01*
X117195Y89267D01*
X117115Y89320D01*
X117038Y89376D01*
X116962Y89434D01*
X116890Y89496D01*
X116820Y89561D01*
X116752Y89629D01*
X116687Y89699D01*
X116625Y89771D01*
X116567Y89847D01*
X116511Y89924D01*
X116458Y90004D01*
X116409Y90086D01*
X116363Y90169D01*
X116320Y90255D01*
X116281Y90342D01*
X116245Y90430D01*
X116213Y90520D01*
X116185Y90611D01*
X116160Y90704D01*
X116139Y90797D01*
X116122Y90891D01*
X116108Y90985D01*
X116099Y91080D01*
X116093Y91176D01*
X116091Y91271D01*
X116092Y91271D02*
X116092Y96012D01*
X116091Y96012D02*
X116093Y96107D01*
X116099Y96203D01*
X116108Y96298D01*
X116122Y96392D01*
X116139Y96486D01*
X116160Y96579D01*
X116185Y96672D01*
X116213Y96763D01*
X116245Y96853D01*
X116281Y96941D01*
X116320Y97028D01*
X116363Y97114D01*
X116409Y97198D01*
X116458Y97279D01*
X116511Y97359D01*
X116567Y97436D01*
X116625Y97512D01*
X116687Y97584D01*
X116752Y97654D01*
X116820Y97722D01*
X116890Y97787D01*
X116962Y97849D01*
X117038Y97907D01*
X117115Y97963D01*
X117195Y98016D01*
X117277Y98065D01*
X117360Y98111D01*
X117446Y98154D01*
X117533Y98193D01*
X117621Y98229D01*
X117711Y98261D01*
X117802Y98289D01*
X117895Y98314D01*
X117988Y98335D01*
X118082Y98352D01*
X118176Y98366D01*
X118271Y98375D01*
X118367Y98381D01*
X118462Y98383D01*
X122414Y98383D01*
X129389Y103124D02*
X132550Y88900D01*
X135710Y98383D01*
X138871Y88900D01*
X142032Y103124D01*
X148099Y98383D02*
X148099Y88900D01*
X147704Y102334D02*
X147704Y103124D01*
X148494Y103124D01*
X148494Y102334D01*
X147704Y102334D01*
X155091Y103124D02*
X155091Y88900D01*
X155091Y103124D02*
X161413Y103124D01*
X161413Y96802D02*
X155091Y96802D01*
X166929Y98383D02*
X166929Y88900D01*
X166534Y102334D02*
X166534Y103124D01*
X167324Y103124D01*
X167324Y102334D01*
X166534Y102334D01*
X181312Y99963D02*
X185263Y103124D01*
X185263Y88900D01*
X181312Y88900D02*
X189214Y88900D01*
X195274Y88900D02*
X195274Y89690D01*
X196064Y89690D01*
X196064Y88900D01*
X195274Y88900D01*
X202124Y96012D02*
X202127Y96292D01*
X202137Y96571D01*
X202154Y96851D01*
X202177Y97130D01*
X202207Y97408D01*
X202244Y97685D01*
X202287Y97962D01*
X202337Y98237D01*
X202394Y98511D01*
X202456Y98784D01*
X202526Y99055D01*
X202602Y99324D01*
X202684Y99592D01*
X202773Y99857D01*
X202868Y100120D01*
X202969Y100381D01*
X203076Y100640D01*
X203190Y100896D01*
X203309Y101149D01*
X203309Y101148D02*
X203345Y101249D01*
X203386Y101347D01*
X203429Y101445D01*
X203476Y101540D01*
X203527Y101634D01*
X203581Y101726D01*
X203638Y101816D01*
X203699Y101904D01*
X203763Y101990D01*
X203829Y102073D01*
X203899Y102153D01*
X203972Y102232D01*
X204048Y102307D01*
X204126Y102379D01*
X204207Y102449D01*
X204290Y102516D01*
X204375Y102579D01*
X204463Y102640D01*
X204553Y102697D01*
X204646Y102751D01*
X204740Y102801D01*
X204835Y102848D01*
X204933Y102892D01*
X205032Y102932D01*
X205132Y102968D01*
X205234Y103000D01*
X205336Y103029D01*
X205440Y103054D01*
X205545Y103075D01*
X205650Y103093D01*
X205756Y103107D01*
X205862Y103116D01*
X205968Y103122D01*
X206075Y103124D01*
X206182Y103122D01*
X206288Y103116D01*
X206394Y103107D01*
X206500Y103093D01*
X206605Y103075D01*
X206710Y103054D01*
X206814Y103029D01*
X206916Y103000D01*
X207018Y102968D01*
X207118Y102932D01*
X207217Y102892D01*
X207315Y102848D01*
X207410Y102801D01*
X207504Y102751D01*
X207597Y102697D01*
X207687Y102640D01*
X207775Y102579D01*
X207860Y102516D01*
X207943Y102449D01*
X208024Y102379D01*
X208102Y102307D01*
X208178Y102232D01*
X208251Y102153D01*
X208321Y102073D01*
X208387Y101990D01*
X208451Y101904D01*
X208512Y101816D01*
X208569Y101726D01*
X208623Y101634D01*
X208674Y101540D01*
X208721Y101445D01*
X208764Y101347D01*
X208805Y101249D01*
X208841Y101148D01*
X208842Y101149D02*
X208961Y100896D01*
X209075Y100640D01*
X209182Y100381D01*
X209283Y100121D01*
X209378Y99857D01*
X209467Y99592D01*
X209549Y99324D01*
X209625Y99055D01*
X209695Y98784D01*
X209757Y98511D01*
X209814Y98237D01*
X209864Y97962D01*
X209907Y97685D01*
X209944Y97408D01*
X209974Y97130D01*
X209997Y96851D01*
X210014Y96571D01*
X210024Y96292D01*
X210027Y96012D01*
X202124Y96012D02*
X202127Y95732D01*
X202137Y95453D01*
X202154Y95173D01*
X202177Y94894D01*
X202207Y94616D01*
X202244Y94339D01*
X202287Y94062D01*
X202337Y93787D01*
X202394Y93513D01*
X202456Y93240D01*
X202526Y92969D01*
X202602Y92700D01*
X202684Y92432D01*
X202773Y92167D01*
X202868Y91904D01*
X202969Y91643D01*
X203076Y91384D01*
X203190Y91129D01*
X203309Y90876D01*
X203346Y90775D01*
X203386Y90677D01*
X203429Y90579D01*
X203476Y90483D01*
X203527Y90390D01*
X203581Y90298D01*
X203638Y90208D01*
X203699Y90120D01*
X203763Y90034D01*
X203830Y89951D01*
X203899Y89870D01*
X203972Y89792D01*
X204048Y89717D01*
X204126Y89645D01*
X204207Y89575D01*
X204290Y89508D01*
X204375Y89445D01*
X204463Y89384D01*
X204553Y89327D01*
X204646Y89273D01*
X204740Y89223D01*
X204835Y89176D01*
X204933Y89132D01*
X205032Y89092D01*
X205132Y89056D01*
X205234Y89024D01*
X205336Y88995D01*
X205440Y88970D01*
X205545Y88949D01*
X205650Y88931D01*
X205756Y88917D01*
X205862Y88908D01*
X205968Y88902D01*
X206075Y88900D01*
X208842Y90875D02*
X208961Y91128D01*
X209075Y91384D01*
X209182Y91643D01*
X209283Y91903D01*
X209378Y92167D01*
X209467Y92432D01*
X209549Y92700D01*
X209625Y92969D01*
X209695Y93240D01*
X209757Y93513D01*
X209814Y93787D01*
X209864Y94062D01*
X209907Y94339D01*
X209944Y94616D01*
X209974Y94894D01*
X209997Y95173D01*
X210014Y95453D01*
X210024Y95732D01*
X210027Y96012D01*
X208841Y90876D02*
X208805Y90775D01*
X208764Y90677D01*
X208721Y90579D01*
X208674Y90484D01*
X208623Y90390D01*
X208569Y90298D01*
X208512Y90208D01*
X208451Y90120D01*
X208387Y90034D01*
X208321Y89951D01*
X208251Y89871D01*
X208178Y89792D01*
X208102Y89717D01*
X208024Y89645D01*
X207943Y89575D01*
X207860Y89508D01*
X207775Y89445D01*
X207687Y89384D01*
X207597Y89327D01*
X207504Y89273D01*
X207410Y89223D01*
X207315Y89176D01*
X207217Y89132D01*
X207118Y89092D01*
X207018Y89056D01*
X206916Y89024D01*
X206814Y88995D01*
X206710Y88970D01*
X206605Y88949D01*
X206500Y88931D01*
X206394Y88917D01*
X206288Y88908D01*
X206182Y88902D01*
X206075Y88900D01*
X202914Y92061D02*
X209236Y99963D01*
X216990Y99963D02*
X220941Y103124D01*
X220941Y88900D01*
X216990Y88900D02*
X224892Y88900D01*
D11*
X58364Y15748D02*
X56388Y15748D01*
X58364Y15748D02*
X58451Y15750D01*
X58539Y15756D01*
X58626Y15765D01*
X58712Y15779D01*
X58798Y15796D01*
X58882Y15817D01*
X58966Y15842D01*
X59049Y15871D01*
X59130Y15903D01*
X59210Y15938D01*
X59288Y15977D01*
X59365Y16020D01*
X59439Y16066D01*
X59511Y16115D01*
X59581Y16167D01*
X59649Y16223D01*
X59714Y16281D01*
X59777Y16342D01*
X59836Y16406D01*
X59893Y16473D01*
X59947Y16541D01*
X59998Y16613D01*
X60045Y16686D01*
X60090Y16761D01*
X60131Y16839D01*
X60168Y16918D01*
X60202Y16998D01*
X60232Y17080D01*
X60259Y17163D01*
X60282Y17248D01*
X60301Y17333D01*
X60316Y17419D01*
X60328Y17506D01*
X60336Y17593D01*
X60340Y17680D01*
X60340Y17768D01*
X60336Y17855D01*
X60328Y17942D01*
X60316Y18029D01*
X60301Y18115D01*
X60282Y18200D01*
X60259Y18285D01*
X60232Y18368D01*
X60202Y18450D01*
X60168Y18530D01*
X60131Y18609D01*
X60090Y18687D01*
X60045Y18762D01*
X59998Y18835D01*
X59947Y18907D01*
X59893Y18975D01*
X59836Y19042D01*
X59777Y19106D01*
X59714Y19167D01*
X59649Y19225D01*
X59581Y19281D01*
X59511Y19333D01*
X59439Y19382D01*
X59365Y19428D01*
X59288Y19471D01*
X59210Y19510D01*
X59130Y19545D01*
X59049Y19577D01*
X58966Y19606D01*
X58882Y19631D01*
X58798Y19652D01*
X58712Y19669D01*
X58626Y19683D01*
X58539Y19692D01*
X58451Y19698D01*
X58364Y19700D01*
X58759Y22860D02*
X56388Y22860D01*
X58759Y22860D02*
X58838Y22858D01*
X58916Y22852D01*
X58994Y22842D01*
X59072Y22829D01*
X59149Y22811D01*
X59225Y22790D01*
X59299Y22765D01*
X59373Y22736D01*
X59445Y22704D01*
X59515Y22668D01*
X59583Y22628D01*
X59649Y22585D01*
X59713Y22539D01*
X59775Y22490D01*
X59834Y22438D01*
X59890Y22383D01*
X59944Y22325D01*
X59994Y22265D01*
X60042Y22202D01*
X60086Y22137D01*
X60127Y22070D01*
X60165Y22001D01*
X60199Y21930D01*
X60230Y21857D01*
X60257Y21783D01*
X60280Y21708D01*
X60299Y21632D01*
X60315Y21554D01*
X60327Y21476D01*
X60335Y21398D01*
X60339Y21319D01*
X60339Y21241D01*
X60335Y21162D01*
X60327Y21084D01*
X60315Y21006D01*
X60299Y20928D01*
X60280Y20852D01*
X60257Y20777D01*
X60230Y20703D01*
X60199Y20630D01*
X60165Y20559D01*
X60127Y20490D01*
X60086Y20423D01*
X60042Y20358D01*
X59994Y20295D01*
X59944Y20235D01*
X59890Y20177D01*
X59834Y20122D01*
X59775Y20070D01*
X59713Y20021D01*
X59649Y19975D01*
X59583Y19932D01*
X59515Y19892D01*
X59445Y19856D01*
X59373Y19824D01*
X59299Y19795D01*
X59225Y19770D01*
X59149Y19749D01*
X59072Y19731D01*
X58994Y19718D01*
X58916Y19708D01*
X58838Y19702D01*
X58759Y19700D01*
X58759Y19699D02*
X57178Y19699D01*
X63287Y16143D02*
X63287Y15748D01*
X63287Y16143D02*
X63682Y16143D01*
X63682Y15748D01*
X63287Y15748D01*
X66629Y15748D02*
X68605Y15748D01*
X68692Y15750D01*
X68780Y15756D01*
X68867Y15765D01*
X68953Y15779D01*
X69039Y15796D01*
X69123Y15817D01*
X69207Y15842D01*
X69290Y15871D01*
X69371Y15903D01*
X69451Y15938D01*
X69529Y15977D01*
X69606Y16020D01*
X69680Y16066D01*
X69752Y16115D01*
X69822Y16167D01*
X69890Y16223D01*
X69955Y16281D01*
X70018Y16342D01*
X70077Y16406D01*
X70134Y16473D01*
X70188Y16541D01*
X70239Y16613D01*
X70286Y16686D01*
X70331Y16761D01*
X70372Y16839D01*
X70409Y16918D01*
X70443Y16998D01*
X70473Y17080D01*
X70500Y17163D01*
X70523Y17248D01*
X70542Y17333D01*
X70557Y17419D01*
X70569Y17506D01*
X70577Y17593D01*
X70581Y17680D01*
X70581Y17768D01*
X70577Y17855D01*
X70569Y17942D01*
X70557Y18029D01*
X70542Y18115D01*
X70523Y18200D01*
X70500Y18285D01*
X70473Y18368D01*
X70443Y18450D01*
X70409Y18530D01*
X70372Y18609D01*
X70331Y18687D01*
X70286Y18762D01*
X70239Y18835D01*
X70188Y18907D01*
X70134Y18975D01*
X70077Y19042D01*
X70018Y19106D01*
X69955Y19167D01*
X69890Y19225D01*
X69822Y19281D01*
X69752Y19333D01*
X69680Y19382D01*
X69606Y19428D01*
X69529Y19471D01*
X69451Y19510D01*
X69371Y19545D01*
X69290Y19577D01*
X69207Y19606D01*
X69123Y19631D01*
X69039Y19652D01*
X68953Y19669D01*
X68867Y19683D01*
X68780Y19692D01*
X68692Y19698D01*
X68605Y19700D01*
X69000Y22860D02*
X66629Y22860D01*
X69000Y22860D02*
X69079Y22858D01*
X69157Y22852D01*
X69235Y22842D01*
X69313Y22829D01*
X69390Y22811D01*
X69466Y22790D01*
X69540Y22765D01*
X69614Y22736D01*
X69686Y22704D01*
X69756Y22668D01*
X69824Y22628D01*
X69890Y22585D01*
X69954Y22539D01*
X70016Y22490D01*
X70075Y22438D01*
X70131Y22383D01*
X70185Y22325D01*
X70235Y22265D01*
X70283Y22202D01*
X70327Y22137D01*
X70368Y22070D01*
X70406Y22001D01*
X70440Y21930D01*
X70471Y21857D01*
X70498Y21783D01*
X70521Y21708D01*
X70540Y21632D01*
X70556Y21554D01*
X70568Y21476D01*
X70576Y21398D01*
X70580Y21319D01*
X70580Y21241D01*
X70576Y21162D01*
X70568Y21084D01*
X70556Y21006D01*
X70540Y20928D01*
X70521Y20852D01*
X70498Y20777D01*
X70471Y20703D01*
X70440Y20630D01*
X70406Y20559D01*
X70368Y20490D01*
X70327Y20423D01*
X70283Y20358D01*
X70235Y20295D01*
X70185Y20235D01*
X70131Y20177D01*
X70075Y20122D01*
X70016Y20070D01*
X69954Y20021D01*
X69890Y19975D01*
X69824Y19932D01*
X69756Y19892D01*
X69686Y19856D01*
X69614Y19824D01*
X69540Y19795D01*
X69466Y19770D01*
X69390Y19749D01*
X69313Y19731D01*
X69235Y19718D01*
X69157Y19708D01*
X69079Y19702D01*
X69000Y19700D01*
X69000Y19699D02*
X67419Y19699D01*
X73549Y22860D02*
X75920Y15748D01*
X78291Y22860D01*
X88364Y19699D02*
X89549Y19699D01*
X89549Y15748D01*
X87178Y15748D01*
X87100Y15750D01*
X87023Y15756D01*
X86946Y15765D01*
X86870Y15778D01*
X86794Y15795D01*
X86719Y15816D01*
X86646Y15840D01*
X86573Y15868D01*
X86502Y15900D01*
X86433Y15935D01*
X86366Y15973D01*
X86300Y16014D01*
X86237Y16059D01*
X86176Y16107D01*
X86117Y16157D01*
X86061Y16211D01*
X86007Y16267D01*
X85957Y16326D01*
X85909Y16387D01*
X85864Y16450D01*
X85823Y16516D01*
X85785Y16583D01*
X85750Y16652D01*
X85718Y16723D01*
X85690Y16796D01*
X85666Y16869D01*
X85645Y16944D01*
X85628Y17020D01*
X85615Y17096D01*
X85606Y17173D01*
X85600Y17250D01*
X85598Y17328D01*
X85598Y21280D01*
X85600Y21358D01*
X85606Y21435D01*
X85615Y21512D01*
X85628Y21588D01*
X85645Y21664D01*
X85666Y21739D01*
X85690Y21812D01*
X85718Y21885D01*
X85750Y21956D01*
X85785Y22025D01*
X85823Y22092D01*
X85864Y22158D01*
X85909Y22221D01*
X85957Y22282D01*
X86007Y22341D01*
X86061Y22397D01*
X86117Y22451D01*
X86176Y22501D01*
X86237Y22549D01*
X86300Y22594D01*
X86366Y22635D01*
X86433Y22673D01*
X86502Y22708D01*
X86573Y22740D01*
X86646Y22768D01*
X86719Y22792D01*
X86794Y22813D01*
X86870Y22830D01*
X86946Y22843D01*
X87023Y22852D01*
X87100Y22858D01*
X87178Y22860D01*
X89549Y22860D01*
X93401Y22860D02*
X93401Y15748D01*
X97352Y15748D02*
X93401Y22860D01*
X97352Y22860D02*
X97352Y15748D01*
X101204Y15748D02*
X101204Y22860D01*
X103179Y22860D01*
X103265Y22858D01*
X103351Y22852D01*
X103437Y22843D01*
X103522Y22830D01*
X103607Y22813D01*
X103690Y22793D01*
X103773Y22769D01*
X103855Y22741D01*
X103935Y22710D01*
X104014Y22675D01*
X104091Y22637D01*
X104167Y22595D01*
X104241Y22551D01*
X104312Y22503D01*
X104382Y22452D01*
X104449Y22398D01*
X104514Y22341D01*
X104576Y22281D01*
X104636Y22219D01*
X104693Y22154D01*
X104747Y22087D01*
X104798Y22017D01*
X104846Y21946D01*
X104890Y21872D01*
X104932Y21796D01*
X104970Y21719D01*
X105005Y21640D01*
X105036Y21560D01*
X105064Y21478D01*
X105088Y21395D01*
X105108Y21312D01*
X105125Y21227D01*
X105138Y21142D01*
X105147Y21056D01*
X105153Y20970D01*
X105155Y20884D01*
X105155Y17724D01*
X105153Y17638D01*
X105147Y17552D01*
X105138Y17466D01*
X105125Y17381D01*
X105108Y17296D01*
X105088Y17213D01*
X105064Y17130D01*
X105036Y17048D01*
X105005Y16968D01*
X104970Y16889D01*
X104932Y16812D01*
X104890Y16736D01*
X104846Y16662D01*
X104798Y16591D01*
X104747Y16521D01*
X104693Y16454D01*
X104636Y16389D01*
X104576Y16327D01*
X104514Y16267D01*
X104449Y16210D01*
X104382Y16156D01*
X104312Y16105D01*
X104241Y16057D01*
X104167Y16013D01*
X104091Y15971D01*
X104014Y15933D01*
X103935Y15898D01*
X103855Y15867D01*
X103773Y15839D01*
X103690Y15815D01*
X103607Y15795D01*
X103522Y15778D01*
X103437Y15765D01*
X103351Y15756D01*
X103265Y15750D01*
X103179Y15748D01*
X101204Y15748D01*
X116784Y15748D02*
X116784Y22860D01*
X118759Y22860D02*
X114808Y22860D01*
X121240Y15748D02*
X125982Y22860D01*
X121240Y22860D02*
X125982Y15748D01*
X129195Y15748D02*
X129195Y22860D01*
X131170Y22860D01*
X131256Y22858D01*
X131342Y22852D01*
X131428Y22843D01*
X131513Y22830D01*
X131598Y22813D01*
X131681Y22793D01*
X131764Y22769D01*
X131846Y22741D01*
X131926Y22710D01*
X132005Y22675D01*
X132082Y22637D01*
X132158Y22595D01*
X132232Y22551D01*
X132303Y22503D01*
X132373Y22452D01*
X132440Y22398D01*
X132505Y22341D01*
X132567Y22281D01*
X132627Y22219D01*
X132684Y22154D01*
X132738Y22087D01*
X132789Y22017D01*
X132837Y21946D01*
X132881Y21872D01*
X132923Y21796D01*
X132961Y21719D01*
X132996Y21640D01*
X133027Y21560D01*
X133055Y21478D01*
X133079Y21395D01*
X133099Y21312D01*
X133116Y21227D01*
X133129Y21142D01*
X133138Y21056D01*
X133144Y20970D01*
X133146Y20884D01*
X133146Y17724D01*
X133144Y17638D01*
X133138Y17552D01*
X133129Y17466D01*
X133116Y17381D01*
X133099Y17296D01*
X133079Y17213D01*
X133055Y17130D01*
X133027Y17048D01*
X132996Y16968D01*
X132961Y16889D01*
X132923Y16812D01*
X132881Y16736D01*
X132837Y16662D01*
X132789Y16591D01*
X132738Y16521D01*
X132684Y16454D01*
X132627Y16389D01*
X132567Y16327D01*
X132505Y16267D01*
X132440Y16210D01*
X132373Y16156D01*
X132303Y16105D01*
X132232Y16057D01*
X132158Y16013D01*
X132082Y15971D01*
X132005Y15933D01*
X131926Y15898D01*
X131846Y15867D01*
X131764Y15839D01*
X131681Y15815D01*
X131598Y15795D01*
X131513Y15778D01*
X131428Y15765D01*
X131342Y15756D01*
X131256Y15750D01*
X131170Y15748D01*
X129195Y15748D01*
X141478Y15748D02*
X141478Y22860D01*
X143454Y22860D01*
X143541Y22858D01*
X143629Y22852D01*
X143716Y22843D01*
X143802Y22829D01*
X143888Y22812D01*
X143972Y22791D01*
X144056Y22766D01*
X144139Y22737D01*
X144220Y22705D01*
X144300Y22670D01*
X144378Y22631D01*
X144455Y22588D01*
X144529Y22542D01*
X144601Y22493D01*
X144671Y22441D01*
X144739Y22385D01*
X144804Y22327D01*
X144867Y22266D01*
X144926Y22202D01*
X144983Y22135D01*
X145037Y22067D01*
X145088Y21995D01*
X145135Y21922D01*
X145180Y21847D01*
X145221Y21769D01*
X145258Y21690D01*
X145292Y21610D01*
X145322Y21528D01*
X145349Y21445D01*
X145372Y21360D01*
X145391Y21275D01*
X145406Y21189D01*
X145418Y21102D01*
X145426Y21015D01*
X145430Y20928D01*
X145430Y20840D01*
X145426Y20753D01*
X145418Y20666D01*
X145406Y20579D01*
X145391Y20493D01*
X145372Y20408D01*
X145349Y20323D01*
X145322Y20240D01*
X145292Y20158D01*
X145258Y20078D01*
X145221Y19999D01*
X145180Y19921D01*
X145135Y19846D01*
X145088Y19773D01*
X145037Y19701D01*
X144983Y19633D01*
X144926Y19566D01*
X144867Y19502D01*
X144804Y19441D01*
X144739Y19383D01*
X144671Y19327D01*
X144601Y19275D01*
X144529Y19226D01*
X144455Y19180D01*
X144378Y19137D01*
X144300Y19098D01*
X144220Y19063D01*
X144139Y19031D01*
X144056Y19002D01*
X143972Y18977D01*
X143888Y18956D01*
X143802Y18939D01*
X143716Y18925D01*
X143629Y18916D01*
X143541Y18910D01*
X143454Y18908D01*
X143454Y18909D02*
X141478Y18909D01*
X143849Y18909D02*
X145429Y15748D01*
X148338Y15748D02*
X153079Y22860D01*
X148338Y22860D02*
X153079Y15748D01*
X156292Y15748D02*
X156292Y22860D01*
X158267Y22860D01*
X158353Y22858D01*
X158439Y22852D01*
X158525Y22843D01*
X158610Y22830D01*
X158695Y22813D01*
X158778Y22793D01*
X158861Y22769D01*
X158943Y22741D01*
X159023Y22710D01*
X159102Y22675D01*
X159179Y22637D01*
X159255Y22595D01*
X159329Y22551D01*
X159400Y22503D01*
X159470Y22452D01*
X159537Y22398D01*
X159602Y22341D01*
X159664Y22281D01*
X159724Y22219D01*
X159781Y22154D01*
X159835Y22087D01*
X159886Y22017D01*
X159934Y21946D01*
X159978Y21872D01*
X160020Y21796D01*
X160058Y21719D01*
X160093Y21640D01*
X160124Y21560D01*
X160152Y21478D01*
X160176Y21395D01*
X160196Y21312D01*
X160213Y21227D01*
X160226Y21142D01*
X160235Y21056D01*
X160241Y20970D01*
X160243Y20884D01*
X160243Y17724D01*
X160241Y17638D01*
X160235Y17552D01*
X160226Y17466D01*
X160213Y17381D01*
X160196Y17296D01*
X160176Y17213D01*
X160152Y17130D01*
X160124Y17048D01*
X160093Y16968D01*
X160058Y16889D01*
X160020Y16812D01*
X159978Y16736D01*
X159934Y16662D01*
X159886Y16591D01*
X159835Y16521D01*
X159781Y16454D01*
X159724Y16389D01*
X159664Y16327D01*
X159602Y16267D01*
X159537Y16210D01*
X159470Y16156D01*
X159400Y16105D01*
X159329Y16057D01*
X159255Y16013D01*
X159179Y15971D01*
X159102Y15933D01*
X159023Y15898D01*
X158943Y15867D01*
X158861Y15839D01*
X158778Y15815D01*
X158695Y15795D01*
X158610Y15778D01*
X158525Y15765D01*
X158439Y15756D01*
X158353Y15750D01*
X158267Y15748D01*
X156292Y15748D01*
X170688Y15748D02*
X170688Y22860D01*
X172664Y22860D01*
X172751Y22858D01*
X172839Y22852D01*
X172926Y22843D01*
X173012Y22829D01*
X173098Y22812D01*
X173182Y22791D01*
X173266Y22766D01*
X173349Y22737D01*
X173430Y22705D01*
X173510Y22670D01*
X173588Y22631D01*
X173665Y22588D01*
X173739Y22542D01*
X173811Y22493D01*
X173881Y22441D01*
X173949Y22385D01*
X174014Y22327D01*
X174077Y22266D01*
X174136Y22202D01*
X174193Y22135D01*
X174247Y22067D01*
X174298Y21995D01*
X174345Y21922D01*
X174390Y21847D01*
X174431Y21769D01*
X174468Y21690D01*
X174502Y21610D01*
X174532Y21528D01*
X174559Y21445D01*
X174582Y21360D01*
X174601Y21275D01*
X174616Y21189D01*
X174628Y21102D01*
X174636Y21015D01*
X174640Y20928D01*
X174640Y20840D01*
X174636Y20753D01*
X174628Y20666D01*
X174616Y20579D01*
X174601Y20493D01*
X174582Y20408D01*
X174559Y20323D01*
X174532Y20240D01*
X174502Y20158D01*
X174468Y20078D01*
X174431Y19999D01*
X174390Y19921D01*
X174345Y19846D01*
X174298Y19773D01*
X174247Y19701D01*
X174193Y19633D01*
X174136Y19566D01*
X174077Y19502D01*
X174014Y19441D01*
X173949Y19383D01*
X173881Y19327D01*
X173811Y19275D01*
X173739Y19226D01*
X173665Y19180D01*
X173588Y19137D01*
X173510Y19098D01*
X173430Y19063D01*
X173349Y19031D01*
X173266Y19002D01*
X173182Y18977D01*
X173098Y18956D01*
X173012Y18939D01*
X172926Y18925D01*
X172839Y18916D01*
X172751Y18910D01*
X172664Y18908D01*
X172664Y18909D02*
X170688Y18909D01*
X180630Y19699D02*
X181815Y19699D01*
X181815Y15748D01*
X179445Y15748D01*
X179367Y15750D01*
X179290Y15756D01*
X179213Y15765D01*
X179137Y15778D01*
X179061Y15795D01*
X178986Y15816D01*
X178913Y15840D01*
X178840Y15868D01*
X178769Y15900D01*
X178700Y15935D01*
X178633Y15973D01*
X178567Y16014D01*
X178504Y16059D01*
X178443Y16107D01*
X178384Y16157D01*
X178328Y16211D01*
X178274Y16267D01*
X178224Y16326D01*
X178176Y16387D01*
X178131Y16450D01*
X178090Y16516D01*
X178052Y16583D01*
X178017Y16652D01*
X177985Y16723D01*
X177957Y16796D01*
X177933Y16869D01*
X177912Y16944D01*
X177895Y17020D01*
X177882Y17096D01*
X177873Y17173D01*
X177867Y17250D01*
X177865Y17328D01*
X177864Y17328D02*
X177864Y21280D01*
X177865Y21280D02*
X177867Y21358D01*
X177873Y21435D01*
X177882Y21512D01*
X177895Y21588D01*
X177912Y21664D01*
X177933Y21739D01*
X177957Y21812D01*
X177985Y21885D01*
X178017Y21956D01*
X178052Y22025D01*
X178090Y22092D01*
X178131Y22158D01*
X178176Y22221D01*
X178224Y22282D01*
X178274Y22341D01*
X178328Y22397D01*
X178384Y22451D01*
X178443Y22501D01*
X178504Y22549D01*
X178567Y22594D01*
X178633Y22635D01*
X178700Y22673D01*
X178769Y22708D01*
X178840Y22740D01*
X178913Y22768D01*
X178986Y22792D01*
X179061Y22813D01*
X179137Y22830D01*
X179213Y22843D01*
X179290Y22852D01*
X179367Y22858D01*
X179445Y22860D01*
X181815Y22860D01*
X193548Y22860D02*
X193548Y15748D01*
X193548Y22860D02*
X195524Y22860D01*
X195611Y22858D01*
X195699Y22852D01*
X195786Y22843D01*
X195872Y22829D01*
X195958Y22812D01*
X196042Y22791D01*
X196126Y22766D01*
X196209Y22737D01*
X196290Y22705D01*
X196370Y22670D01*
X196448Y22631D01*
X196525Y22588D01*
X196599Y22542D01*
X196671Y22493D01*
X196741Y22441D01*
X196809Y22385D01*
X196874Y22327D01*
X196937Y22266D01*
X196996Y22202D01*
X197053Y22135D01*
X197107Y22067D01*
X197158Y21995D01*
X197205Y21922D01*
X197250Y21847D01*
X197291Y21769D01*
X197328Y21690D01*
X197362Y21610D01*
X197392Y21528D01*
X197419Y21445D01*
X197442Y21360D01*
X197461Y21275D01*
X197476Y21189D01*
X197488Y21102D01*
X197496Y21015D01*
X197500Y20928D01*
X197500Y20840D01*
X197496Y20753D01*
X197488Y20666D01*
X197476Y20579D01*
X197461Y20493D01*
X197442Y20408D01*
X197419Y20323D01*
X197392Y20240D01*
X197362Y20158D01*
X197328Y20078D01*
X197291Y19999D01*
X197250Y19921D01*
X197205Y19846D01*
X197158Y19773D01*
X197107Y19701D01*
X197053Y19633D01*
X196996Y19566D01*
X196937Y19502D01*
X196874Y19441D01*
X196809Y19383D01*
X196741Y19327D01*
X196671Y19275D01*
X196599Y19226D01*
X196525Y19180D01*
X196448Y19137D01*
X196370Y19098D01*
X196290Y19063D01*
X196209Y19031D01*
X196126Y19002D01*
X196042Y18977D01*
X195958Y18956D01*
X195872Y18939D01*
X195786Y18925D01*
X195699Y18916D01*
X195611Y18910D01*
X195524Y18908D01*
X195524Y18909D02*
X193548Y18909D01*
X195919Y18909D02*
X197499Y15748D01*
X202930Y15748D02*
X203008Y15750D01*
X203085Y15756D01*
X203162Y15765D01*
X203238Y15778D01*
X203314Y15795D01*
X203389Y15816D01*
X203462Y15840D01*
X203535Y15868D01*
X203606Y15900D01*
X203675Y15935D01*
X203742Y15973D01*
X203808Y16014D01*
X203871Y16059D01*
X203932Y16107D01*
X203991Y16157D01*
X204047Y16211D01*
X204101Y16267D01*
X204151Y16326D01*
X204199Y16387D01*
X204244Y16450D01*
X204285Y16516D01*
X204323Y16583D01*
X204358Y16652D01*
X204390Y16723D01*
X204418Y16796D01*
X204442Y16869D01*
X204463Y16944D01*
X204480Y17020D01*
X204493Y17096D01*
X204502Y17173D01*
X204508Y17250D01*
X204510Y17328D01*
X202930Y15748D02*
X202815Y15750D01*
X202701Y15756D01*
X202587Y15766D01*
X202473Y15779D01*
X202360Y15797D01*
X202247Y15819D01*
X202135Y15844D01*
X202025Y15873D01*
X201915Y15906D01*
X201806Y15943D01*
X201699Y15983D01*
X201593Y16027D01*
X201489Y16075D01*
X201386Y16126D01*
X201286Y16181D01*
X201187Y16239D01*
X201090Y16301D01*
X200996Y16365D01*
X200903Y16433D01*
X200813Y16505D01*
X200726Y16579D01*
X200641Y16656D01*
X200559Y16736D01*
X200757Y21280D02*
X200759Y21358D01*
X200765Y21435D01*
X200774Y21512D01*
X200787Y21588D01*
X200804Y21664D01*
X200825Y21739D01*
X200849Y21812D01*
X200877Y21885D01*
X200909Y21956D01*
X200944Y22025D01*
X200982Y22092D01*
X201023Y22158D01*
X201068Y22221D01*
X201116Y22282D01*
X201166Y22341D01*
X201220Y22397D01*
X201276Y22451D01*
X201335Y22501D01*
X201396Y22549D01*
X201459Y22594D01*
X201525Y22635D01*
X201592Y22673D01*
X201661Y22708D01*
X201732Y22740D01*
X201805Y22768D01*
X201878Y22792D01*
X201953Y22813D01*
X202029Y22830D01*
X202105Y22843D01*
X202182Y22852D01*
X202260Y22858D01*
X202337Y22860D01*
X202443Y22858D01*
X202549Y22852D01*
X202654Y22843D01*
X202759Y22830D01*
X202864Y22813D01*
X202968Y22792D01*
X203071Y22768D01*
X203173Y22740D01*
X203274Y22708D01*
X203374Y22673D01*
X203472Y22634D01*
X203570Y22591D01*
X203665Y22546D01*
X203759Y22497D01*
X203851Y22444D01*
X203941Y22388D01*
X204029Y22329D01*
X204115Y22267D01*
X201547Y19897D02*
X201480Y19939D01*
X201415Y19984D01*
X201352Y20033D01*
X201291Y20084D01*
X201234Y20139D01*
X201179Y20196D01*
X201126Y20256D01*
X201077Y20318D01*
X201031Y20383D01*
X200989Y20449D01*
X200949Y20518D01*
X200913Y20589D01*
X200881Y20662D01*
X200852Y20736D01*
X200827Y20811D01*
X200806Y20887D01*
X200788Y20965D01*
X200775Y21043D01*
X200765Y21122D01*
X200759Y21201D01*
X200757Y21280D01*
X203720Y18711D02*
X203787Y18669D01*
X203852Y18624D01*
X203915Y18575D01*
X203976Y18524D01*
X204033Y18469D01*
X204088Y18412D01*
X204141Y18352D01*
X204190Y18290D01*
X204236Y18225D01*
X204278Y18159D01*
X204318Y18090D01*
X204354Y18019D01*
X204386Y17946D01*
X204415Y17872D01*
X204440Y17797D01*
X204461Y17721D01*
X204479Y17643D01*
X204492Y17565D01*
X204502Y17486D01*
X204508Y17407D01*
X204510Y17328D01*
X203720Y18711D02*
X201547Y19897D01*
X209118Y22860D02*
X209118Y15748D01*
X207143Y22860D02*
X211094Y22860D01*
D12*
X55104Y57221D02*
X55102Y57135D01*
X55096Y57049D01*
X55087Y56963D01*
X55074Y56878D01*
X55057Y56793D01*
X55037Y56710D01*
X55013Y56627D01*
X54985Y56545D01*
X54954Y56465D01*
X54919Y56386D01*
X54881Y56309D01*
X54839Y56233D01*
X54795Y56159D01*
X54747Y56088D01*
X54696Y56018D01*
X54642Y55951D01*
X54585Y55886D01*
X54525Y55824D01*
X54463Y55764D01*
X54398Y55707D01*
X54331Y55653D01*
X54261Y55602D01*
X54190Y55554D01*
X54116Y55510D01*
X54040Y55468D01*
X53963Y55430D01*
X53884Y55395D01*
X53804Y55364D01*
X53722Y55336D01*
X53639Y55312D01*
X53556Y55292D01*
X53471Y55275D01*
X53386Y55262D01*
X53300Y55253D01*
X53214Y55247D01*
X53128Y55245D01*
X53001Y55247D01*
X52875Y55253D01*
X52748Y55262D01*
X52622Y55276D01*
X52497Y55293D01*
X52372Y55314D01*
X52248Y55339D01*
X52124Y55368D01*
X52002Y55400D01*
X51880Y55436D01*
X51760Y55476D01*
X51641Y55519D01*
X51523Y55566D01*
X51407Y55617D01*
X51292Y55671D01*
X51179Y55728D01*
X51068Y55789D01*
X50959Y55853D01*
X50852Y55921D01*
X50746Y55991D01*
X50643Y56065D01*
X50543Y56142D01*
X50445Y56222D01*
X50349Y56305D01*
X50256Y56391D01*
X50165Y56480D01*
X50412Y62159D02*
X50414Y62245D01*
X50420Y62331D01*
X50429Y62417D01*
X50442Y62502D01*
X50459Y62587D01*
X50479Y62670D01*
X50503Y62753D01*
X50531Y62835D01*
X50562Y62915D01*
X50597Y62994D01*
X50635Y63071D01*
X50677Y63147D01*
X50721Y63221D01*
X50769Y63292D01*
X50820Y63362D01*
X50874Y63429D01*
X50931Y63494D01*
X50991Y63556D01*
X51053Y63616D01*
X51118Y63673D01*
X51185Y63727D01*
X51255Y63778D01*
X51326Y63826D01*
X51400Y63870D01*
X51476Y63912D01*
X51553Y63950D01*
X51632Y63985D01*
X51712Y64016D01*
X51794Y64044D01*
X51877Y64068D01*
X51960Y64088D01*
X52045Y64105D01*
X52130Y64118D01*
X52216Y64127D01*
X52302Y64133D01*
X52388Y64135D01*
X52507Y64133D01*
X52626Y64127D01*
X52745Y64118D01*
X52863Y64104D01*
X52981Y64087D01*
X53099Y64066D01*
X53215Y64041D01*
X53331Y64013D01*
X53446Y63981D01*
X53559Y63945D01*
X53672Y63905D01*
X53783Y63862D01*
X53893Y63816D01*
X54001Y63766D01*
X54107Y63712D01*
X54212Y63655D01*
X54314Y63595D01*
X54415Y63531D01*
X54514Y63464D01*
X54610Y63394D01*
X51400Y60431D02*
X51326Y60476D01*
X51254Y60525D01*
X51184Y60577D01*
X51117Y60632D01*
X51052Y60690D01*
X50990Y60750D01*
X50931Y60813D01*
X50874Y60879D01*
X50820Y60947D01*
X50769Y61017D01*
X50721Y61089D01*
X50676Y61164D01*
X50635Y61240D01*
X50597Y61318D01*
X50562Y61398D01*
X50531Y61479D01*
X50503Y61561D01*
X50479Y61644D01*
X50459Y61728D01*
X50442Y61814D01*
X50429Y61899D01*
X50420Y61986D01*
X50414Y62072D01*
X50412Y62159D01*
X54115Y58949D02*
X54189Y58904D01*
X54261Y58855D01*
X54331Y58803D01*
X54398Y58748D01*
X54463Y58690D01*
X54525Y58630D01*
X54585Y58567D01*
X54641Y58501D01*
X54695Y58433D01*
X54746Y58363D01*
X54794Y58291D01*
X54839Y58216D01*
X54880Y58140D01*
X54918Y58062D01*
X54953Y57982D01*
X54984Y57901D01*
X55012Y57819D01*
X55036Y57736D01*
X55056Y57652D01*
X55073Y57566D01*
X55086Y57481D01*
X55095Y57394D01*
X55101Y57308D01*
X55103Y57221D01*
X54116Y58949D02*
X51400Y60431D01*
X60864Y64135D02*
X60864Y55245D01*
X58395Y64135D02*
X63333Y64135D01*
X69398Y64135D02*
X66435Y55245D01*
X72362Y55245D02*
X69398Y64135D01*
X71621Y57468D02*
X67176Y57468D01*
X77933Y55245D02*
X77933Y64135D01*
X80402Y64135D02*
X75463Y64135D01*
D13*
X7620Y252730D02*
X246380Y252730D01*
X246380Y29210D01*
X224790Y7620D01*
X7620Y7620D01*
X7620Y252730D01*
M02*
