G04 EAGLE Gerber X2 export*
%TF.Part,Single*%
%TF.FileFunction,Soldermask,Top,1*%
%TF.FilePolarity,Negative*%
%TF.GenerationSoftware,Autodesk,EAGLE,8.7.1*%
%TF.CreationDate,2018-09-06T09:55:23Z*%
G75*
%MOMM*%
%FSLAX34Y34*%
%LPD*%
%AMOC8*
5,1,8,0,0,1.08239X$1,22.5*%
G01*
%ADD10R,1.586600X1.001600*%
%ADD11R,1.778000X1.778000*%
%ADD12C,1.625600*%
%ADD13R,1.625600X1.625600*%
%ADD14R,1.601600X1.601600*%
%ADD15C,1.625600*%


D10*
X40615Y242040D03*
X40615Y227040D03*
X40615Y212040D03*
X40615Y197040D03*
X40615Y182040D03*
X40615Y167040D03*
X40615Y152040D03*
X40615Y137040D03*
X40615Y122040D03*
X218465Y122040D03*
X218465Y137040D03*
X218465Y152040D03*
X218465Y167040D03*
X218465Y182040D03*
X218465Y197040D03*
X218465Y212040D03*
X218465Y227040D03*
X218465Y242040D03*
D11*
X15240Y218440D03*
D12*
X15240Y193040D03*
X15240Y167640D03*
X15240Y142240D03*
X15240Y116840D03*
X15240Y91440D03*
X15240Y66040D03*
X15240Y40640D03*
X243840Y40640D03*
X243840Y66040D03*
X243840Y91440D03*
X243840Y116840D03*
X243840Y142240D03*
X243840Y167640D03*
X243840Y193040D03*
D13*
X243840Y218440D03*
D14*
X52350Y78740D03*
X87350Y78740D03*
D15*
X78740Y48260D02*
X78740Y33020D01*
X104140Y33020D02*
X104140Y48260D01*
X129540Y48260D02*
X129540Y33020D01*
X154940Y33020D02*
X154940Y48260D01*
X180340Y48260D02*
X180340Y33020D01*
X205740Y33020D02*
X205740Y48260D01*
D10*
X299695Y242040D03*
X299695Y227040D03*
X299695Y212040D03*
X299695Y197040D03*
X299695Y182040D03*
X299695Y167040D03*
X299695Y152040D03*
X299695Y137040D03*
X299695Y122040D03*
X477545Y122040D03*
X477545Y137040D03*
X477545Y152040D03*
X477545Y167040D03*
X477545Y182040D03*
X477545Y197040D03*
X477545Y212040D03*
X477545Y227040D03*
X477545Y242040D03*
D11*
X274320Y218440D03*
D12*
X274320Y193040D03*
X274320Y167640D03*
X274320Y142240D03*
X274320Y116840D03*
X274320Y91440D03*
X274320Y66040D03*
X274320Y40640D03*
X502920Y40640D03*
X502920Y66040D03*
X502920Y91440D03*
X502920Y116840D03*
X502920Y142240D03*
X502920Y167640D03*
X502920Y193040D03*
D13*
X502920Y218440D03*
D14*
X311430Y78740D03*
X346430Y78740D03*
D15*
X337820Y48260D02*
X337820Y33020D01*
X363220Y33020D02*
X363220Y48260D01*
X388620Y48260D02*
X388620Y33020D01*
X414020Y33020D02*
X414020Y48260D01*
X439420Y48260D02*
X439420Y33020D01*
X464820Y33020D02*
X464820Y48260D01*
D10*
X558775Y242040D03*
X558775Y227040D03*
X558775Y212040D03*
X558775Y197040D03*
X558775Y182040D03*
X558775Y167040D03*
X558775Y152040D03*
X558775Y137040D03*
X558775Y122040D03*
X736625Y122040D03*
X736625Y137040D03*
X736625Y152040D03*
X736625Y167040D03*
X736625Y182040D03*
X736625Y197040D03*
X736625Y212040D03*
X736625Y227040D03*
X736625Y242040D03*
D11*
X533400Y218440D03*
D12*
X533400Y193040D03*
X533400Y167640D03*
X533400Y142240D03*
X533400Y116840D03*
X533400Y91440D03*
X533400Y66040D03*
X533400Y40640D03*
X762000Y40640D03*
X762000Y66040D03*
X762000Y91440D03*
X762000Y116840D03*
X762000Y142240D03*
X762000Y167640D03*
X762000Y193040D03*
D13*
X762000Y218440D03*
D14*
X570510Y78740D03*
X605510Y78740D03*
D15*
X596900Y48260D02*
X596900Y33020D01*
X622300Y33020D02*
X622300Y48260D01*
X647700Y48260D02*
X647700Y33020D01*
X673100Y33020D02*
X673100Y48260D01*
X698500Y48260D02*
X698500Y33020D01*
X723900Y33020D02*
X723900Y48260D01*
D10*
X40615Y504930D03*
X40615Y489930D03*
X40615Y474930D03*
X40615Y459930D03*
X40615Y444930D03*
X40615Y429930D03*
X40615Y414930D03*
X40615Y399930D03*
X40615Y384930D03*
X218465Y384930D03*
X218465Y399930D03*
X218465Y414930D03*
X218465Y429930D03*
X218465Y444930D03*
X218465Y459930D03*
X218465Y474930D03*
X218465Y489930D03*
X218465Y504930D03*
D11*
X15240Y481330D03*
D12*
X15240Y455930D03*
X15240Y430530D03*
X15240Y405130D03*
X15240Y379730D03*
X15240Y354330D03*
X15240Y328930D03*
X15240Y303530D03*
X243840Y303530D03*
X243840Y328930D03*
X243840Y354330D03*
X243840Y379730D03*
X243840Y405130D03*
X243840Y430530D03*
X243840Y455930D03*
D13*
X243840Y481330D03*
D14*
X52350Y341630D03*
X87350Y341630D03*
D15*
X78740Y311150D02*
X78740Y295910D01*
X104140Y295910D02*
X104140Y311150D01*
X129540Y311150D02*
X129540Y295910D01*
X154940Y295910D02*
X154940Y311150D01*
X180340Y311150D02*
X180340Y295910D01*
X205740Y295910D02*
X205740Y311150D01*
D10*
X299695Y504930D03*
X299695Y489930D03*
X299695Y474930D03*
X299695Y459930D03*
X299695Y444930D03*
X299695Y429930D03*
X299695Y414930D03*
X299695Y399930D03*
X299695Y384930D03*
X477545Y384930D03*
X477545Y399930D03*
X477545Y414930D03*
X477545Y429930D03*
X477545Y444930D03*
X477545Y459930D03*
X477545Y474930D03*
X477545Y489930D03*
X477545Y504930D03*
D11*
X274320Y481330D03*
D12*
X274320Y455930D03*
X274320Y430530D03*
X274320Y405130D03*
X274320Y379730D03*
X274320Y354330D03*
X274320Y328930D03*
X274320Y303530D03*
X502920Y303530D03*
X502920Y328930D03*
X502920Y354330D03*
X502920Y379730D03*
X502920Y405130D03*
X502920Y430530D03*
X502920Y455930D03*
D13*
X502920Y481330D03*
D14*
X311430Y341630D03*
X346430Y341630D03*
D15*
X337820Y311150D02*
X337820Y295910D01*
X363220Y295910D02*
X363220Y311150D01*
X388620Y311150D02*
X388620Y295910D01*
X414020Y295910D02*
X414020Y311150D01*
X439420Y311150D02*
X439420Y295910D01*
X464820Y295910D02*
X464820Y311150D01*
D10*
X558775Y504930D03*
X558775Y489930D03*
X558775Y474930D03*
X558775Y459930D03*
X558775Y444930D03*
X558775Y429930D03*
X558775Y414930D03*
X558775Y399930D03*
X558775Y384930D03*
X736625Y384930D03*
X736625Y399930D03*
X736625Y414930D03*
X736625Y429930D03*
X736625Y444930D03*
X736625Y459930D03*
X736625Y474930D03*
X736625Y489930D03*
X736625Y504930D03*
D11*
X533400Y481330D03*
D12*
X533400Y455930D03*
X533400Y430530D03*
X533400Y405130D03*
X533400Y379730D03*
X533400Y354330D03*
X533400Y328930D03*
X533400Y303530D03*
X762000Y303530D03*
X762000Y328930D03*
X762000Y354330D03*
X762000Y379730D03*
X762000Y405130D03*
X762000Y430530D03*
X762000Y455930D03*
D13*
X762000Y481330D03*
D14*
X570510Y341630D03*
X605510Y341630D03*
D15*
X596900Y311150D02*
X596900Y295910D01*
X622300Y295910D02*
X622300Y311150D01*
X647700Y311150D02*
X647700Y295910D01*
X673100Y295910D02*
X673100Y311150D01*
X698500Y311150D02*
X698500Y295910D01*
X723900Y295910D02*
X723900Y311150D01*
D10*
X40615Y767820D03*
X40615Y752820D03*
X40615Y737820D03*
X40615Y722820D03*
X40615Y707820D03*
X40615Y692820D03*
X40615Y677820D03*
X40615Y662820D03*
X40615Y647820D03*
X218465Y647820D03*
X218465Y662820D03*
X218465Y677820D03*
X218465Y692820D03*
X218465Y707820D03*
X218465Y722820D03*
X218465Y737820D03*
X218465Y752820D03*
X218465Y767820D03*
D11*
X15240Y744220D03*
D12*
X15240Y718820D03*
X15240Y693420D03*
X15240Y668020D03*
X15240Y642620D03*
X15240Y617220D03*
X15240Y591820D03*
X15240Y566420D03*
X243840Y566420D03*
X243840Y591820D03*
X243840Y617220D03*
X243840Y642620D03*
X243840Y668020D03*
X243840Y693420D03*
X243840Y718820D03*
D13*
X243840Y744220D03*
D14*
X52350Y604520D03*
X87350Y604520D03*
D15*
X78740Y574040D02*
X78740Y558800D01*
X104140Y558800D02*
X104140Y574040D01*
X129540Y574040D02*
X129540Y558800D01*
X154940Y558800D02*
X154940Y574040D01*
X180340Y574040D02*
X180340Y558800D01*
X205740Y558800D02*
X205740Y574040D01*
D10*
X299695Y767820D03*
X299695Y752820D03*
X299695Y737820D03*
X299695Y722820D03*
X299695Y707820D03*
X299695Y692820D03*
X299695Y677820D03*
X299695Y662820D03*
X299695Y647820D03*
X477545Y647820D03*
X477545Y662820D03*
X477545Y677820D03*
X477545Y692820D03*
X477545Y707820D03*
X477545Y722820D03*
X477545Y737820D03*
X477545Y752820D03*
X477545Y767820D03*
D11*
X274320Y744220D03*
D12*
X274320Y718820D03*
X274320Y693420D03*
X274320Y668020D03*
X274320Y642620D03*
X274320Y617220D03*
X274320Y591820D03*
X274320Y566420D03*
X502920Y566420D03*
X502920Y591820D03*
X502920Y617220D03*
X502920Y642620D03*
X502920Y668020D03*
X502920Y693420D03*
X502920Y718820D03*
D13*
X502920Y744220D03*
D14*
X311430Y604520D03*
X346430Y604520D03*
D15*
X337820Y574040D02*
X337820Y558800D01*
X363220Y558800D02*
X363220Y574040D01*
X388620Y574040D02*
X388620Y558800D01*
X414020Y558800D02*
X414020Y574040D01*
X439420Y574040D02*
X439420Y558800D01*
X464820Y558800D02*
X464820Y574040D01*
D10*
X558775Y767820D03*
X558775Y752820D03*
X558775Y737820D03*
X558775Y722820D03*
X558775Y707820D03*
X558775Y692820D03*
X558775Y677820D03*
X558775Y662820D03*
X558775Y647820D03*
X736625Y647820D03*
X736625Y662820D03*
X736625Y677820D03*
X736625Y692820D03*
X736625Y707820D03*
X736625Y722820D03*
X736625Y737820D03*
X736625Y752820D03*
X736625Y767820D03*
D11*
X533400Y744220D03*
D12*
X533400Y718820D03*
X533400Y693420D03*
X533400Y668020D03*
X533400Y642620D03*
X533400Y617220D03*
X533400Y591820D03*
X533400Y566420D03*
X762000Y566420D03*
X762000Y591820D03*
X762000Y617220D03*
X762000Y642620D03*
X762000Y668020D03*
X762000Y693420D03*
X762000Y718820D03*
D13*
X762000Y744220D03*
D14*
X570510Y604520D03*
X605510Y604520D03*
D15*
X596900Y574040D02*
X596900Y558800D01*
X622300Y558800D02*
X622300Y574040D01*
X647700Y574040D02*
X647700Y558800D01*
X673100Y558800D02*
X673100Y574040D01*
X698500Y574040D02*
X698500Y558800D01*
X723900Y558800D02*
X723900Y574040D01*
M02*
