G04 EAGLE Gerber X2 export*
%TF.Part,Single*%
%TF.FileFunction,Soldermask,Bot,1*%
%TF.FilePolarity,Negative*%
%TF.GenerationSoftware,Autodesk,EAGLE,8.7.1*%
%TF.CreationDate,2018-08-26T11:19:32Z*%
G75*
%MOMM*%
%FSLAX34Y34*%
%LPD*%
%AMOC8*
5,1,8,0,0,1.08239X$1,22.5*%
G01*
%ADD10R,1.778000X1.778000*%
%ADD11C,1.625600*%
%ADD12R,1.625600X1.625600*%
%ADD13R,0.990600X2.006600*%
%ADD14R,3.200400X2.006600*%
%ADD15R,1.701600X1.904600*%
%ADD16R,1.901600X1.701600*%
%ADD17C,1.625600*%


D10*
X12700Y215900D03*
D11*
X12700Y190500D03*
X12700Y165100D03*
X12700Y139700D03*
X12700Y114300D03*
X12700Y88900D03*
X12700Y63500D03*
X12700Y38100D03*
X241300Y38100D03*
X241300Y63500D03*
X241300Y88900D03*
X241300Y114300D03*
X241300Y139700D03*
X241300Y165100D03*
X241300Y190500D03*
D12*
X241300Y215900D03*
D13*
X162700Y81788D03*
X139700Y81788D03*
X116700Y81788D03*
D14*
X139700Y146812D03*
D15*
X103120Y241300D03*
X74680Y241300D03*
X103120Y203200D03*
X74680Y203200D03*
X96770Y138430D03*
X68330Y138430D03*
D16*
X194310Y95280D03*
X194310Y67280D03*
X60960Y97820D03*
X60960Y69820D03*
D15*
X214880Y233680D03*
X186440Y233680D03*
X103120Y165100D03*
X74680Y165100D03*
D17*
X76200Y45720D02*
X76200Y30480D01*
X101600Y30480D02*
X101600Y45720D01*
X127000Y45720D02*
X127000Y30480D01*
X152400Y30480D02*
X152400Y45720D01*
X177800Y45720D02*
X177800Y30480D01*
X203200Y30480D02*
X203200Y45720D01*
D16*
X81280Y97820D03*
X81280Y69820D03*
X217170Y95280D03*
X217170Y67280D03*
M02*
