G04 EAGLE Gerber X2 export*
%TF.Part,Single*%
%TF.FileFunction,Soldermask,Top,1*%
%TF.FilePolarity,Negative*%
%TF.GenerationSoftware,Autodesk,EAGLE,8.7.1*%
%TF.CreationDate,2018-08-26T11:19:32Z*%
G75*
%MOMM*%
%FSLAX34Y34*%
%LPD*%
%AMOC8*
5,1,8,0,0,1.08239X$1,22.5*%
G01*
%ADD10R,1.586600X1.001600*%
%ADD11R,1.778000X1.778000*%
%ADD12C,1.625600*%
%ADD13R,1.625600X1.625600*%
%ADD14R,1.601600X1.601600*%
%ADD15C,1.625600*%


D10*
X38075Y239500D03*
X38075Y224500D03*
X38075Y209500D03*
X38075Y194500D03*
X38075Y179500D03*
X38075Y164500D03*
X38075Y149500D03*
X38075Y134500D03*
X38075Y119500D03*
X215925Y119500D03*
X215925Y134500D03*
X215925Y149500D03*
X215925Y164500D03*
X215925Y179500D03*
X215925Y194500D03*
X215925Y209500D03*
X215925Y224500D03*
X215925Y239500D03*
D11*
X12700Y215900D03*
D12*
X12700Y190500D03*
X12700Y165100D03*
X12700Y139700D03*
X12700Y114300D03*
X12700Y88900D03*
X12700Y63500D03*
X12700Y38100D03*
X241300Y38100D03*
X241300Y63500D03*
X241300Y88900D03*
X241300Y114300D03*
X241300Y139700D03*
X241300Y165100D03*
X241300Y190500D03*
D13*
X241300Y215900D03*
D14*
X49810Y76200D03*
X84810Y76200D03*
D15*
X76200Y45720D02*
X76200Y30480D01*
X101600Y30480D02*
X101600Y45720D01*
X127000Y45720D02*
X127000Y30480D01*
X152400Y30480D02*
X152400Y45720D01*
X177800Y45720D02*
X177800Y30480D01*
X203200Y30480D02*
X203200Y45720D01*
M02*
