  0
SECTION
  2
HEADER
  9
$ACADVER
  1
AC1014
  9
$HANDSEED
  5
FFFF
  9
$MEASUREMENT
 70
     1
  0
ENDSEC
  0
SECTION
  2
TABLES
  0
TABLE
  2
VPORT
  5
8
330
0
100
AcDbSymbolTable
 70
     4
  0
VPORT
  5
2E
330
8
100
AcDbSymbolTableRecord
100
AcDbViewportTableRecord
  2
*ACTIVE
 70
     0
 10
0.0
 20
0.0
 11
1.0
 21
1.0
 12
210.0
 22
148.5
 13
0.0
 23
0.0
 14
10.0
 24
10.0
 15
10.0
 25
10.0
 16
0.0
 26
0.0
 36
1.0
 17
0.0
 27
0.0
 37
0.0
 40
341.0
 41
1.24
 42
50.0
 43
0.0
 44
0.0
 50
0.0
 51
0.0
 71
     0
 72
   100
 73
     1
 74
     3
 75
     0
 76
     0
 77
     0
 78
     0
  0
ENDTAB
  0
TABLE
  2
LTYPE
  5
5
330
0
100
AcDbSymbolTable
 70
     1
  0
LTYPE
  5
14
330
5
100
AcDbSymbolTableRecord
100
AcDbLinetypeTableRecord
  2
BYBLOCK
 70
     0
  3

 72
    65
 73
     0
 40
0.0
  0
LTYPE
  5
15
330
5
100
AcDbSymbolTableRecord
100
AcDbLinetypeTableRecord
  2
BYLAYER
 70
     0
  3

 72
    65
 73
     0
 40
0.0
  0
LTYPE
  5
16
330
5
100
AcDbSymbolTableRecord
100
AcDbLinetypeTableRecord
  2
CONTINUOUS
 70
     0
  3
Solid line
 72
    65
 73
     0
 40
0.0
  0
ENDTAB
  0
TABLE
  2
LAYER
  5
2
100
AcDbSymbolTable
 70
2
  0
LAYER
  5
50
100
AcDbSymbolTableRecord
100
AcDbLayerTableRecord
  2
0
 70
0
  6
CONTINUOUS
  0
LAYER
  5
51
100
AcDbSymbolTableRecord
100
AcDbLayerTableRecord
  2
Layer_1
 70
0
  6
CONTINUOUS
  0
ENDTAB
  0
TABLE
  2
STYLE
  5
3
330
0
100
AcDbSymbolTable
 70
     1
  0
STYLE
  5
11
330
3
100
AcDbSymbolTableRecord
100
AcDbTextStyleTableRecord
  2
STANDARD
 70
     0
 40
0.0
 41
1.0
 50
0.0
 71
     0
 42
2.5
  3
txt
  4

  0
ENDTAB
  0
TABLE
  2
VIEW
  5
6
330
0
100
AcDbSymbolTable
 70
     0
  0
ENDTAB
  0
TABLE
  2
UCS
  5
7
330
0
100
AcDbSymbolTable
 70
     0
  0
ENDTAB
  0
TABLE
  2
APPID
  5
9
330
0
100
AcDbSymbolTable
 70
     2
  0
APPID
  5
12
330
9
100
AcDbSymbolTableRecord
100
AcDbRegAppTableRecord
  2
ACAD
 70
     0
  0
ENDTAB
  0
TABLE
  2
DIMSTYLE
  5
A
330
0
100
AcDbSymbolTable
 70
     1
  0
DIMSTYLE
105
27
330
A
100
AcDbSymbolTableRecord
100
AcDbDimStyleTableRecord
  2
ISO-25
 70
     0
  3

  4

  5

  6

  7

 40
1.0
 41
2.5
 42
0.625
 43
3.75
 44
1.25
 45
0.0
 46
0.0
 47
0.0
 48
0.0
140
2.5
141
2.5
142
0.0
143
0.03937007874016
144
1.0
145
0.0
146
1.0
147
0.625
 71
     0
 72
     0
 73
     0
 74
     0
 75
     0
 76
     0
 77
     1
 78
     8
170
     0
171
     3
172
     1
173
     0
174
     0
175
     0
176
     0
177
     0
178
     0
270
     2
271
     2
272
     2
273
     2
274
     3
340
11
275
     0
280
     0
281
     0
282
     0
283
     0
284
     8
285
     0
286
     0
287
     3
288
     0
  0
ENDTAB
  0
TABLE
  2
BLOCK_RECORD
  5
1
330
0
100
AcDbSymbolTable
 70
     1
  0
BLOCK_RECORD
  5
1F
330
1
100
AcDbSymbolTableRecord
100
AcDbBlockTableRecord
  2
*MODEL_SPACE
  0
BLOCK_RECORD
  5
1B
330
1
100
AcDbSymbolTableRecord
100
AcDbBlockTableRecord
  2
*PAPER_SPACE
  0
ENDTAB
  0
ENDSEC
  0
SECTION
  2
BLOCKS
  0
BLOCK
  5
20
330
1F
100
AcDbEntity
  8
0
100
AcDbBlockBegin
  2
*MODEL_SPACE
 70
     0
 10
0.0
 20
0.0
 30
0.0
  3
*MODEL_SPACE
  1

  0
ENDBLK
  5
21
330
1F
100
AcDbEntity
  8
0
100
AcDbBlockEnd
  0
BLOCK
  5
1C
330
1B
100
AcDbEntity
 67
     1
  8
0
100
AcDbBlockBegin
  2
*PAPER_SPACE
  1

  0
ENDBLK
  5
1D
330
1B
100
AcDbEntity
 67
     1
  8
0
100
AcDbBlockEnd
  0
ENDSEC
  0
SECTION
  2
ENTITIES
  0
LWPOLYLINE
  5
100
100
AcDbEntity
  8
Layer_1
 62
7
100
AcDbPolyline
 90
128
 70
0
 10
1.414273
 20
0.493943
 30
0.0
 10
0.967620
 20
0.941051
 30
0.0
 10
1.074861
 20
1.101776
 30
0.0
 10
1.409636
 20
1.591744
 30
0.0
 10
1.570332
 20
1.835240
 30
0.0
 10
1.637170
 20
1.958264
 30
0.0
 10
1.581733
 20
2.125225
 30
0.0
 10
1.457221
 20
2.444944
 30
0.0
 10
1.326337
 20
2.761177
 30
0.0
 10
1.251785
 20
2.917650
 30
0.0
 10
1.072792
 20
2.965272
 30
0.0
 10
0.681280
 20
3.042374
 30
0.0
 10
0.084931
 20
3.162847
 30
0.0
 10
0.031433
 20
3.185524
 30
0.0
 10
0.037726
 20
3.804639
 30
0.0
 10
0.044019
 20
4.423725
 30
0.0
 10
0.150227
 20
4.452072
 30
0.0
 10
0.752084
 20
4.569143
 30
0.0
 10
1.275012
 20
4.678843
 30
0.0
 10
1.495607
 20
5.149947
 30
0.0
 10
1.688919
 20
5.600710
 30
0.0
 10
1.468647
 20
5.921872
 30
0.0
 10
1.107431
 20
6.450310
 30
0.0
 10
0.966483
 20
6.657579
 30
0.0
 10
1.401894
 20
7.093466
 30
0.0
 10
1.720319
 20
7.401314
 30
0.0
 10
1.874467
 20
7.529355
 30
0.0
 10
2.046992
 20
7.428810
 30
0.0
 10
2.409599
 20
7.187100
 30
0.0
 10
2.774704
 20
6.945389
 30
0.0
 10
2.953233
 20
6.844844
 30
0.0
 10
3.399676
 20
7.008687
 30
0.0
 10
3.837371
 20
7.195774
 30
0.0
 10
3.961395
 20
7.789414
 30
0.0
 10
4.080558
 20
8.420292
 30
0.0
 10
4.092690
 20
8.473414
 30
0.0
 10
4.729051
 20
8.473414
 30
0.0
 10
5.365411
 20
8.473414
 30
0.0
 10
5.377544
 20
8.420292
 30
0.0
 10
5.496706
 20
7.789414
 30
0.0
 10
5.620731
 20
7.195774
 30
0.0
 10
6.058426
 20
7.008687
 30
0.0
 10
6.504869
 20
6.844844
 30
0.0
 10
6.683398
 20
6.945389
 30
0.0
 10
7.048502
 20
7.187100
 30
0.0
 10
7.411109
 20
7.428810
 30
0.0
 10
7.583634
 20
7.529355
 30
0.0
 10
7.737782
 20
7.401314
 30
0.0
 10
8.056208
 20
7.093466
 30
0.0
 10
8.491618
 20
6.657579
 30
0.0
 10
8.350674
 20
6.450310
 30
0.0
 10
7.989457
 20
5.921872
 30
0.0
 10
7.769185
 20
5.600710
 30
0.0
 10
7.962497
 20
5.149947
 30
0.0
 10
8.183092
 20
4.678843
 30
0.0
 10
8.706020
 20
4.569143
 30
0.0
 10
9.307877
 20
4.452072
 30
0.0
 10
9.414088
 20
4.423725
 30
0.0
 10
9.420381
 20
3.808182
 30
0.0
 10
9.419049
 20
3.317505
 30
0.0
 10
9.410886
 20
3.210355
 30
0.0
 10
9.396797
 20
3.170103
 30
0.0
 10
8.800456
 20
3.046229
 30
0.0
 10
8.392275
 20
2.966576
 30
0.0
 10
8.206347
 20
2.917820
 30
0.0
 10
8.131714
 20
2.761064
 30
0.0
 10
8.000841
 20
2.444746
 30
0.0
 10
7.876375
 20
2.124913
 30
0.0
 10
7.820963
 20
1.957669
 30
0.0
 10
7.918027
 20
1.789858
 30
0.0
 10
8.151395
 20
1.439240
 30
0.0
 10
8.481826
 20
0.944878
 30
0.0
 10
8.035892
 20
0.485864
 30
0.0
 10
7.589958
 20
0.040399
 30
0.0
 10
7.133107
 20
0.353231
 30
0.0
 10
6.626129
 20
0.689250
 30
0.0
 10
6.591518
 20
0.694919
 30
0.0
 10
6.541186
 20
0.683580
 30
0.0
 10
6.347059
 20
0.588620
 30
0.0
 10
6.179789
 20
0.507549
 30
0.0
 10
6.099373
 20
0.484872
 30
0.0
 10
5.666884
 20
1.507073
 30
0.0
 10
5.248320
 20
2.532053
 30
0.0
 10
5.384031
 20
2.633533
 30
0.0
 10
5.605298
 20
2.808998
 30
0.0
 10
5.788892
 20
3.017344
 30
0.0
 10
5.927674
 20
3.248651
 30
0.0
 10
5.978028
 20
3.369974
 30
0.0
 10
6.014504
 20
3.493281
 30
0.0
 10
6.048146
 20
3.746982
 30
0.0
 10
6.031592
 20
3.995864
 30
0.0
 10
5.968382
 20
4.234258
 30
0.0
 10
5.862040
 20
4.455927
 30
0.0
 10
5.716093
 20
4.655203
 30
0.0
 10
5.534072
 20
4.826132
 30
0.0
 10
5.319506
 20
4.962932
 30
0.0
 10
5.075922
 20
5.059621
 30
0.0
 10
4.917825
 20
5.088506
 30
0.0
 10
4.729061
 20
5.098144
 30
0.0
 10
4.540296
 20
5.088506
 30
0.0
 10
4.382199
 20
5.059621
 30
0.0
 10
4.253172
 20
5.014239
 30
0.0
 10
4.127401
 20
4.954711
 30
0.0
 10
3.893730
 20
4.799769
 30
0.0
 10
3.789877
 20
4.707643
 30
0.0
 10
3.697377
 20
4.607864
 30
0.0
 10
3.618254
 20
4.502132
 30
0.0
 10
3.554531
 20
4.392147
 30
0.0
 10
3.460129
 20
4.150069
 30
0.0
 10
3.413879
 20
3.906006
 30
0.0
 10
3.414573
 20
3.664210
 30
0.0
 10
3.461008
 20
3.428651
 30
0.0
 10
3.551974
 20
3.203297
 30
0.0
 10
3.686266
 20
2.992399
 30
0.0
 10
3.862677
 20
2.799927
 30
0.0
 10
4.080001
 20
2.629848
 30
0.0
 10
4.209813
 20
2.531203
 30
0.0
 10
3.791249
 20
1.506223
 30
0.0
 10
3.358760
 20
0.484021
 30
0.0
 10
3.278344
 20
0.506699
 30
0.0
 10
3.111074
 20
0.587769
 30
0.0
 10
2.916946
 20
0.682730
 30
0.0
 10
2.866614
 20
0.694069
 30
0.0
 10
2.832003
 20
0.688399
 30
0.0
 10
2.329650
 20
0.355555
 30
0.0
 10
1.869173
 20
0.045870
 30
0.0
 10
1.414271
 20
0.492979
 30
0.0
 10
1.414268
 20
0.492979
 30
0.0
  0
ENDSEC
  0
SECTION
  2
OBJECTS
  0
DICTIONARY
  5
C
330
0
100
AcDbDictionary
  3
ACAD_GROUP
350
D
  3
ACAD_MLINESTYLE
350
17
  0
DICTIONARY
  5
D
330
C
100
AcDbDictionary
  0
DICTIONARY
  5
1A
330
C
100
AcDbDictionary
  0
DICTIONARY
  5
17
330
C
100
AcDbDictionary
  3
STANDARD
350
18
  0
DICTIONARY
  5
19
330
C
100
AcDbDictionary
  0
ENDSEC
  0
EOF
