<?xml version="1.0" encoding="UTF-8" standalone="no"?>
<!-- Created with Inkscape (http://www.inkscape.org/) -->

<svg
   xmlns:dc="http://purl.org/dc/elements/1.1/"
   xmlns:cc="http://creativecommons.org/ns#"
   xmlns:rdf="http://www.w3.org/1999/02/22-rdf-syntax-ns#"
   xmlns:svg="http://www.w3.org/2000/svg"
   xmlns="http://www.w3.org/2000/svg"
   xmlns:sodipodi="http://sodipodi.sourceforge.net/DTD/sodipodi-0.dtd"
   xmlns:inkscape="http://www.inkscape.org/namespaces/inkscape"
   width="3.3343155mm"
   height="3.000246mm"
   viewBox="0 0 3.3343155 3.000246"
   version="1.1"
   id="svg8"
   inkscape:version="0.92.3 (2405546, 2018-03-11)"
   sodipodi:docname="open-source-hardware.svg">
  <sodipodi:namedview
     id="base"
     pagecolor="#ffffff"
     bordercolor="#666666"
     borderopacity="1.0"
     inkscape:pageopacity="0.0"
     inkscape:pageshadow="2"
     inkscape:zoom="61.984763"
     inkscape:cx="8.5290266"
     inkscape:cy="6.2211185"
     inkscape:document-units="mm"
     inkscape:current-layer="layer1"
     showgrid="false"
     fit-margin-top="0"
     fit-margin-left="0"
     fit-margin-right="0"
     fit-margin-bottom="0"
     inkscape:window-width="1937"
     inkscape:window-height="1156"
     inkscape:window-x="7804"
     inkscape:window-y="759"
     inkscape:window-maximized="0" />
  <defs
     id="defs2" />
  <metadata
     id="metadata5">
    <rdf:RDF>
      <cc:Work
         rdf:about="">
        <dc:format>image/svg+xml</dc:format>
        <dc:type
           rdf:resource="http://purl.org/dc/dcmitype/StillImage" />
        <dc:title></dc:title>
      </cc:Work>
    </rdf:RDF>
  </metadata>
  <g
     transform="translate(-1.8257914,-98.734956)"
     id="layer1"
     inkscape:groupmode="layer"
     inkscape:label="Layer 1">
    <path
       inkscape:connector-curvature="0"
       id="path4669"
       d="m 2.3247155,101.56095 -0.1575691,-0.15773 0.037832,-0.0567 0.1181011,-0.17285 0.05669,-0.0859 0.023579,-0.0434 -0.019557,-0.0589 -0.043925,-0.11279 -0.046173,-0.11156 -0.0263,-0.0552 -0.063145,-0.0168 -0.1381168,-0.0272 -0.2103785,-0.0425 -0.018873,-0.008 0.00222,-0.21841 0.00222,-0.2184 0.037468,-0.01 0.2123216,-0.0413 0.1844776,-0.0387 0.077821,-0.166195 0.068196,-0.159019 -0.077707,-0.113299 -0.1274291,-0.186421 -0.049723,-0.07312 0.1536031,-0.153771 0.1123333,-0.108602 0.05438,-0.04517 0.060863,0.03547 0.1279198,0.08527 0.1288007,0.08527 0.062981,0.03547 0.1574953,-0.0578 0.154409,-0.066 0.043753,-0.209423 0.042038,-0.22256 0.00428,-0.01874 h 0.2244939 0.2244939 l 0.00428,0.01874 0.042038,0.22256 0.043753,0.209423 0.154409,0.066 0.1574953,0.0578 0.062981,-0.03547 0.1288007,-0.08527 0.1279198,-0.08527 0.060863,-0.03547 0.05438,0.04517 0.1123333,0.108602 0.1536031,0.153771 -0.049722,0.07312 -0.1274292,0.186421 -0.077707,0.113299 0.068196,0.159019 0.077821,0.166195 0.1844776,0.0387 0.2123215,0.0413 0.037469,0.01 0.00222,0.21715 -4.697e-4,0.1731 -0.00288,0.0378 -0.00497,0.0142 -0.210376,0.0437 -0.1439973,0.0281 -0.065591,0.0172 -0.026329,0.0553 -0.046169,0.11159 -0.043909,0.11283 -0.019548,0.059 0.034242,0.0592 0.082327,0.12369 0.1165687,0.1744 -0.1573157,0.16193 -0.1573156,0.15715 -0.1611668,-0.11036 -0.1788504,-0.11854 -0.01221,-0.002 -0.017756,0.004 -0.068484,0.0335 -0.059009,0.0286 -0.028369,0.008 -0.1525724,-0.36061 -0.1476603,-0.36159 0.047876,-0.0358 0.078058,-0.0619 0.064768,-0.0735 0.048959,-0.0816 0.017764,-0.0428 0.012868,-0.0435 0.011868,-0.0895 -0.00584,-0.0878 -0.022299,-0.0841 -0.037515,-0.0782 -0.051487,-0.0703 -0.064213,-0.0603 -0.075694,-0.04826 -0.085931,-0.03411 -0.055773,-0.01019 -0.066592,-0.0034 -0.066592,0.0034 -0.055773,0.01019 -0.045518,0.01601 -0.044369,0.021 -0.082434,0.05466 -0.036637,0.0325 -0.032632,0.0352 -0.027913,0.0373 -0.02248,0.0388 -0.033303,0.0854 -0.016316,0.0861 2.451e-4,0.0853 0.016381,0.0831 0.032091,0.0795 0.047375,0.0744 0.062234,0.0679 0.076667,0.06 0.045795,0.0348 -0.1476602,0.36159 -0.1525726,0.36061 -0.028369,-0.008 -0.059009,-0.0286 -0.068484,-0.0335 -0.017756,-0.004 -0.01221,0.002 -0.1772192,0.11742 -0.1624458,0.10925 -0.1604793,-0.15773 h -1.2e-6"
       style="fill:#00b700;fill-opacity:1;stroke:#000000;stroke-width:0.02202874;stroke-miterlimit:4;stroke-dasharray:none;stroke-opacity:1" />
  </g>
</svg>
